%TF.GenerationSoftware,KiCad,Pcbnew,9.0.6*%
%TF.CreationDate,2026-01-09T08:36:51+00:00*%
%TF.ProjectId,HALMET,48414c4d-4554-42e6-9b69-6361645f7063,1.0.0*%
%TF.SameCoordinates,Original*%
%TF.FileFunction,Soldermask,Top*%
%TF.FilePolarity,Negative*%
%FSLAX46Y46*%
G04 Gerber Fmt 4.6, Leading zero omitted, Abs format (unit mm)*
G04 Created by KiCad (PCBNEW 9.0.6) date 2026-01-09 08:36:51*
%MOMM*%
%LPD*%
G01*
G04 APERTURE LIST*
G04 Aperture macros list*
%AMRoundRect*
0 Rectangle with rounded corners*
0 $1 Rounding radius*
0 $2 $3 $4 $5 $6 $7 $8 $9 X,Y pos of 4 corners*
0 Add a 4 corners polygon primitive as box body*
4,1,4,$2,$3,$4,$5,$6,$7,$8,$9,$2,$3,0*
0 Add four circle primitives for the rounded corners*
1,1,$1+$1,$2,$3*
1,1,$1+$1,$4,$5*
1,1,$1+$1,$6,$7*
1,1,$1+$1,$8,$9*
0 Add four rect primitives between the rounded corners*
20,1,$1+$1,$2,$3,$4,$5,0*
20,1,$1+$1,$4,$5,$6,$7,0*
20,1,$1+$1,$6,$7,$8,$9,0*
20,1,$1+$1,$8,$9,$2,$3,0*%
%AMHorizOval*
0 Thick line with rounded ends*
0 $1 width*
0 $2 $3 position (X,Y) of the first rounded end (center of the circle)*
0 $4 $5 position (X,Y) of the second rounded end (center of the circle)*
0 Add line between two ends*
20,1,$1,$2,$3,$4,$5,0*
0 Add two circle primitives to create the rounded ends*
1,1,$1,$2,$3*
1,1,$1,$4,$5*%
%AMFreePoly0*
4,1,9,3.862500,-0.866500,0.737500,-0.866500,0.737500,-0.450000,-0.737500,-0.450000,-0.737500,0.450000,0.737500,0.450000,0.737500,0.866500,3.862500,0.866500,3.862500,-0.866500,3.862500,-0.866500,$1*%
G04 Aperture macros list end*
%ADD10C,2.500000*%
%ADD11C,0.010000*%
%ADD12RoundRect,0.225000X0.225000X0.250000X-0.225000X0.250000X-0.225000X-0.250000X0.225000X-0.250000X0*%
%ADD13RoundRect,0.140000X0.140000X0.170000X-0.140000X0.170000X-0.140000X-0.170000X0.140000X-0.170000X0*%
%ADD14RoundRect,0.225000X0.250000X-0.225000X0.250000X0.225000X-0.250000X0.225000X-0.250000X-0.225000X0*%
%ADD15RoundRect,0.140000X-0.170000X0.140000X-0.170000X-0.140000X0.170000X-0.140000X0.170000X0.140000X0*%
%ADD16RoundRect,0.135000X-0.135000X-0.185000X0.135000X-0.185000X0.135000X0.185000X-0.135000X0.185000X0*%
%ADD17RoundRect,0.250000X-0.262500X-0.450000X0.262500X-0.450000X0.262500X0.450000X-0.262500X0.450000X0*%
%ADD18R,1.700000X1.700000*%
%ADD19O,1.700000X1.700000*%
%ADD20RoundRect,0.218750X-0.381250X0.218750X-0.381250X-0.218750X0.381250X-0.218750X0.381250X0.218750X0*%
%ADD21R,0.840000X0.840000*%
%ADD22C,0.840000*%
%ADD23O,1.850000X0.850000*%
%ADD24RoundRect,0.140000X0.170000X-0.140000X0.170000X0.140000X-0.170000X0.140000X-0.170000X-0.140000X0*%
%ADD25RoundRect,0.218750X0.218750X0.256250X-0.218750X0.256250X-0.218750X-0.256250X0.218750X-0.256250X0*%
%ADD26R,3.050000X2.550000*%
%ADD27RoundRect,0.250000X-0.325000X-0.650000X0.325000X-0.650000X0.325000X0.650000X-0.325000X0.650000X0*%
%ADD28RoundRect,0.250000X-1.000000X-0.900000X1.000000X-0.900000X1.000000X0.900000X-1.000000X0.900000X0*%
%ADD29HorizOval,6.400000X-0.565685X0.565685X0.565685X-0.565685X0*%
%ADD30RoundRect,0.218750X0.381250X-0.218750X0.381250X0.218750X-0.381250X0.218750X-0.381250X-0.218750X0*%
%ADD31RoundRect,0.135000X0.135000X0.185000X-0.135000X0.185000X-0.135000X-0.185000X0.135000X-0.185000X0*%
%ADD32RoundRect,0.140000X-0.140000X-0.170000X0.140000X-0.170000X0.140000X0.170000X-0.140000X0.170000X0*%
%ADD33RoundRect,0.250000X0.625000X-0.375000X0.625000X0.375000X-0.625000X0.375000X-0.625000X-0.375000X0*%
%ADD34RoundRect,0.250000X0.325000X0.650000X-0.325000X0.650000X-0.325000X-0.650000X0.325000X-0.650000X0*%
%ADD35RoundRect,0.218750X0.218750X0.381250X-0.218750X0.381250X-0.218750X-0.381250X0.218750X-0.381250X0*%
%ADD36RoundRect,0.250000X-0.475000X0.250000X-0.475000X-0.250000X0.475000X-0.250000X0.475000X0.250000X0*%
%ADD37RoundRect,0.150000X-0.150000X0.825000X-0.150000X-0.825000X0.150000X-0.825000X0.150000X0.825000X0*%
%ADD38RoundRect,0.150000X0.150000X-0.587500X0.150000X0.587500X-0.150000X0.587500X-0.150000X-0.587500X0*%
%ADD39RoundRect,0.225000X0.225000X0.375000X-0.225000X0.375000X-0.225000X-0.375000X0.225000X-0.375000X0*%
%ADD40R,0.450000X0.700000*%
%ADD41RoundRect,0.135000X0.185000X-0.135000X0.185000X0.135000X-0.185000X0.135000X-0.185000X-0.135000X0*%
%ADD42R,1.700000X1.000000*%
%ADD43RoundRect,0.225000X-0.225000X-0.375000X0.225000X-0.375000X0.225000X0.375000X-0.225000X0.375000X0*%
%ADD44RoundRect,0.250000X0.650000X-0.325000X0.650000X0.325000X-0.650000X0.325000X-0.650000X-0.325000X0*%
%ADD45RoundRect,0.225000X-0.225000X-0.250000X0.225000X-0.250000X0.225000X0.250000X-0.225000X0.250000X0*%
%ADD46RoundRect,0.150000X-0.675000X-0.150000X0.675000X-0.150000X0.675000X0.150000X-0.675000X0.150000X0*%
%ADD47RoundRect,0.150000X0.825000X0.150000X-0.825000X0.150000X-0.825000X-0.150000X0.825000X-0.150000X0*%
%ADD48RoundRect,0.250000X0.450000X-0.262500X0.450000X0.262500X-0.450000X0.262500X-0.450000X-0.262500X0*%
%ADD49RoundRect,0.250000X0.312500X1.450000X-0.312500X1.450000X-0.312500X-1.450000X0.312500X-1.450000X0*%
%ADD50RoundRect,0.250000X0.650000X1.550000X-0.650000X1.550000X-0.650000X-1.550000X0.650000X-1.550000X0*%
%ADD51O,1.800000X3.600000*%
%ADD52RoundRect,0.249999X0.450001X0.850001X-0.450001X0.850001X-0.450001X-0.850001X0.450001X-0.850001X0*%
%ADD53R,0.700000X0.450000*%
%ADD54RoundRect,0.250000X-0.650000X0.325000X-0.650000X-0.325000X0.650000X-0.325000X0.650000X0.325000X0*%
%ADD55RoundRect,0.200000X0.275000X-0.200000X0.275000X0.200000X-0.275000X0.200000X-0.275000X-0.200000X0*%
%ADD56RoundRect,0.150000X-0.512500X-0.150000X0.512500X-0.150000X0.512500X0.150000X-0.512500X0.150000X0*%
%ADD57R,1.750000X2.250000*%
%ADD58O,1.750000X2.250000*%
%ADD59RoundRect,0.147500X-0.172500X0.147500X-0.172500X-0.147500X0.172500X-0.147500X0.172500X0.147500X0*%
%ADD60RoundRect,0.150000X0.512500X0.150000X-0.512500X0.150000X-0.512500X-0.150000X0.512500X-0.150000X0*%
%ADD61RoundRect,0.250000X-0.650000X-1.550000X0.650000X-1.550000X0.650000X1.550000X-0.650000X1.550000X0*%
%ADD62RoundRect,0.218750X-0.218750X-0.381250X0.218750X-0.381250X0.218750X0.381250X-0.218750X0.381250X0*%
%ADD63RoundRect,0.200000X-0.275000X0.200000X-0.275000X-0.200000X0.275000X-0.200000X0.275000X0.200000X0*%
%ADD64RoundRect,0.100000X0.130000X0.100000X-0.130000X0.100000X-0.130000X-0.100000X0.130000X-0.100000X0*%
%ADD65R,0.400000X0.650000*%
%ADD66RoundRect,0.135000X-0.185000X0.135000X-0.185000X-0.135000X0.185000X-0.135000X0.185000X0.135000X0*%
%ADD67RoundRect,0.250000X1.075000X-0.375000X1.075000X0.375000X-1.075000X0.375000X-1.075000X-0.375000X0*%
%ADD68RoundRect,0.147500X-0.147500X-0.172500X0.147500X-0.172500X0.147500X0.172500X-0.147500X0.172500X0*%
%ADD69RoundRect,0.137500X-0.662500X-0.137500X0.662500X-0.137500X0.662500X0.137500X-0.662500X0.137500X0*%
%ADD70R,0.900000X1.500000*%
%ADD71R,1.500000X0.900000*%
%ADD72C,0.600000*%
%ADD73R,3.900000X3.900000*%
%ADD74RoundRect,0.218750X-0.218750X-0.256250X0.218750X-0.256250X0.218750X0.256250X-0.218750X0.256250X0*%
%ADD75RoundRect,0.250000X-0.250000X-0.475000X0.250000X-0.475000X0.250000X0.475000X-0.250000X0.475000X0*%
%ADD76RoundRect,0.225000X-0.250000X0.225000X-0.250000X-0.225000X0.250000X-0.225000X0.250000X0.225000X0*%
%ADD77R,1.160000X1.820000*%
%ADD78RoundRect,0.225000X-0.425000X-0.225000X0.425000X-0.225000X0.425000X0.225000X-0.425000X0.225000X0*%
%ADD79FreePoly0,0.000000*%
%ADD80R,1.350000X1.350000*%
%ADD81C,1.350000*%
%ADD82RoundRect,0.200000X-0.200000X-0.275000X0.200000X-0.275000X0.200000X0.275000X-0.200000X0.275000X0*%
%ADD83RoundRect,0.150000X0.150000X-0.825000X0.150000X0.825000X-0.150000X0.825000X-0.150000X-0.825000X0*%
%ADD84RoundRect,0.147500X0.172500X-0.147500X0.172500X0.147500X-0.172500X0.147500X-0.172500X-0.147500X0*%
%ADD85R,1.016000X0.558800*%
%ADD86RoundRect,0.150000X-0.587500X-0.150000X0.587500X-0.150000X0.587500X0.150000X-0.587500X0.150000X0*%
%ADD87RoundRect,0.150000X0.150000X0.625000X-0.150000X0.625000X-0.150000X-0.625000X0.150000X-0.625000X0*%
%ADD88RoundRect,0.250000X0.350000X0.650000X-0.350000X0.650000X-0.350000X-0.650000X0.350000X-0.650000X0*%
%ADD89R,0.250000X1.100000*%
%ADD90RoundRect,0.200000X0.200000X0.275000X-0.200000X0.275000X-0.200000X-0.275000X0.200000X-0.275000X0*%
%ADD91RoundRect,0.225000X-0.375000X0.225000X-0.375000X-0.225000X0.375000X-0.225000X0.375000X0.225000X0*%
%TA.AperFunction,Profile*%
%ADD92C,0.050000*%
%TD*%
G04 APERTURE END LIST*
D10*
X158850347Y-108750000D02*
G75*
G02*
X153649653Y-108750000I-2600347J0D01*
G01*
X153649653Y-108750000D02*
G75*
G02*
X158850347Y-108750000I2600347J0D01*
G01*
X114350347Y-63250000D02*
G75*
G02*
X109149653Y-63250000I-2600347J0D01*
G01*
X109149653Y-63250000D02*
G75*
G02*
X114350347Y-63250000I2600347J0D01*
G01*
D11*
%TO.C,U1200*%
X137233000Y-106276000D02*
X137240000Y-106277000D01*
X137246000Y-106278000D01*
X137252000Y-106279000D01*
X137259000Y-106281000D01*
X137265000Y-106283000D01*
X137271000Y-106286000D01*
X137277000Y-106289000D01*
X137283000Y-106292000D01*
X137288000Y-106295000D01*
X137293000Y-106299000D01*
X137299000Y-106303000D01*
X137304000Y-106307000D01*
X137308000Y-106312000D01*
X137313000Y-106316000D01*
X137317000Y-106321000D01*
X137321000Y-106327000D01*
X137325000Y-106332000D01*
X137328000Y-106338000D01*
X137331000Y-106343000D01*
X137334000Y-106349000D01*
X137337000Y-106355000D01*
X137339000Y-106361000D01*
X137341000Y-106368000D01*
X137342000Y-106374000D01*
X137343000Y-106380000D01*
X137344000Y-106387000D01*
X137345000Y-106393000D01*
X137345000Y-106400000D01*
X137345000Y-106600000D01*
X137345000Y-106607000D01*
X137344000Y-106613000D01*
X137343000Y-106620000D01*
X137342000Y-106626000D01*
X137341000Y-106632000D01*
X137339000Y-106639000D01*
X137337000Y-106645000D01*
X137334000Y-106651000D01*
X137331000Y-106657000D01*
X137328000Y-106662000D01*
X137325000Y-106668000D01*
X137321000Y-106673000D01*
X137317000Y-106679000D01*
X137313000Y-106684000D01*
X137308000Y-106688000D01*
X137304000Y-106693000D01*
X137299000Y-106697000D01*
X137293000Y-106701000D01*
X137288000Y-106705000D01*
X137283000Y-106708000D01*
X137277000Y-106711000D01*
X137271000Y-106714000D01*
X137265000Y-106717000D01*
X137259000Y-106719000D01*
X137252000Y-106721000D01*
X137246000Y-106722000D01*
X137240000Y-106723000D01*
X137233000Y-106724000D01*
X137227000Y-106725000D01*
X137220000Y-106725000D01*
X136780000Y-106725000D01*
X136773000Y-106725000D01*
X136767000Y-106724000D01*
X136760000Y-106723000D01*
X136754000Y-106722000D01*
X136748000Y-106721000D01*
X136741000Y-106719000D01*
X136735000Y-106717000D01*
X136729000Y-106714000D01*
X136723000Y-106711000D01*
X136717000Y-106708000D01*
X136712000Y-106705000D01*
X136707000Y-106701000D01*
X136701000Y-106697000D01*
X136696000Y-106693000D01*
X136692000Y-106688000D01*
X136687000Y-106684000D01*
X136683000Y-106679000D01*
X136679000Y-106673000D01*
X136675000Y-106668000D01*
X136672000Y-106662000D01*
X136669000Y-106657000D01*
X136666000Y-106651000D01*
X136663000Y-106645000D01*
X136661000Y-106639000D01*
X136659000Y-106632000D01*
X136658000Y-106626000D01*
X136657000Y-106620000D01*
X136656000Y-106613000D01*
X136655000Y-106607000D01*
X136655000Y-106600000D01*
X136655000Y-106400000D01*
X136655000Y-106393000D01*
X136656000Y-106387000D01*
X136657000Y-106380000D01*
X136658000Y-106374000D01*
X136659000Y-106368000D01*
X136661000Y-106361000D01*
X136663000Y-106355000D01*
X136666000Y-106349000D01*
X136669000Y-106343000D01*
X136672000Y-106338000D01*
X136675000Y-106332000D01*
X136679000Y-106327000D01*
X136683000Y-106321000D01*
X136687000Y-106316000D01*
X136692000Y-106312000D01*
X136696000Y-106307000D01*
X136701000Y-106303000D01*
X136707000Y-106299000D01*
X136712000Y-106295000D01*
X136717000Y-106292000D01*
X136723000Y-106289000D01*
X136729000Y-106286000D01*
X136735000Y-106283000D01*
X136741000Y-106281000D01*
X136748000Y-106279000D01*
X136754000Y-106278000D01*
X136760000Y-106277000D01*
X136767000Y-106276000D01*
X136773000Y-106275000D01*
X136780000Y-106275000D01*
X137220000Y-106275000D01*
X137227000Y-106275000D01*
X137233000Y-106276000D01*
G36*
X137233000Y-106276000D02*
G01*
X137240000Y-106277000D01*
X137246000Y-106278000D01*
X137252000Y-106279000D01*
X137259000Y-106281000D01*
X137265000Y-106283000D01*
X137271000Y-106286000D01*
X137277000Y-106289000D01*
X137283000Y-106292000D01*
X137288000Y-106295000D01*
X137293000Y-106299000D01*
X137299000Y-106303000D01*
X137304000Y-106307000D01*
X137308000Y-106312000D01*
X137313000Y-106316000D01*
X137317000Y-106321000D01*
X137321000Y-106327000D01*
X137325000Y-106332000D01*
X137328000Y-106338000D01*
X137331000Y-106343000D01*
X137334000Y-106349000D01*
X137337000Y-106355000D01*
X137339000Y-106361000D01*
X137341000Y-106368000D01*
X137342000Y-106374000D01*
X137343000Y-106380000D01*
X137344000Y-106387000D01*
X137345000Y-106393000D01*
X137345000Y-106400000D01*
X137345000Y-106600000D01*
X137345000Y-106607000D01*
X137344000Y-106613000D01*
X137343000Y-106620000D01*
X137342000Y-106626000D01*
X137341000Y-106632000D01*
X137339000Y-106639000D01*
X137337000Y-106645000D01*
X137334000Y-106651000D01*
X137331000Y-106657000D01*
X137328000Y-106662000D01*
X137325000Y-106668000D01*
X137321000Y-106673000D01*
X137317000Y-106679000D01*
X137313000Y-106684000D01*
X137308000Y-106688000D01*
X137304000Y-106693000D01*
X137299000Y-106697000D01*
X137293000Y-106701000D01*
X137288000Y-106705000D01*
X137283000Y-106708000D01*
X137277000Y-106711000D01*
X137271000Y-106714000D01*
X137265000Y-106717000D01*
X137259000Y-106719000D01*
X137252000Y-106721000D01*
X137246000Y-106722000D01*
X137240000Y-106723000D01*
X137233000Y-106724000D01*
X137227000Y-106725000D01*
X137220000Y-106725000D01*
X136780000Y-106725000D01*
X136773000Y-106725000D01*
X136767000Y-106724000D01*
X136760000Y-106723000D01*
X136754000Y-106722000D01*
X136748000Y-106721000D01*
X136741000Y-106719000D01*
X136735000Y-106717000D01*
X136729000Y-106714000D01*
X136723000Y-106711000D01*
X136717000Y-106708000D01*
X136712000Y-106705000D01*
X136707000Y-106701000D01*
X136701000Y-106697000D01*
X136696000Y-106693000D01*
X136692000Y-106688000D01*
X136687000Y-106684000D01*
X136683000Y-106679000D01*
X136679000Y-106673000D01*
X136675000Y-106668000D01*
X136672000Y-106662000D01*
X136669000Y-106657000D01*
X136666000Y-106651000D01*
X136663000Y-106645000D01*
X136661000Y-106639000D01*
X136659000Y-106632000D01*
X136658000Y-106626000D01*
X136657000Y-106620000D01*
X136656000Y-106613000D01*
X136655000Y-106607000D01*
X136655000Y-106600000D01*
X136655000Y-106400000D01*
X136655000Y-106393000D01*
X136656000Y-106387000D01*
X136657000Y-106380000D01*
X136658000Y-106374000D01*
X136659000Y-106368000D01*
X136661000Y-106361000D01*
X136663000Y-106355000D01*
X136666000Y-106349000D01*
X136669000Y-106343000D01*
X136672000Y-106338000D01*
X136675000Y-106332000D01*
X136679000Y-106327000D01*
X136683000Y-106321000D01*
X136687000Y-106316000D01*
X136692000Y-106312000D01*
X136696000Y-106307000D01*
X136701000Y-106303000D01*
X136707000Y-106299000D01*
X136712000Y-106295000D01*
X136717000Y-106292000D01*
X136723000Y-106289000D01*
X136729000Y-106286000D01*
X136735000Y-106283000D01*
X136741000Y-106281000D01*
X136748000Y-106279000D01*
X136754000Y-106278000D01*
X136760000Y-106277000D01*
X136767000Y-106276000D01*
X136773000Y-106275000D01*
X136780000Y-106275000D01*
X137220000Y-106275000D01*
X137227000Y-106275000D01*
X137233000Y-106276000D01*
G37*
X137233000Y-106776000D02*
X137240000Y-106777000D01*
X137246000Y-106778000D01*
X137252000Y-106779000D01*
X137259000Y-106781000D01*
X137265000Y-106783000D01*
X137271000Y-106786000D01*
X137277000Y-106789000D01*
X137283000Y-106792000D01*
X137288000Y-106795000D01*
X137293000Y-106799000D01*
X137299000Y-106803000D01*
X137304000Y-106807000D01*
X137308000Y-106812000D01*
X137313000Y-106816000D01*
X137317000Y-106821000D01*
X137321000Y-106827000D01*
X137325000Y-106832000D01*
X137328000Y-106838000D01*
X137331000Y-106843000D01*
X137334000Y-106849000D01*
X137337000Y-106855000D01*
X137339000Y-106861000D01*
X137341000Y-106868000D01*
X137342000Y-106874000D01*
X137343000Y-106880000D01*
X137344000Y-106887000D01*
X137345000Y-106893000D01*
X137345000Y-106900000D01*
X137345000Y-107100000D01*
X137345000Y-107107000D01*
X137344000Y-107113000D01*
X137343000Y-107120000D01*
X137342000Y-107126000D01*
X137341000Y-107132000D01*
X137339000Y-107139000D01*
X137337000Y-107145000D01*
X137334000Y-107151000D01*
X137331000Y-107157000D01*
X137328000Y-107162000D01*
X137325000Y-107168000D01*
X137321000Y-107173000D01*
X137317000Y-107179000D01*
X137313000Y-107184000D01*
X137308000Y-107188000D01*
X137304000Y-107193000D01*
X137299000Y-107197000D01*
X137293000Y-107201000D01*
X137288000Y-107205000D01*
X137283000Y-107208000D01*
X137277000Y-107211000D01*
X137271000Y-107214000D01*
X137265000Y-107217000D01*
X137259000Y-107219000D01*
X137252000Y-107221000D01*
X137246000Y-107222000D01*
X137240000Y-107223000D01*
X137233000Y-107224000D01*
X137227000Y-107225000D01*
X137220000Y-107225000D01*
X136780000Y-107225000D01*
X136773000Y-107225000D01*
X136767000Y-107224000D01*
X136760000Y-107223000D01*
X136754000Y-107222000D01*
X136748000Y-107221000D01*
X136741000Y-107219000D01*
X136735000Y-107217000D01*
X136729000Y-107214000D01*
X136723000Y-107211000D01*
X136717000Y-107208000D01*
X136712000Y-107205000D01*
X136707000Y-107201000D01*
X136701000Y-107197000D01*
X136696000Y-107193000D01*
X136692000Y-107188000D01*
X136687000Y-107184000D01*
X136683000Y-107179000D01*
X136679000Y-107173000D01*
X136675000Y-107168000D01*
X136672000Y-107162000D01*
X136669000Y-107157000D01*
X136666000Y-107151000D01*
X136663000Y-107145000D01*
X136661000Y-107139000D01*
X136659000Y-107132000D01*
X136658000Y-107126000D01*
X136657000Y-107120000D01*
X136656000Y-107113000D01*
X136655000Y-107107000D01*
X136655000Y-107100000D01*
X136655000Y-106900000D01*
X136655000Y-106893000D01*
X136656000Y-106887000D01*
X136657000Y-106880000D01*
X136658000Y-106874000D01*
X136659000Y-106868000D01*
X136661000Y-106861000D01*
X136663000Y-106855000D01*
X136666000Y-106849000D01*
X136669000Y-106843000D01*
X136672000Y-106838000D01*
X136675000Y-106832000D01*
X136679000Y-106827000D01*
X136683000Y-106821000D01*
X136687000Y-106816000D01*
X136692000Y-106812000D01*
X136696000Y-106807000D01*
X136701000Y-106803000D01*
X136707000Y-106799000D01*
X136712000Y-106795000D01*
X136717000Y-106792000D01*
X136723000Y-106789000D01*
X136729000Y-106786000D01*
X136735000Y-106783000D01*
X136741000Y-106781000D01*
X136748000Y-106779000D01*
X136754000Y-106778000D01*
X136760000Y-106777000D01*
X136767000Y-106776000D01*
X136773000Y-106775000D01*
X136780000Y-106775000D01*
X137220000Y-106775000D01*
X137227000Y-106775000D01*
X137233000Y-106776000D01*
G36*
X137233000Y-106776000D02*
G01*
X137240000Y-106777000D01*
X137246000Y-106778000D01*
X137252000Y-106779000D01*
X137259000Y-106781000D01*
X137265000Y-106783000D01*
X137271000Y-106786000D01*
X137277000Y-106789000D01*
X137283000Y-106792000D01*
X137288000Y-106795000D01*
X137293000Y-106799000D01*
X137299000Y-106803000D01*
X137304000Y-106807000D01*
X137308000Y-106812000D01*
X137313000Y-106816000D01*
X137317000Y-106821000D01*
X137321000Y-106827000D01*
X137325000Y-106832000D01*
X137328000Y-106838000D01*
X137331000Y-106843000D01*
X137334000Y-106849000D01*
X137337000Y-106855000D01*
X137339000Y-106861000D01*
X137341000Y-106868000D01*
X137342000Y-106874000D01*
X137343000Y-106880000D01*
X137344000Y-106887000D01*
X137345000Y-106893000D01*
X137345000Y-106900000D01*
X137345000Y-107100000D01*
X137345000Y-107107000D01*
X137344000Y-107113000D01*
X137343000Y-107120000D01*
X137342000Y-107126000D01*
X137341000Y-107132000D01*
X137339000Y-107139000D01*
X137337000Y-107145000D01*
X137334000Y-107151000D01*
X137331000Y-107157000D01*
X137328000Y-107162000D01*
X137325000Y-107168000D01*
X137321000Y-107173000D01*
X137317000Y-107179000D01*
X137313000Y-107184000D01*
X137308000Y-107188000D01*
X137304000Y-107193000D01*
X137299000Y-107197000D01*
X137293000Y-107201000D01*
X137288000Y-107205000D01*
X137283000Y-107208000D01*
X137277000Y-107211000D01*
X137271000Y-107214000D01*
X137265000Y-107217000D01*
X137259000Y-107219000D01*
X137252000Y-107221000D01*
X137246000Y-107222000D01*
X137240000Y-107223000D01*
X137233000Y-107224000D01*
X137227000Y-107225000D01*
X137220000Y-107225000D01*
X136780000Y-107225000D01*
X136773000Y-107225000D01*
X136767000Y-107224000D01*
X136760000Y-107223000D01*
X136754000Y-107222000D01*
X136748000Y-107221000D01*
X136741000Y-107219000D01*
X136735000Y-107217000D01*
X136729000Y-107214000D01*
X136723000Y-107211000D01*
X136717000Y-107208000D01*
X136712000Y-107205000D01*
X136707000Y-107201000D01*
X136701000Y-107197000D01*
X136696000Y-107193000D01*
X136692000Y-107188000D01*
X136687000Y-107184000D01*
X136683000Y-107179000D01*
X136679000Y-107173000D01*
X136675000Y-107168000D01*
X136672000Y-107162000D01*
X136669000Y-107157000D01*
X136666000Y-107151000D01*
X136663000Y-107145000D01*
X136661000Y-107139000D01*
X136659000Y-107132000D01*
X136658000Y-107126000D01*
X136657000Y-107120000D01*
X136656000Y-107113000D01*
X136655000Y-107107000D01*
X136655000Y-107100000D01*
X136655000Y-106900000D01*
X136655000Y-106893000D01*
X136656000Y-106887000D01*
X136657000Y-106880000D01*
X136658000Y-106874000D01*
X136659000Y-106868000D01*
X136661000Y-106861000D01*
X136663000Y-106855000D01*
X136666000Y-106849000D01*
X136669000Y-106843000D01*
X136672000Y-106838000D01*
X136675000Y-106832000D01*
X136679000Y-106827000D01*
X136683000Y-106821000D01*
X136687000Y-106816000D01*
X136692000Y-106812000D01*
X136696000Y-106807000D01*
X136701000Y-106803000D01*
X136707000Y-106799000D01*
X136712000Y-106795000D01*
X136717000Y-106792000D01*
X136723000Y-106789000D01*
X136729000Y-106786000D01*
X136735000Y-106783000D01*
X136741000Y-106781000D01*
X136748000Y-106779000D01*
X136754000Y-106778000D01*
X136760000Y-106777000D01*
X136767000Y-106776000D01*
X136773000Y-106775000D01*
X136780000Y-106775000D01*
X137220000Y-106775000D01*
X137227000Y-106775000D01*
X137233000Y-106776000D01*
G37*
X137233000Y-107276000D02*
X137240000Y-107277000D01*
X137246000Y-107278000D01*
X137252000Y-107279000D01*
X137259000Y-107281000D01*
X137265000Y-107283000D01*
X137271000Y-107286000D01*
X137277000Y-107289000D01*
X137283000Y-107292000D01*
X137288000Y-107295000D01*
X137293000Y-107299000D01*
X137299000Y-107303000D01*
X137304000Y-107307000D01*
X137308000Y-107312000D01*
X137313000Y-107316000D01*
X137317000Y-107321000D01*
X137321000Y-107327000D01*
X137325000Y-107332000D01*
X137328000Y-107338000D01*
X137331000Y-107343000D01*
X137334000Y-107349000D01*
X137337000Y-107355000D01*
X137339000Y-107361000D01*
X137341000Y-107368000D01*
X137342000Y-107374000D01*
X137343000Y-107380000D01*
X137344000Y-107387000D01*
X137345000Y-107393000D01*
X137345000Y-107400000D01*
X137345000Y-107600000D01*
X137345000Y-107607000D01*
X137344000Y-107613000D01*
X137343000Y-107620000D01*
X137342000Y-107626000D01*
X137341000Y-107632000D01*
X137339000Y-107639000D01*
X137337000Y-107645000D01*
X137334000Y-107651000D01*
X137331000Y-107657000D01*
X137328000Y-107662000D01*
X137325000Y-107668000D01*
X137321000Y-107673000D01*
X137317000Y-107679000D01*
X137313000Y-107684000D01*
X137308000Y-107688000D01*
X137304000Y-107693000D01*
X137299000Y-107697000D01*
X137293000Y-107701000D01*
X137288000Y-107705000D01*
X137283000Y-107708000D01*
X137277000Y-107711000D01*
X137271000Y-107714000D01*
X137265000Y-107717000D01*
X137259000Y-107719000D01*
X137252000Y-107721000D01*
X137246000Y-107722000D01*
X137240000Y-107723000D01*
X137233000Y-107724000D01*
X137227000Y-107725000D01*
X137220000Y-107725000D01*
X136780000Y-107725000D01*
X136773000Y-107725000D01*
X136767000Y-107724000D01*
X136760000Y-107723000D01*
X136754000Y-107722000D01*
X136748000Y-107721000D01*
X136741000Y-107719000D01*
X136735000Y-107717000D01*
X136729000Y-107714000D01*
X136723000Y-107711000D01*
X136717000Y-107708000D01*
X136712000Y-107705000D01*
X136707000Y-107701000D01*
X136701000Y-107697000D01*
X136696000Y-107693000D01*
X136692000Y-107688000D01*
X136687000Y-107684000D01*
X136683000Y-107679000D01*
X136679000Y-107673000D01*
X136675000Y-107668000D01*
X136672000Y-107662000D01*
X136669000Y-107657000D01*
X136666000Y-107651000D01*
X136663000Y-107645000D01*
X136661000Y-107639000D01*
X136659000Y-107632000D01*
X136658000Y-107626000D01*
X136657000Y-107620000D01*
X136656000Y-107613000D01*
X136655000Y-107607000D01*
X136655000Y-107600000D01*
X136655000Y-107400000D01*
X136655000Y-107393000D01*
X136656000Y-107387000D01*
X136657000Y-107380000D01*
X136658000Y-107374000D01*
X136659000Y-107368000D01*
X136661000Y-107361000D01*
X136663000Y-107355000D01*
X136666000Y-107349000D01*
X136669000Y-107343000D01*
X136672000Y-107338000D01*
X136675000Y-107332000D01*
X136679000Y-107327000D01*
X136683000Y-107321000D01*
X136687000Y-107316000D01*
X136692000Y-107312000D01*
X136696000Y-107307000D01*
X136701000Y-107303000D01*
X136707000Y-107299000D01*
X136712000Y-107295000D01*
X136717000Y-107292000D01*
X136723000Y-107289000D01*
X136729000Y-107286000D01*
X136735000Y-107283000D01*
X136741000Y-107281000D01*
X136748000Y-107279000D01*
X136754000Y-107278000D01*
X136760000Y-107277000D01*
X136767000Y-107276000D01*
X136773000Y-107275000D01*
X136780000Y-107275000D01*
X137220000Y-107275000D01*
X137227000Y-107275000D01*
X137233000Y-107276000D01*
G36*
X137233000Y-107276000D02*
G01*
X137240000Y-107277000D01*
X137246000Y-107278000D01*
X137252000Y-107279000D01*
X137259000Y-107281000D01*
X137265000Y-107283000D01*
X137271000Y-107286000D01*
X137277000Y-107289000D01*
X137283000Y-107292000D01*
X137288000Y-107295000D01*
X137293000Y-107299000D01*
X137299000Y-107303000D01*
X137304000Y-107307000D01*
X137308000Y-107312000D01*
X137313000Y-107316000D01*
X137317000Y-107321000D01*
X137321000Y-107327000D01*
X137325000Y-107332000D01*
X137328000Y-107338000D01*
X137331000Y-107343000D01*
X137334000Y-107349000D01*
X137337000Y-107355000D01*
X137339000Y-107361000D01*
X137341000Y-107368000D01*
X137342000Y-107374000D01*
X137343000Y-107380000D01*
X137344000Y-107387000D01*
X137345000Y-107393000D01*
X137345000Y-107400000D01*
X137345000Y-107600000D01*
X137345000Y-107607000D01*
X137344000Y-107613000D01*
X137343000Y-107620000D01*
X137342000Y-107626000D01*
X137341000Y-107632000D01*
X137339000Y-107639000D01*
X137337000Y-107645000D01*
X137334000Y-107651000D01*
X137331000Y-107657000D01*
X137328000Y-107662000D01*
X137325000Y-107668000D01*
X137321000Y-107673000D01*
X137317000Y-107679000D01*
X137313000Y-107684000D01*
X137308000Y-107688000D01*
X137304000Y-107693000D01*
X137299000Y-107697000D01*
X137293000Y-107701000D01*
X137288000Y-107705000D01*
X137283000Y-107708000D01*
X137277000Y-107711000D01*
X137271000Y-107714000D01*
X137265000Y-107717000D01*
X137259000Y-107719000D01*
X137252000Y-107721000D01*
X137246000Y-107722000D01*
X137240000Y-107723000D01*
X137233000Y-107724000D01*
X137227000Y-107725000D01*
X137220000Y-107725000D01*
X136780000Y-107725000D01*
X136773000Y-107725000D01*
X136767000Y-107724000D01*
X136760000Y-107723000D01*
X136754000Y-107722000D01*
X136748000Y-107721000D01*
X136741000Y-107719000D01*
X136735000Y-107717000D01*
X136729000Y-107714000D01*
X136723000Y-107711000D01*
X136717000Y-107708000D01*
X136712000Y-107705000D01*
X136707000Y-107701000D01*
X136701000Y-107697000D01*
X136696000Y-107693000D01*
X136692000Y-107688000D01*
X136687000Y-107684000D01*
X136683000Y-107679000D01*
X136679000Y-107673000D01*
X136675000Y-107668000D01*
X136672000Y-107662000D01*
X136669000Y-107657000D01*
X136666000Y-107651000D01*
X136663000Y-107645000D01*
X136661000Y-107639000D01*
X136659000Y-107632000D01*
X136658000Y-107626000D01*
X136657000Y-107620000D01*
X136656000Y-107613000D01*
X136655000Y-107607000D01*
X136655000Y-107600000D01*
X136655000Y-107400000D01*
X136655000Y-107393000D01*
X136656000Y-107387000D01*
X136657000Y-107380000D01*
X136658000Y-107374000D01*
X136659000Y-107368000D01*
X136661000Y-107361000D01*
X136663000Y-107355000D01*
X136666000Y-107349000D01*
X136669000Y-107343000D01*
X136672000Y-107338000D01*
X136675000Y-107332000D01*
X136679000Y-107327000D01*
X136683000Y-107321000D01*
X136687000Y-107316000D01*
X136692000Y-107312000D01*
X136696000Y-107307000D01*
X136701000Y-107303000D01*
X136707000Y-107299000D01*
X136712000Y-107295000D01*
X136717000Y-107292000D01*
X136723000Y-107289000D01*
X136729000Y-107286000D01*
X136735000Y-107283000D01*
X136741000Y-107281000D01*
X136748000Y-107279000D01*
X136754000Y-107278000D01*
X136760000Y-107277000D01*
X136767000Y-107276000D01*
X136773000Y-107275000D01*
X136780000Y-107275000D01*
X137220000Y-107275000D01*
X137227000Y-107275000D01*
X137233000Y-107276000D01*
G37*
X137233000Y-107776000D02*
X137240000Y-107777000D01*
X137246000Y-107778000D01*
X137252000Y-107779000D01*
X137259000Y-107781000D01*
X137265000Y-107783000D01*
X137271000Y-107786000D01*
X137277000Y-107789000D01*
X137283000Y-107792000D01*
X137288000Y-107795000D01*
X137293000Y-107799000D01*
X137299000Y-107803000D01*
X137304000Y-107807000D01*
X137308000Y-107812000D01*
X137313000Y-107816000D01*
X137317000Y-107821000D01*
X137321000Y-107827000D01*
X137325000Y-107832000D01*
X137328000Y-107838000D01*
X137331000Y-107843000D01*
X137334000Y-107849000D01*
X137337000Y-107855000D01*
X137339000Y-107861000D01*
X137341000Y-107868000D01*
X137342000Y-107874000D01*
X137343000Y-107880000D01*
X137344000Y-107887000D01*
X137345000Y-107893000D01*
X137345000Y-107900000D01*
X137345000Y-108100000D01*
X137345000Y-108107000D01*
X137344000Y-108113000D01*
X137343000Y-108120000D01*
X137342000Y-108126000D01*
X137341000Y-108132000D01*
X137339000Y-108139000D01*
X137337000Y-108145000D01*
X137334000Y-108151000D01*
X137331000Y-108157000D01*
X137328000Y-108162000D01*
X137325000Y-108168000D01*
X137321000Y-108173000D01*
X137317000Y-108179000D01*
X137313000Y-108184000D01*
X137308000Y-108188000D01*
X137304000Y-108193000D01*
X137299000Y-108197000D01*
X137293000Y-108201000D01*
X137288000Y-108205000D01*
X137283000Y-108208000D01*
X137277000Y-108211000D01*
X137271000Y-108214000D01*
X137265000Y-108217000D01*
X137259000Y-108219000D01*
X137252000Y-108221000D01*
X137246000Y-108222000D01*
X137240000Y-108223000D01*
X137233000Y-108224000D01*
X137227000Y-108225000D01*
X137220000Y-108225000D01*
X136780000Y-108225000D01*
X136773000Y-108225000D01*
X136767000Y-108224000D01*
X136760000Y-108223000D01*
X136754000Y-108222000D01*
X136748000Y-108221000D01*
X136741000Y-108219000D01*
X136735000Y-108217000D01*
X136729000Y-108214000D01*
X136723000Y-108211000D01*
X136717000Y-108208000D01*
X136712000Y-108205000D01*
X136707000Y-108201000D01*
X136701000Y-108197000D01*
X136696000Y-108193000D01*
X136692000Y-108188000D01*
X136687000Y-108184000D01*
X136683000Y-108179000D01*
X136679000Y-108173000D01*
X136675000Y-108168000D01*
X136672000Y-108162000D01*
X136669000Y-108157000D01*
X136666000Y-108151000D01*
X136663000Y-108145000D01*
X136661000Y-108139000D01*
X136659000Y-108132000D01*
X136658000Y-108126000D01*
X136657000Y-108120000D01*
X136656000Y-108113000D01*
X136655000Y-108107000D01*
X136655000Y-108100000D01*
X136655000Y-107900000D01*
X136655000Y-107893000D01*
X136656000Y-107887000D01*
X136657000Y-107880000D01*
X136658000Y-107874000D01*
X136659000Y-107868000D01*
X136661000Y-107861000D01*
X136663000Y-107855000D01*
X136666000Y-107849000D01*
X136669000Y-107843000D01*
X136672000Y-107838000D01*
X136675000Y-107832000D01*
X136679000Y-107827000D01*
X136683000Y-107821000D01*
X136687000Y-107816000D01*
X136692000Y-107812000D01*
X136696000Y-107807000D01*
X136701000Y-107803000D01*
X136707000Y-107799000D01*
X136712000Y-107795000D01*
X136717000Y-107792000D01*
X136723000Y-107789000D01*
X136729000Y-107786000D01*
X136735000Y-107783000D01*
X136741000Y-107781000D01*
X136748000Y-107779000D01*
X136754000Y-107778000D01*
X136760000Y-107777000D01*
X136767000Y-107776000D01*
X136773000Y-107775000D01*
X136780000Y-107775000D01*
X137220000Y-107775000D01*
X137227000Y-107775000D01*
X137233000Y-107776000D01*
G36*
X137233000Y-107776000D02*
G01*
X137240000Y-107777000D01*
X137246000Y-107778000D01*
X137252000Y-107779000D01*
X137259000Y-107781000D01*
X137265000Y-107783000D01*
X137271000Y-107786000D01*
X137277000Y-107789000D01*
X137283000Y-107792000D01*
X137288000Y-107795000D01*
X137293000Y-107799000D01*
X137299000Y-107803000D01*
X137304000Y-107807000D01*
X137308000Y-107812000D01*
X137313000Y-107816000D01*
X137317000Y-107821000D01*
X137321000Y-107827000D01*
X137325000Y-107832000D01*
X137328000Y-107838000D01*
X137331000Y-107843000D01*
X137334000Y-107849000D01*
X137337000Y-107855000D01*
X137339000Y-107861000D01*
X137341000Y-107868000D01*
X137342000Y-107874000D01*
X137343000Y-107880000D01*
X137344000Y-107887000D01*
X137345000Y-107893000D01*
X137345000Y-107900000D01*
X137345000Y-108100000D01*
X137345000Y-108107000D01*
X137344000Y-108113000D01*
X137343000Y-108120000D01*
X137342000Y-108126000D01*
X137341000Y-108132000D01*
X137339000Y-108139000D01*
X137337000Y-108145000D01*
X137334000Y-108151000D01*
X137331000Y-108157000D01*
X137328000Y-108162000D01*
X137325000Y-108168000D01*
X137321000Y-108173000D01*
X137317000Y-108179000D01*
X137313000Y-108184000D01*
X137308000Y-108188000D01*
X137304000Y-108193000D01*
X137299000Y-108197000D01*
X137293000Y-108201000D01*
X137288000Y-108205000D01*
X137283000Y-108208000D01*
X137277000Y-108211000D01*
X137271000Y-108214000D01*
X137265000Y-108217000D01*
X137259000Y-108219000D01*
X137252000Y-108221000D01*
X137246000Y-108222000D01*
X137240000Y-108223000D01*
X137233000Y-108224000D01*
X137227000Y-108225000D01*
X137220000Y-108225000D01*
X136780000Y-108225000D01*
X136773000Y-108225000D01*
X136767000Y-108224000D01*
X136760000Y-108223000D01*
X136754000Y-108222000D01*
X136748000Y-108221000D01*
X136741000Y-108219000D01*
X136735000Y-108217000D01*
X136729000Y-108214000D01*
X136723000Y-108211000D01*
X136717000Y-108208000D01*
X136712000Y-108205000D01*
X136707000Y-108201000D01*
X136701000Y-108197000D01*
X136696000Y-108193000D01*
X136692000Y-108188000D01*
X136687000Y-108184000D01*
X136683000Y-108179000D01*
X136679000Y-108173000D01*
X136675000Y-108168000D01*
X136672000Y-108162000D01*
X136669000Y-108157000D01*
X136666000Y-108151000D01*
X136663000Y-108145000D01*
X136661000Y-108139000D01*
X136659000Y-108132000D01*
X136658000Y-108126000D01*
X136657000Y-108120000D01*
X136656000Y-108113000D01*
X136655000Y-108107000D01*
X136655000Y-108100000D01*
X136655000Y-107900000D01*
X136655000Y-107893000D01*
X136656000Y-107887000D01*
X136657000Y-107880000D01*
X136658000Y-107874000D01*
X136659000Y-107868000D01*
X136661000Y-107861000D01*
X136663000Y-107855000D01*
X136666000Y-107849000D01*
X136669000Y-107843000D01*
X136672000Y-107838000D01*
X136675000Y-107832000D01*
X136679000Y-107827000D01*
X136683000Y-107821000D01*
X136687000Y-107816000D01*
X136692000Y-107812000D01*
X136696000Y-107807000D01*
X136701000Y-107803000D01*
X136707000Y-107799000D01*
X136712000Y-107795000D01*
X136717000Y-107792000D01*
X136723000Y-107789000D01*
X136729000Y-107786000D01*
X136735000Y-107783000D01*
X136741000Y-107781000D01*
X136748000Y-107779000D01*
X136754000Y-107778000D01*
X136760000Y-107777000D01*
X136767000Y-107776000D01*
X136773000Y-107775000D01*
X136780000Y-107775000D01*
X137220000Y-107775000D01*
X137227000Y-107775000D01*
X137233000Y-107776000D01*
G37*
X137778000Y-105991000D02*
X137785000Y-105992000D01*
X137791000Y-105993000D01*
X137797000Y-105994000D01*
X137804000Y-105996000D01*
X137810000Y-105998000D01*
X137816000Y-106001000D01*
X137822000Y-106004000D01*
X137827000Y-106007000D01*
X137833000Y-106010000D01*
X137838000Y-106014000D01*
X137844000Y-106018000D01*
X137849000Y-106022000D01*
X137853000Y-106027000D01*
X137858000Y-106031000D01*
X137862000Y-106036000D01*
X137866000Y-106042000D01*
X137870000Y-106047000D01*
X137873000Y-106052000D01*
X137876000Y-106058000D01*
X137879000Y-106064000D01*
X137882000Y-106070000D01*
X137884000Y-106076000D01*
X137886000Y-106083000D01*
X137887000Y-106089000D01*
X137888000Y-106095000D01*
X137889000Y-106102000D01*
X137890000Y-106108000D01*
X137890000Y-106115000D01*
X137890000Y-106555000D01*
X137890000Y-106562000D01*
X137889000Y-106568000D01*
X137888000Y-106575000D01*
X137887000Y-106581000D01*
X137886000Y-106587000D01*
X137884000Y-106594000D01*
X137882000Y-106600000D01*
X137879000Y-106606000D01*
X137876000Y-106612000D01*
X137873000Y-106618000D01*
X137870000Y-106623000D01*
X137866000Y-106628000D01*
X137862000Y-106634000D01*
X137858000Y-106639000D01*
X137853000Y-106643000D01*
X137849000Y-106648000D01*
X137844000Y-106652000D01*
X137838000Y-106656000D01*
X137833000Y-106660000D01*
X137827000Y-106663000D01*
X137822000Y-106666000D01*
X137816000Y-106669000D01*
X137810000Y-106672000D01*
X137804000Y-106674000D01*
X137797000Y-106676000D01*
X137791000Y-106677000D01*
X137785000Y-106678000D01*
X137778000Y-106679000D01*
X137772000Y-106680000D01*
X137765000Y-106680000D01*
X137565000Y-106680000D01*
X137558000Y-106680000D01*
X137552000Y-106679000D01*
X137545000Y-106678000D01*
X137539000Y-106677000D01*
X137533000Y-106676000D01*
X137526000Y-106674000D01*
X137520000Y-106672000D01*
X137514000Y-106669000D01*
X137508000Y-106666000D01*
X137502000Y-106663000D01*
X137497000Y-106660000D01*
X137492000Y-106656000D01*
X137486000Y-106652000D01*
X137481000Y-106648000D01*
X137477000Y-106643000D01*
X137472000Y-106639000D01*
X137468000Y-106634000D01*
X137464000Y-106628000D01*
X137460000Y-106623000D01*
X137457000Y-106618000D01*
X137454000Y-106612000D01*
X137451000Y-106606000D01*
X137448000Y-106600000D01*
X137446000Y-106594000D01*
X137444000Y-106587000D01*
X137443000Y-106581000D01*
X137442000Y-106575000D01*
X137441000Y-106568000D01*
X137440000Y-106562000D01*
X137440000Y-106555000D01*
X137440000Y-106115000D01*
X137440000Y-106108000D01*
X137441000Y-106102000D01*
X137442000Y-106095000D01*
X137443000Y-106089000D01*
X137444000Y-106083000D01*
X137446000Y-106076000D01*
X137448000Y-106070000D01*
X137451000Y-106064000D01*
X137454000Y-106058000D01*
X137457000Y-106052000D01*
X137460000Y-106047000D01*
X137464000Y-106042000D01*
X137468000Y-106036000D01*
X137472000Y-106031000D01*
X137477000Y-106027000D01*
X137481000Y-106022000D01*
X137486000Y-106018000D01*
X137492000Y-106014000D01*
X137497000Y-106010000D01*
X137503000Y-106007000D01*
X137508000Y-106004000D01*
X137514000Y-106001000D01*
X137520000Y-105998000D01*
X137526000Y-105996000D01*
X137533000Y-105994000D01*
X137539000Y-105993000D01*
X137545000Y-105992000D01*
X137552000Y-105991000D01*
X137558000Y-105990000D01*
X137565000Y-105990000D01*
X137765000Y-105990000D01*
X137772000Y-105990000D01*
X137778000Y-105991000D01*
G36*
X137778000Y-105991000D02*
G01*
X137785000Y-105992000D01*
X137791000Y-105993000D01*
X137797000Y-105994000D01*
X137804000Y-105996000D01*
X137810000Y-105998000D01*
X137816000Y-106001000D01*
X137822000Y-106004000D01*
X137827000Y-106007000D01*
X137833000Y-106010000D01*
X137838000Y-106014000D01*
X137844000Y-106018000D01*
X137849000Y-106022000D01*
X137853000Y-106027000D01*
X137858000Y-106031000D01*
X137862000Y-106036000D01*
X137866000Y-106042000D01*
X137870000Y-106047000D01*
X137873000Y-106052000D01*
X137876000Y-106058000D01*
X137879000Y-106064000D01*
X137882000Y-106070000D01*
X137884000Y-106076000D01*
X137886000Y-106083000D01*
X137887000Y-106089000D01*
X137888000Y-106095000D01*
X137889000Y-106102000D01*
X137890000Y-106108000D01*
X137890000Y-106115000D01*
X137890000Y-106555000D01*
X137890000Y-106562000D01*
X137889000Y-106568000D01*
X137888000Y-106575000D01*
X137887000Y-106581000D01*
X137886000Y-106587000D01*
X137884000Y-106594000D01*
X137882000Y-106600000D01*
X137879000Y-106606000D01*
X137876000Y-106612000D01*
X137873000Y-106618000D01*
X137870000Y-106623000D01*
X137866000Y-106628000D01*
X137862000Y-106634000D01*
X137858000Y-106639000D01*
X137853000Y-106643000D01*
X137849000Y-106648000D01*
X137844000Y-106652000D01*
X137838000Y-106656000D01*
X137833000Y-106660000D01*
X137827000Y-106663000D01*
X137822000Y-106666000D01*
X137816000Y-106669000D01*
X137810000Y-106672000D01*
X137804000Y-106674000D01*
X137797000Y-106676000D01*
X137791000Y-106677000D01*
X137785000Y-106678000D01*
X137778000Y-106679000D01*
X137772000Y-106680000D01*
X137765000Y-106680000D01*
X137565000Y-106680000D01*
X137558000Y-106680000D01*
X137552000Y-106679000D01*
X137545000Y-106678000D01*
X137539000Y-106677000D01*
X137533000Y-106676000D01*
X137526000Y-106674000D01*
X137520000Y-106672000D01*
X137514000Y-106669000D01*
X137508000Y-106666000D01*
X137502000Y-106663000D01*
X137497000Y-106660000D01*
X137492000Y-106656000D01*
X137486000Y-106652000D01*
X137481000Y-106648000D01*
X137477000Y-106643000D01*
X137472000Y-106639000D01*
X137468000Y-106634000D01*
X137464000Y-106628000D01*
X137460000Y-106623000D01*
X137457000Y-106618000D01*
X137454000Y-106612000D01*
X137451000Y-106606000D01*
X137448000Y-106600000D01*
X137446000Y-106594000D01*
X137444000Y-106587000D01*
X137443000Y-106581000D01*
X137442000Y-106575000D01*
X137441000Y-106568000D01*
X137440000Y-106562000D01*
X137440000Y-106555000D01*
X137440000Y-106115000D01*
X137440000Y-106108000D01*
X137441000Y-106102000D01*
X137442000Y-106095000D01*
X137443000Y-106089000D01*
X137444000Y-106083000D01*
X137446000Y-106076000D01*
X137448000Y-106070000D01*
X137451000Y-106064000D01*
X137454000Y-106058000D01*
X137457000Y-106052000D01*
X137460000Y-106047000D01*
X137464000Y-106042000D01*
X137468000Y-106036000D01*
X137472000Y-106031000D01*
X137477000Y-106027000D01*
X137481000Y-106022000D01*
X137486000Y-106018000D01*
X137492000Y-106014000D01*
X137497000Y-106010000D01*
X137503000Y-106007000D01*
X137508000Y-106004000D01*
X137514000Y-106001000D01*
X137520000Y-105998000D01*
X137526000Y-105996000D01*
X137533000Y-105994000D01*
X137539000Y-105993000D01*
X137545000Y-105992000D01*
X137552000Y-105991000D01*
X137558000Y-105990000D01*
X137565000Y-105990000D01*
X137765000Y-105990000D01*
X137772000Y-105990000D01*
X137778000Y-105991000D01*
G37*
X137778000Y-107821000D02*
X137785000Y-107822000D01*
X137791000Y-107823000D01*
X137797000Y-107824000D01*
X137804000Y-107826000D01*
X137810000Y-107828000D01*
X137816000Y-107831000D01*
X137822000Y-107834000D01*
X137827000Y-107837000D01*
X137833000Y-107840000D01*
X137838000Y-107844000D01*
X137844000Y-107848000D01*
X137849000Y-107852000D01*
X137853000Y-107857000D01*
X137858000Y-107861000D01*
X137862000Y-107866000D01*
X137866000Y-107872000D01*
X137870000Y-107877000D01*
X137873000Y-107882000D01*
X137876000Y-107888000D01*
X137879000Y-107894000D01*
X137882000Y-107900000D01*
X137884000Y-107906000D01*
X137886000Y-107913000D01*
X137887000Y-107919000D01*
X137888000Y-107925000D01*
X137889000Y-107932000D01*
X137890000Y-107938000D01*
X137890000Y-107945000D01*
X137890000Y-108385000D01*
X137890000Y-108392000D01*
X137889000Y-108398000D01*
X137888000Y-108405000D01*
X137887000Y-108411000D01*
X137886000Y-108417000D01*
X137884000Y-108424000D01*
X137882000Y-108430000D01*
X137879000Y-108436000D01*
X137876000Y-108442000D01*
X137873000Y-108448000D01*
X137870000Y-108453000D01*
X137866000Y-108458000D01*
X137862000Y-108464000D01*
X137858000Y-108469000D01*
X137853000Y-108473000D01*
X137849000Y-108478000D01*
X137844000Y-108482000D01*
X137838000Y-108486000D01*
X137833000Y-108490000D01*
X137827000Y-108493000D01*
X137822000Y-108496000D01*
X137816000Y-108499000D01*
X137810000Y-108502000D01*
X137804000Y-108504000D01*
X137797000Y-108506000D01*
X137791000Y-108507000D01*
X137785000Y-108508000D01*
X137778000Y-108509000D01*
X137772000Y-108510000D01*
X137765000Y-108510000D01*
X137565000Y-108510000D01*
X137558000Y-108510000D01*
X137552000Y-108509000D01*
X137545000Y-108508000D01*
X137539000Y-108507000D01*
X137533000Y-108506000D01*
X137526000Y-108504000D01*
X137520000Y-108502000D01*
X137514000Y-108499000D01*
X137508000Y-108496000D01*
X137502000Y-108493000D01*
X137497000Y-108490000D01*
X137492000Y-108486000D01*
X137486000Y-108482000D01*
X137481000Y-108478000D01*
X137477000Y-108473000D01*
X137472000Y-108469000D01*
X137468000Y-108464000D01*
X137464000Y-108458000D01*
X137460000Y-108453000D01*
X137457000Y-108448000D01*
X137454000Y-108442000D01*
X137451000Y-108436000D01*
X137448000Y-108430000D01*
X137446000Y-108424000D01*
X137444000Y-108417000D01*
X137443000Y-108411000D01*
X137442000Y-108405000D01*
X137441000Y-108398000D01*
X137440000Y-108392000D01*
X137440000Y-108385000D01*
X137440000Y-107945000D01*
X137440000Y-107938000D01*
X137441000Y-107932000D01*
X137442000Y-107925000D01*
X137443000Y-107919000D01*
X137444000Y-107913000D01*
X137446000Y-107906000D01*
X137448000Y-107900000D01*
X137451000Y-107894000D01*
X137454000Y-107888000D01*
X137457000Y-107882000D01*
X137460000Y-107877000D01*
X137464000Y-107872000D01*
X137468000Y-107866000D01*
X137472000Y-107861000D01*
X137477000Y-107857000D01*
X137481000Y-107852000D01*
X137486000Y-107848000D01*
X137492000Y-107844000D01*
X137497000Y-107840000D01*
X137503000Y-107837000D01*
X137508000Y-107834000D01*
X137514000Y-107831000D01*
X137520000Y-107828000D01*
X137526000Y-107826000D01*
X137533000Y-107824000D01*
X137539000Y-107823000D01*
X137545000Y-107822000D01*
X137552000Y-107821000D01*
X137558000Y-107820000D01*
X137565000Y-107820000D01*
X137765000Y-107820000D01*
X137772000Y-107820000D01*
X137778000Y-107821000D01*
G36*
X137778000Y-107821000D02*
G01*
X137785000Y-107822000D01*
X137791000Y-107823000D01*
X137797000Y-107824000D01*
X137804000Y-107826000D01*
X137810000Y-107828000D01*
X137816000Y-107831000D01*
X137822000Y-107834000D01*
X137827000Y-107837000D01*
X137833000Y-107840000D01*
X137838000Y-107844000D01*
X137844000Y-107848000D01*
X137849000Y-107852000D01*
X137853000Y-107857000D01*
X137858000Y-107861000D01*
X137862000Y-107866000D01*
X137866000Y-107872000D01*
X137870000Y-107877000D01*
X137873000Y-107882000D01*
X137876000Y-107888000D01*
X137879000Y-107894000D01*
X137882000Y-107900000D01*
X137884000Y-107906000D01*
X137886000Y-107913000D01*
X137887000Y-107919000D01*
X137888000Y-107925000D01*
X137889000Y-107932000D01*
X137890000Y-107938000D01*
X137890000Y-107945000D01*
X137890000Y-108385000D01*
X137890000Y-108392000D01*
X137889000Y-108398000D01*
X137888000Y-108405000D01*
X137887000Y-108411000D01*
X137886000Y-108417000D01*
X137884000Y-108424000D01*
X137882000Y-108430000D01*
X137879000Y-108436000D01*
X137876000Y-108442000D01*
X137873000Y-108448000D01*
X137870000Y-108453000D01*
X137866000Y-108458000D01*
X137862000Y-108464000D01*
X137858000Y-108469000D01*
X137853000Y-108473000D01*
X137849000Y-108478000D01*
X137844000Y-108482000D01*
X137838000Y-108486000D01*
X137833000Y-108490000D01*
X137827000Y-108493000D01*
X137822000Y-108496000D01*
X137816000Y-108499000D01*
X137810000Y-108502000D01*
X137804000Y-108504000D01*
X137797000Y-108506000D01*
X137791000Y-108507000D01*
X137785000Y-108508000D01*
X137778000Y-108509000D01*
X137772000Y-108510000D01*
X137765000Y-108510000D01*
X137565000Y-108510000D01*
X137558000Y-108510000D01*
X137552000Y-108509000D01*
X137545000Y-108508000D01*
X137539000Y-108507000D01*
X137533000Y-108506000D01*
X137526000Y-108504000D01*
X137520000Y-108502000D01*
X137514000Y-108499000D01*
X137508000Y-108496000D01*
X137502000Y-108493000D01*
X137497000Y-108490000D01*
X137492000Y-108486000D01*
X137486000Y-108482000D01*
X137481000Y-108478000D01*
X137477000Y-108473000D01*
X137472000Y-108469000D01*
X137468000Y-108464000D01*
X137464000Y-108458000D01*
X137460000Y-108453000D01*
X137457000Y-108448000D01*
X137454000Y-108442000D01*
X137451000Y-108436000D01*
X137448000Y-108430000D01*
X137446000Y-108424000D01*
X137444000Y-108417000D01*
X137443000Y-108411000D01*
X137442000Y-108405000D01*
X137441000Y-108398000D01*
X137440000Y-108392000D01*
X137440000Y-108385000D01*
X137440000Y-107945000D01*
X137440000Y-107938000D01*
X137441000Y-107932000D01*
X137442000Y-107925000D01*
X137443000Y-107919000D01*
X137444000Y-107913000D01*
X137446000Y-107906000D01*
X137448000Y-107900000D01*
X137451000Y-107894000D01*
X137454000Y-107888000D01*
X137457000Y-107882000D01*
X137460000Y-107877000D01*
X137464000Y-107872000D01*
X137468000Y-107866000D01*
X137472000Y-107861000D01*
X137477000Y-107857000D01*
X137481000Y-107852000D01*
X137486000Y-107848000D01*
X137492000Y-107844000D01*
X137497000Y-107840000D01*
X137503000Y-107837000D01*
X137508000Y-107834000D01*
X137514000Y-107831000D01*
X137520000Y-107828000D01*
X137526000Y-107826000D01*
X137533000Y-107824000D01*
X137539000Y-107823000D01*
X137545000Y-107822000D01*
X137552000Y-107821000D01*
X137558000Y-107820000D01*
X137565000Y-107820000D01*
X137765000Y-107820000D01*
X137772000Y-107820000D01*
X137778000Y-107821000D01*
G37*
X138278000Y-105991000D02*
X138285000Y-105992000D01*
X138291000Y-105993000D01*
X138297000Y-105994000D01*
X138304000Y-105996000D01*
X138310000Y-105998000D01*
X138316000Y-106001000D01*
X138322000Y-106004000D01*
X138328000Y-106007000D01*
X138333000Y-106010000D01*
X138338000Y-106014000D01*
X138344000Y-106018000D01*
X138349000Y-106022000D01*
X138353000Y-106027000D01*
X138358000Y-106031000D01*
X138362000Y-106036000D01*
X138366000Y-106042000D01*
X138370000Y-106047000D01*
X138373000Y-106052000D01*
X138376000Y-106058000D01*
X138379000Y-106064000D01*
X138382000Y-106070000D01*
X138384000Y-106076000D01*
X138386000Y-106083000D01*
X138387000Y-106089000D01*
X138388000Y-106095000D01*
X138389000Y-106102000D01*
X138390000Y-106108000D01*
X138390000Y-106115000D01*
X138390000Y-106555000D01*
X138390000Y-106562000D01*
X138389000Y-106568000D01*
X138388000Y-106575000D01*
X138387000Y-106581000D01*
X138386000Y-106587000D01*
X138384000Y-106594000D01*
X138382000Y-106600000D01*
X138379000Y-106606000D01*
X138376000Y-106612000D01*
X138373000Y-106618000D01*
X138370000Y-106623000D01*
X138366000Y-106628000D01*
X138362000Y-106634000D01*
X138358000Y-106639000D01*
X138353000Y-106643000D01*
X138349000Y-106648000D01*
X138344000Y-106652000D01*
X138338000Y-106656000D01*
X138333000Y-106660000D01*
X138328000Y-106663000D01*
X138322000Y-106666000D01*
X138316000Y-106669000D01*
X138310000Y-106672000D01*
X138304000Y-106674000D01*
X138297000Y-106676000D01*
X138291000Y-106677000D01*
X138285000Y-106678000D01*
X138278000Y-106679000D01*
X138272000Y-106680000D01*
X138265000Y-106680000D01*
X138065000Y-106680000D01*
X138058000Y-106680000D01*
X138052000Y-106679000D01*
X138045000Y-106678000D01*
X138039000Y-106677000D01*
X138033000Y-106676000D01*
X138026000Y-106674000D01*
X138020000Y-106672000D01*
X138014000Y-106669000D01*
X138008000Y-106666000D01*
X138002000Y-106663000D01*
X137997000Y-106660000D01*
X137992000Y-106656000D01*
X137986000Y-106652000D01*
X137981000Y-106648000D01*
X137977000Y-106643000D01*
X137972000Y-106639000D01*
X137968000Y-106634000D01*
X137964000Y-106628000D01*
X137960000Y-106623000D01*
X137957000Y-106618000D01*
X137954000Y-106612000D01*
X137951000Y-106606000D01*
X137948000Y-106600000D01*
X137946000Y-106594000D01*
X137944000Y-106587000D01*
X137943000Y-106581000D01*
X137942000Y-106575000D01*
X137941000Y-106568000D01*
X137940000Y-106562000D01*
X137940000Y-106555000D01*
X137940000Y-106115000D01*
X137940000Y-106108000D01*
X137941000Y-106102000D01*
X137942000Y-106095000D01*
X137943000Y-106089000D01*
X137944000Y-106083000D01*
X137946000Y-106076000D01*
X137948000Y-106070000D01*
X137951000Y-106064000D01*
X137954000Y-106058000D01*
X137957000Y-106052000D01*
X137960000Y-106047000D01*
X137964000Y-106042000D01*
X137968000Y-106036000D01*
X137972000Y-106031000D01*
X137977000Y-106027000D01*
X137981000Y-106022000D01*
X137986000Y-106018000D01*
X137992000Y-106014000D01*
X137997000Y-106010000D01*
X138003000Y-106007000D01*
X138008000Y-106004000D01*
X138014000Y-106001000D01*
X138020000Y-105998000D01*
X138026000Y-105996000D01*
X138033000Y-105994000D01*
X138039000Y-105993000D01*
X138045000Y-105992000D01*
X138052000Y-105991000D01*
X138058000Y-105990000D01*
X138065000Y-105990000D01*
X138265000Y-105990000D01*
X138272000Y-105990000D01*
X138278000Y-105991000D01*
G36*
X138278000Y-105991000D02*
G01*
X138285000Y-105992000D01*
X138291000Y-105993000D01*
X138297000Y-105994000D01*
X138304000Y-105996000D01*
X138310000Y-105998000D01*
X138316000Y-106001000D01*
X138322000Y-106004000D01*
X138328000Y-106007000D01*
X138333000Y-106010000D01*
X138338000Y-106014000D01*
X138344000Y-106018000D01*
X138349000Y-106022000D01*
X138353000Y-106027000D01*
X138358000Y-106031000D01*
X138362000Y-106036000D01*
X138366000Y-106042000D01*
X138370000Y-106047000D01*
X138373000Y-106052000D01*
X138376000Y-106058000D01*
X138379000Y-106064000D01*
X138382000Y-106070000D01*
X138384000Y-106076000D01*
X138386000Y-106083000D01*
X138387000Y-106089000D01*
X138388000Y-106095000D01*
X138389000Y-106102000D01*
X138390000Y-106108000D01*
X138390000Y-106115000D01*
X138390000Y-106555000D01*
X138390000Y-106562000D01*
X138389000Y-106568000D01*
X138388000Y-106575000D01*
X138387000Y-106581000D01*
X138386000Y-106587000D01*
X138384000Y-106594000D01*
X138382000Y-106600000D01*
X138379000Y-106606000D01*
X138376000Y-106612000D01*
X138373000Y-106618000D01*
X138370000Y-106623000D01*
X138366000Y-106628000D01*
X138362000Y-106634000D01*
X138358000Y-106639000D01*
X138353000Y-106643000D01*
X138349000Y-106648000D01*
X138344000Y-106652000D01*
X138338000Y-106656000D01*
X138333000Y-106660000D01*
X138328000Y-106663000D01*
X138322000Y-106666000D01*
X138316000Y-106669000D01*
X138310000Y-106672000D01*
X138304000Y-106674000D01*
X138297000Y-106676000D01*
X138291000Y-106677000D01*
X138285000Y-106678000D01*
X138278000Y-106679000D01*
X138272000Y-106680000D01*
X138265000Y-106680000D01*
X138065000Y-106680000D01*
X138058000Y-106680000D01*
X138052000Y-106679000D01*
X138045000Y-106678000D01*
X138039000Y-106677000D01*
X138033000Y-106676000D01*
X138026000Y-106674000D01*
X138020000Y-106672000D01*
X138014000Y-106669000D01*
X138008000Y-106666000D01*
X138002000Y-106663000D01*
X137997000Y-106660000D01*
X137992000Y-106656000D01*
X137986000Y-106652000D01*
X137981000Y-106648000D01*
X137977000Y-106643000D01*
X137972000Y-106639000D01*
X137968000Y-106634000D01*
X137964000Y-106628000D01*
X137960000Y-106623000D01*
X137957000Y-106618000D01*
X137954000Y-106612000D01*
X137951000Y-106606000D01*
X137948000Y-106600000D01*
X137946000Y-106594000D01*
X137944000Y-106587000D01*
X137943000Y-106581000D01*
X137942000Y-106575000D01*
X137941000Y-106568000D01*
X137940000Y-106562000D01*
X137940000Y-106555000D01*
X137940000Y-106115000D01*
X137940000Y-106108000D01*
X137941000Y-106102000D01*
X137942000Y-106095000D01*
X137943000Y-106089000D01*
X137944000Y-106083000D01*
X137946000Y-106076000D01*
X137948000Y-106070000D01*
X137951000Y-106064000D01*
X137954000Y-106058000D01*
X137957000Y-106052000D01*
X137960000Y-106047000D01*
X137964000Y-106042000D01*
X137968000Y-106036000D01*
X137972000Y-106031000D01*
X137977000Y-106027000D01*
X137981000Y-106022000D01*
X137986000Y-106018000D01*
X137992000Y-106014000D01*
X137997000Y-106010000D01*
X138003000Y-106007000D01*
X138008000Y-106004000D01*
X138014000Y-106001000D01*
X138020000Y-105998000D01*
X138026000Y-105996000D01*
X138033000Y-105994000D01*
X138039000Y-105993000D01*
X138045000Y-105992000D01*
X138052000Y-105991000D01*
X138058000Y-105990000D01*
X138065000Y-105990000D01*
X138265000Y-105990000D01*
X138272000Y-105990000D01*
X138278000Y-105991000D01*
G37*
X138278000Y-107821000D02*
X138285000Y-107822000D01*
X138291000Y-107823000D01*
X138297000Y-107824000D01*
X138304000Y-107826000D01*
X138310000Y-107828000D01*
X138316000Y-107831000D01*
X138322000Y-107834000D01*
X138328000Y-107837000D01*
X138333000Y-107840000D01*
X138338000Y-107844000D01*
X138344000Y-107848000D01*
X138349000Y-107852000D01*
X138353000Y-107857000D01*
X138358000Y-107861000D01*
X138362000Y-107866000D01*
X138366000Y-107872000D01*
X138370000Y-107877000D01*
X138373000Y-107882000D01*
X138376000Y-107888000D01*
X138379000Y-107894000D01*
X138382000Y-107900000D01*
X138384000Y-107906000D01*
X138386000Y-107913000D01*
X138387000Y-107919000D01*
X138388000Y-107925000D01*
X138389000Y-107932000D01*
X138390000Y-107938000D01*
X138390000Y-107945000D01*
X138390000Y-108385000D01*
X138390000Y-108392000D01*
X138389000Y-108398000D01*
X138388000Y-108405000D01*
X138387000Y-108411000D01*
X138386000Y-108417000D01*
X138384000Y-108424000D01*
X138382000Y-108430000D01*
X138379000Y-108436000D01*
X138376000Y-108442000D01*
X138373000Y-108448000D01*
X138370000Y-108453000D01*
X138366000Y-108458000D01*
X138362000Y-108464000D01*
X138358000Y-108469000D01*
X138353000Y-108473000D01*
X138349000Y-108478000D01*
X138344000Y-108482000D01*
X138338000Y-108486000D01*
X138333000Y-108490000D01*
X138328000Y-108493000D01*
X138322000Y-108496000D01*
X138316000Y-108499000D01*
X138310000Y-108502000D01*
X138304000Y-108504000D01*
X138297000Y-108506000D01*
X138291000Y-108507000D01*
X138285000Y-108508000D01*
X138278000Y-108509000D01*
X138272000Y-108510000D01*
X138265000Y-108510000D01*
X138065000Y-108510000D01*
X138058000Y-108510000D01*
X138052000Y-108509000D01*
X138045000Y-108508000D01*
X138039000Y-108507000D01*
X138033000Y-108506000D01*
X138026000Y-108504000D01*
X138020000Y-108502000D01*
X138014000Y-108499000D01*
X138008000Y-108496000D01*
X138002000Y-108493000D01*
X137997000Y-108490000D01*
X137992000Y-108486000D01*
X137986000Y-108482000D01*
X137981000Y-108478000D01*
X137977000Y-108473000D01*
X137972000Y-108469000D01*
X137968000Y-108464000D01*
X137964000Y-108458000D01*
X137960000Y-108453000D01*
X137957000Y-108448000D01*
X137954000Y-108442000D01*
X137951000Y-108436000D01*
X137948000Y-108430000D01*
X137946000Y-108424000D01*
X137944000Y-108417000D01*
X137943000Y-108411000D01*
X137942000Y-108405000D01*
X137941000Y-108398000D01*
X137940000Y-108392000D01*
X137940000Y-108385000D01*
X137940000Y-107945000D01*
X137940000Y-107938000D01*
X137941000Y-107932000D01*
X137942000Y-107925000D01*
X137943000Y-107919000D01*
X137944000Y-107913000D01*
X137946000Y-107906000D01*
X137948000Y-107900000D01*
X137951000Y-107894000D01*
X137954000Y-107888000D01*
X137957000Y-107882000D01*
X137960000Y-107877000D01*
X137964000Y-107872000D01*
X137968000Y-107866000D01*
X137972000Y-107861000D01*
X137977000Y-107857000D01*
X137981000Y-107852000D01*
X137986000Y-107848000D01*
X137992000Y-107844000D01*
X137997000Y-107840000D01*
X138003000Y-107837000D01*
X138008000Y-107834000D01*
X138014000Y-107831000D01*
X138020000Y-107828000D01*
X138026000Y-107826000D01*
X138033000Y-107824000D01*
X138039000Y-107823000D01*
X138045000Y-107822000D01*
X138052000Y-107821000D01*
X138058000Y-107820000D01*
X138065000Y-107820000D01*
X138265000Y-107820000D01*
X138272000Y-107820000D01*
X138278000Y-107821000D01*
G36*
X138278000Y-107821000D02*
G01*
X138285000Y-107822000D01*
X138291000Y-107823000D01*
X138297000Y-107824000D01*
X138304000Y-107826000D01*
X138310000Y-107828000D01*
X138316000Y-107831000D01*
X138322000Y-107834000D01*
X138328000Y-107837000D01*
X138333000Y-107840000D01*
X138338000Y-107844000D01*
X138344000Y-107848000D01*
X138349000Y-107852000D01*
X138353000Y-107857000D01*
X138358000Y-107861000D01*
X138362000Y-107866000D01*
X138366000Y-107872000D01*
X138370000Y-107877000D01*
X138373000Y-107882000D01*
X138376000Y-107888000D01*
X138379000Y-107894000D01*
X138382000Y-107900000D01*
X138384000Y-107906000D01*
X138386000Y-107913000D01*
X138387000Y-107919000D01*
X138388000Y-107925000D01*
X138389000Y-107932000D01*
X138390000Y-107938000D01*
X138390000Y-107945000D01*
X138390000Y-108385000D01*
X138390000Y-108392000D01*
X138389000Y-108398000D01*
X138388000Y-108405000D01*
X138387000Y-108411000D01*
X138386000Y-108417000D01*
X138384000Y-108424000D01*
X138382000Y-108430000D01*
X138379000Y-108436000D01*
X138376000Y-108442000D01*
X138373000Y-108448000D01*
X138370000Y-108453000D01*
X138366000Y-108458000D01*
X138362000Y-108464000D01*
X138358000Y-108469000D01*
X138353000Y-108473000D01*
X138349000Y-108478000D01*
X138344000Y-108482000D01*
X138338000Y-108486000D01*
X138333000Y-108490000D01*
X138328000Y-108493000D01*
X138322000Y-108496000D01*
X138316000Y-108499000D01*
X138310000Y-108502000D01*
X138304000Y-108504000D01*
X138297000Y-108506000D01*
X138291000Y-108507000D01*
X138285000Y-108508000D01*
X138278000Y-108509000D01*
X138272000Y-108510000D01*
X138265000Y-108510000D01*
X138065000Y-108510000D01*
X138058000Y-108510000D01*
X138052000Y-108509000D01*
X138045000Y-108508000D01*
X138039000Y-108507000D01*
X138033000Y-108506000D01*
X138026000Y-108504000D01*
X138020000Y-108502000D01*
X138014000Y-108499000D01*
X138008000Y-108496000D01*
X138002000Y-108493000D01*
X137997000Y-108490000D01*
X137992000Y-108486000D01*
X137986000Y-108482000D01*
X137981000Y-108478000D01*
X137977000Y-108473000D01*
X137972000Y-108469000D01*
X137968000Y-108464000D01*
X137964000Y-108458000D01*
X137960000Y-108453000D01*
X137957000Y-108448000D01*
X137954000Y-108442000D01*
X137951000Y-108436000D01*
X137948000Y-108430000D01*
X137946000Y-108424000D01*
X137944000Y-108417000D01*
X137943000Y-108411000D01*
X137942000Y-108405000D01*
X137941000Y-108398000D01*
X137940000Y-108392000D01*
X137940000Y-108385000D01*
X137940000Y-107945000D01*
X137940000Y-107938000D01*
X137941000Y-107932000D01*
X137942000Y-107925000D01*
X137943000Y-107919000D01*
X137944000Y-107913000D01*
X137946000Y-107906000D01*
X137948000Y-107900000D01*
X137951000Y-107894000D01*
X137954000Y-107888000D01*
X137957000Y-107882000D01*
X137960000Y-107877000D01*
X137964000Y-107872000D01*
X137968000Y-107866000D01*
X137972000Y-107861000D01*
X137977000Y-107857000D01*
X137981000Y-107852000D01*
X137986000Y-107848000D01*
X137992000Y-107844000D01*
X137997000Y-107840000D01*
X138003000Y-107837000D01*
X138008000Y-107834000D01*
X138014000Y-107831000D01*
X138020000Y-107828000D01*
X138026000Y-107826000D01*
X138033000Y-107824000D01*
X138039000Y-107823000D01*
X138045000Y-107822000D01*
X138052000Y-107821000D01*
X138058000Y-107820000D01*
X138065000Y-107820000D01*
X138265000Y-107820000D01*
X138272000Y-107820000D01*
X138278000Y-107821000D01*
G37*
X138778000Y-105991000D02*
X138785000Y-105992000D01*
X138791000Y-105993000D01*
X138797000Y-105994000D01*
X138804000Y-105996000D01*
X138810000Y-105998000D01*
X138816000Y-106001000D01*
X138822000Y-106004000D01*
X138827000Y-106007000D01*
X138833000Y-106010000D01*
X138838000Y-106014000D01*
X138844000Y-106018000D01*
X138849000Y-106022000D01*
X138853000Y-106027000D01*
X138858000Y-106031000D01*
X138862000Y-106036000D01*
X138866000Y-106042000D01*
X138870000Y-106047000D01*
X138873000Y-106052000D01*
X138876000Y-106058000D01*
X138879000Y-106064000D01*
X138882000Y-106070000D01*
X138884000Y-106076000D01*
X138886000Y-106083000D01*
X138887000Y-106089000D01*
X138888000Y-106095000D01*
X138889000Y-106102000D01*
X138890000Y-106108000D01*
X138890000Y-106115000D01*
X138890000Y-106555000D01*
X138890000Y-106562000D01*
X138889000Y-106568000D01*
X138888000Y-106575000D01*
X138887000Y-106581000D01*
X138886000Y-106587000D01*
X138884000Y-106594000D01*
X138882000Y-106600000D01*
X138879000Y-106606000D01*
X138876000Y-106612000D01*
X138873000Y-106618000D01*
X138870000Y-106623000D01*
X138866000Y-106628000D01*
X138862000Y-106634000D01*
X138858000Y-106639000D01*
X138853000Y-106643000D01*
X138849000Y-106648000D01*
X138844000Y-106652000D01*
X138838000Y-106656000D01*
X138833000Y-106660000D01*
X138827000Y-106663000D01*
X138822000Y-106666000D01*
X138816000Y-106669000D01*
X138810000Y-106672000D01*
X138804000Y-106674000D01*
X138797000Y-106676000D01*
X138791000Y-106677000D01*
X138785000Y-106678000D01*
X138778000Y-106679000D01*
X138772000Y-106680000D01*
X138765000Y-106680000D01*
X138565000Y-106680000D01*
X138558000Y-106680000D01*
X138552000Y-106679000D01*
X138545000Y-106678000D01*
X138539000Y-106677000D01*
X138533000Y-106676000D01*
X138526000Y-106674000D01*
X138520000Y-106672000D01*
X138514000Y-106669000D01*
X138508000Y-106666000D01*
X138502000Y-106663000D01*
X138497000Y-106660000D01*
X138492000Y-106656000D01*
X138486000Y-106652000D01*
X138481000Y-106648000D01*
X138477000Y-106643000D01*
X138472000Y-106639000D01*
X138468000Y-106634000D01*
X138464000Y-106628000D01*
X138460000Y-106623000D01*
X138457000Y-106618000D01*
X138454000Y-106612000D01*
X138451000Y-106606000D01*
X138448000Y-106600000D01*
X138446000Y-106594000D01*
X138444000Y-106587000D01*
X138443000Y-106581000D01*
X138442000Y-106575000D01*
X138441000Y-106568000D01*
X138440000Y-106562000D01*
X138440000Y-106555000D01*
X138440000Y-106115000D01*
X138440000Y-106108000D01*
X138441000Y-106102000D01*
X138442000Y-106095000D01*
X138443000Y-106089000D01*
X138444000Y-106083000D01*
X138446000Y-106076000D01*
X138448000Y-106070000D01*
X138451000Y-106064000D01*
X138454000Y-106058000D01*
X138457000Y-106052000D01*
X138460000Y-106047000D01*
X138464000Y-106042000D01*
X138468000Y-106036000D01*
X138472000Y-106031000D01*
X138477000Y-106027000D01*
X138481000Y-106022000D01*
X138486000Y-106018000D01*
X138492000Y-106014000D01*
X138497000Y-106010000D01*
X138503000Y-106007000D01*
X138508000Y-106004000D01*
X138514000Y-106001000D01*
X138520000Y-105998000D01*
X138526000Y-105996000D01*
X138533000Y-105994000D01*
X138539000Y-105993000D01*
X138545000Y-105992000D01*
X138552000Y-105991000D01*
X138558000Y-105990000D01*
X138565000Y-105990000D01*
X138765000Y-105990000D01*
X138772000Y-105990000D01*
X138778000Y-105991000D01*
G36*
X138778000Y-105991000D02*
G01*
X138785000Y-105992000D01*
X138791000Y-105993000D01*
X138797000Y-105994000D01*
X138804000Y-105996000D01*
X138810000Y-105998000D01*
X138816000Y-106001000D01*
X138822000Y-106004000D01*
X138827000Y-106007000D01*
X138833000Y-106010000D01*
X138838000Y-106014000D01*
X138844000Y-106018000D01*
X138849000Y-106022000D01*
X138853000Y-106027000D01*
X138858000Y-106031000D01*
X138862000Y-106036000D01*
X138866000Y-106042000D01*
X138870000Y-106047000D01*
X138873000Y-106052000D01*
X138876000Y-106058000D01*
X138879000Y-106064000D01*
X138882000Y-106070000D01*
X138884000Y-106076000D01*
X138886000Y-106083000D01*
X138887000Y-106089000D01*
X138888000Y-106095000D01*
X138889000Y-106102000D01*
X138890000Y-106108000D01*
X138890000Y-106115000D01*
X138890000Y-106555000D01*
X138890000Y-106562000D01*
X138889000Y-106568000D01*
X138888000Y-106575000D01*
X138887000Y-106581000D01*
X138886000Y-106587000D01*
X138884000Y-106594000D01*
X138882000Y-106600000D01*
X138879000Y-106606000D01*
X138876000Y-106612000D01*
X138873000Y-106618000D01*
X138870000Y-106623000D01*
X138866000Y-106628000D01*
X138862000Y-106634000D01*
X138858000Y-106639000D01*
X138853000Y-106643000D01*
X138849000Y-106648000D01*
X138844000Y-106652000D01*
X138838000Y-106656000D01*
X138833000Y-106660000D01*
X138827000Y-106663000D01*
X138822000Y-106666000D01*
X138816000Y-106669000D01*
X138810000Y-106672000D01*
X138804000Y-106674000D01*
X138797000Y-106676000D01*
X138791000Y-106677000D01*
X138785000Y-106678000D01*
X138778000Y-106679000D01*
X138772000Y-106680000D01*
X138765000Y-106680000D01*
X138565000Y-106680000D01*
X138558000Y-106680000D01*
X138552000Y-106679000D01*
X138545000Y-106678000D01*
X138539000Y-106677000D01*
X138533000Y-106676000D01*
X138526000Y-106674000D01*
X138520000Y-106672000D01*
X138514000Y-106669000D01*
X138508000Y-106666000D01*
X138502000Y-106663000D01*
X138497000Y-106660000D01*
X138492000Y-106656000D01*
X138486000Y-106652000D01*
X138481000Y-106648000D01*
X138477000Y-106643000D01*
X138472000Y-106639000D01*
X138468000Y-106634000D01*
X138464000Y-106628000D01*
X138460000Y-106623000D01*
X138457000Y-106618000D01*
X138454000Y-106612000D01*
X138451000Y-106606000D01*
X138448000Y-106600000D01*
X138446000Y-106594000D01*
X138444000Y-106587000D01*
X138443000Y-106581000D01*
X138442000Y-106575000D01*
X138441000Y-106568000D01*
X138440000Y-106562000D01*
X138440000Y-106555000D01*
X138440000Y-106115000D01*
X138440000Y-106108000D01*
X138441000Y-106102000D01*
X138442000Y-106095000D01*
X138443000Y-106089000D01*
X138444000Y-106083000D01*
X138446000Y-106076000D01*
X138448000Y-106070000D01*
X138451000Y-106064000D01*
X138454000Y-106058000D01*
X138457000Y-106052000D01*
X138460000Y-106047000D01*
X138464000Y-106042000D01*
X138468000Y-106036000D01*
X138472000Y-106031000D01*
X138477000Y-106027000D01*
X138481000Y-106022000D01*
X138486000Y-106018000D01*
X138492000Y-106014000D01*
X138497000Y-106010000D01*
X138503000Y-106007000D01*
X138508000Y-106004000D01*
X138514000Y-106001000D01*
X138520000Y-105998000D01*
X138526000Y-105996000D01*
X138533000Y-105994000D01*
X138539000Y-105993000D01*
X138545000Y-105992000D01*
X138552000Y-105991000D01*
X138558000Y-105990000D01*
X138565000Y-105990000D01*
X138765000Y-105990000D01*
X138772000Y-105990000D01*
X138778000Y-105991000D01*
G37*
X138778000Y-107821000D02*
X138785000Y-107822000D01*
X138791000Y-107823000D01*
X138797000Y-107824000D01*
X138804000Y-107826000D01*
X138810000Y-107828000D01*
X138816000Y-107831000D01*
X138822000Y-107834000D01*
X138827000Y-107837000D01*
X138833000Y-107840000D01*
X138838000Y-107844000D01*
X138844000Y-107848000D01*
X138849000Y-107852000D01*
X138853000Y-107857000D01*
X138858000Y-107861000D01*
X138862000Y-107866000D01*
X138866000Y-107872000D01*
X138870000Y-107877000D01*
X138873000Y-107882000D01*
X138876000Y-107888000D01*
X138879000Y-107894000D01*
X138882000Y-107900000D01*
X138884000Y-107906000D01*
X138886000Y-107913000D01*
X138887000Y-107919000D01*
X138888000Y-107925000D01*
X138889000Y-107932000D01*
X138890000Y-107938000D01*
X138890000Y-107945000D01*
X138890000Y-108385000D01*
X138890000Y-108392000D01*
X138889000Y-108398000D01*
X138888000Y-108405000D01*
X138887000Y-108411000D01*
X138886000Y-108417000D01*
X138884000Y-108424000D01*
X138882000Y-108430000D01*
X138879000Y-108436000D01*
X138876000Y-108442000D01*
X138873000Y-108448000D01*
X138870000Y-108453000D01*
X138866000Y-108458000D01*
X138862000Y-108464000D01*
X138858000Y-108469000D01*
X138853000Y-108473000D01*
X138849000Y-108478000D01*
X138844000Y-108482000D01*
X138838000Y-108486000D01*
X138833000Y-108490000D01*
X138827000Y-108493000D01*
X138822000Y-108496000D01*
X138816000Y-108499000D01*
X138810000Y-108502000D01*
X138804000Y-108504000D01*
X138797000Y-108506000D01*
X138791000Y-108507000D01*
X138785000Y-108508000D01*
X138778000Y-108509000D01*
X138772000Y-108510000D01*
X138765000Y-108510000D01*
X138565000Y-108510000D01*
X138558000Y-108510000D01*
X138552000Y-108509000D01*
X138545000Y-108508000D01*
X138539000Y-108507000D01*
X138533000Y-108506000D01*
X138526000Y-108504000D01*
X138520000Y-108502000D01*
X138514000Y-108499000D01*
X138508000Y-108496000D01*
X138502000Y-108493000D01*
X138497000Y-108490000D01*
X138492000Y-108486000D01*
X138486000Y-108482000D01*
X138481000Y-108478000D01*
X138477000Y-108473000D01*
X138472000Y-108469000D01*
X138468000Y-108464000D01*
X138464000Y-108458000D01*
X138460000Y-108453000D01*
X138457000Y-108448000D01*
X138454000Y-108442000D01*
X138451000Y-108436000D01*
X138448000Y-108430000D01*
X138446000Y-108424000D01*
X138444000Y-108417000D01*
X138443000Y-108411000D01*
X138442000Y-108405000D01*
X138441000Y-108398000D01*
X138440000Y-108392000D01*
X138440000Y-108385000D01*
X138440000Y-107945000D01*
X138440000Y-107938000D01*
X138441000Y-107932000D01*
X138442000Y-107925000D01*
X138443000Y-107919000D01*
X138444000Y-107913000D01*
X138446000Y-107906000D01*
X138448000Y-107900000D01*
X138451000Y-107894000D01*
X138454000Y-107888000D01*
X138457000Y-107882000D01*
X138460000Y-107877000D01*
X138464000Y-107872000D01*
X138468000Y-107866000D01*
X138472000Y-107861000D01*
X138477000Y-107857000D01*
X138481000Y-107852000D01*
X138486000Y-107848000D01*
X138492000Y-107844000D01*
X138497000Y-107840000D01*
X138503000Y-107837000D01*
X138508000Y-107834000D01*
X138514000Y-107831000D01*
X138520000Y-107828000D01*
X138526000Y-107826000D01*
X138533000Y-107824000D01*
X138539000Y-107823000D01*
X138545000Y-107822000D01*
X138552000Y-107821000D01*
X138558000Y-107820000D01*
X138565000Y-107820000D01*
X138765000Y-107820000D01*
X138772000Y-107820000D01*
X138778000Y-107821000D01*
G36*
X138778000Y-107821000D02*
G01*
X138785000Y-107822000D01*
X138791000Y-107823000D01*
X138797000Y-107824000D01*
X138804000Y-107826000D01*
X138810000Y-107828000D01*
X138816000Y-107831000D01*
X138822000Y-107834000D01*
X138827000Y-107837000D01*
X138833000Y-107840000D01*
X138838000Y-107844000D01*
X138844000Y-107848000D01*
X138849000Y-107852000D01*
X138853000Y-107857000D01*
X138858000Y-107861000D01*
X138862000Y-107866000D01*
X138866000Y-107872000D01*
X138870000Y-107877000D01*
X138873000Y-107882000D01*
X138876000Y-107888000D01*
X138879000Y-107894000D01*
X138882000Y-107900000D01*
X138884000Y-107906000D01*
X138886000Y-107913000D01*
X138887000Y-107919000D01*
X138888000Y-107925000D01*
X138889000Y-107932000D01*
X138890000Y-107938000D01*
X138890000Y-107945000D01*
X138890000Y-108385000D01*
X138890000Y-108392000D01*
X138889000Y-108398000D01*
X138888000Y-108405000D01*
X138887000Y-108411000D01*
X138886000Y-108417000D01*
X138884000Y-108424000D01*
X138882000Y-108430000D01*
X138879000Y-108436000D01*
X138876000Y-108442000D01*
X138873000Y-108448000D01*
X138870000Y-108453000D01*
X138866000Y-108458000D01*
X138862000Y-108464000D01*
X138858000Y-108469000D01*
X138853000Y-108473000D01*
X138849000Y-108478000D01*
X138844000Y-108482000D01*
X138838000Y-108486000D01*
X138833000Y-108490000D01*
X138827000Y-108493000D01*
X138822000Y-108496000D01*
X138816000Y-108499000D01*
X138810000Y-108502000D01*
X138804000Y-108504000D01*
X138797000Y-108506000D01*
X138791000Y-108507000D01*
X138785000Y-108508000D01*
X138778000Y-108509000D01*
X138772000Y-108510000D01*
X138765000Y-108510000D01*
X138565000Y-108510000D01*
X138558000Y-108510000D01*
X138552000Y-108509000D01*
X138545000Y-108508000D01*
X138539000Y-108507000D01*
X138533000Y-108506000D01*
X138526000Y-108504000D01*
X138520000Y-108502000D01*
X138514000Y-108499000D01*
X138508000Y-108496000D01*
X138502000Y-108493000D01*
X138497000Y-108490000D01*
X138492000Y-108486000D01*
X138486000Y-108482000D01*
X138481000Y-108478000D01*
X138477000Y-108473000D01*
X138472000Y-108469000D01*
X138468000Y-108464000D01*
X138464000Y-108458000D01*
X138460000Y-108453000D01*
X138457000Y-108448000D01*
X138454000Y-108442000D01*
X138451000Y-108436000D01*
X138448000Y-108430000D01*
X138446000Y-108424000D01*
X138444000Y-108417000D01*
X138443000Y-108411000D01*
X138442000Y-108405000D01*
X138441000Y-108398000D01*
X138440000Y-108392000D01*
X138440000Y-108385000D01*
X138440000Y-107945000D01*
X138440000Y-107938000D01*
X138441000Y-107932000D01*
X138442000Y-107925000D01*
X138443000Y-107919000D01*
X138444000Y-107913000D01*
X138446000Y-107906000D01*
X138448000Y-107900000D01*
X138451000Y-107894000D01*
X138454000Y-107888000D01*
X138457000Y-107882000D01*
X138460000Y-107877000D01*
X138464000Y-107872000D01*
X138468000Y-107866000D01*
X138472000Y-107861000D01*
X138477000Y-107857000D01*
X138481000Y-107852000D01*
X138486000Y-107848000D01*
X138492000Y-107844000D01*
X138497000Y-107840000D01*
X138503000Y-107837000D01*
X138508000Y-107834000D01*
X138514000Y-107831000D01*
X138520000Y-107828000D01*
X138526000Y-107826000D01*
X138533000Y-107824000D01*
X138539000Y-107823000D01*
X138545000Y-107822000D01*
X138552000Y-107821000D01*
X138558000Y-107820000D01*
X138565000Y-107820000D01*
X138765000Y-107820000D01*
X138772000Y-107820000D01*
X138778000Y-107821000D01*
G37*
X139563000Y-106276000D02*
X139570000Y-106277000D01*
X139576000Y-106278000D01*
X139582000Y-106279000D01*
X139589000Y-106281000D01*
X139595000Y-106283000D01*
X139601000Y-106286000D01*
X139607000Y-106289000D01*
X139613000Y-106292000D01*
X139618000Y-106295000D01*
X139623000Y-106299000D01*
X139629000Y-106303000D01*
X139634000Y-106307000D01*
X139638000Y-106312000D01*
X139643000Y-106316000D01*
X139647000Y-106321000D01*
X139651000Y-106327000D01*
X139655000Y-106332000D01*
X139658000Y-106338000D01*
X139661000Y-106343000D01*
X139664000Y-106349000D01*
X139667000Y-106355000D01*
X139669000Y-106361000D01*
X139671000Y-106368000D01*
X139672000Y-106374000D01*
X139673000Y-106380000D01*
X139674000Y-106387000D01*
X139675000Y-106393000D01*
X139675000Y-106400000D01*
X139675000Y-106600000D01*
X139675000Y-106607000D01*
X139674000Y-106613000D01*
X139673000Y-106620000D01*
X139672000Y-106626000D01*
X139671000Y-106632000D01*
X139669000Y-106639000D01*
X139667000Y-106645000D01*
X139664000Y-106651000D01*
X139661000Y-106657000D01*
X139658000Y-106662000D01*
X139655000Y-106668000D01*
X139651000Y-106673000D01*
X139647000Y-106679000D01*
X139643000Y-106684000D01*
X139638000Y-106688000D01*
X139634000Y-106693000D01*
X139629000Y-106697000D01*
X139623000Y-106701000D01*
X139618000Y-106705000D01*
X139613000Y-106708000D01*
X139607000Y-106711000D01*
X139601000Y-106714000D01*
X139595000Y-106717000D01*
X139589000Y-106719000D01*
X139582000Y-106721000D01*
X139576000Y-106722000D01*
X139570000Y-106723000D01*
X139563000Y-106724000D01*
X139557000Y-106725000D01*
X139550000Y-106725000D01*
X139110000Y-106725000D01*
X139103000Y-106725000D01*
X139097000Y-106724000D01*
X139090000Y-106723000D01*
X139084000Y-106722000D01*
X139078000Y-106721000D01*
X139071000Y-106719000D01*
X139065000Y-106717000D01*
X139059000Y-106714000D01*
X139053000Y-106711000D01*
X139047000Y-106708000D01*
X139042000Y-106705000D01*
X139037000Y-106701000D01*
X139031000Y-106697000D01*
X139026000Y-106693000D01*
X139022000Y-106688000D01*
X139017000Y-106684000D01*
X139013000Y-106679000D01*
X139009000Y-106673000D01*
X139005000Y-106668000D01*
X139002000Y-106662000D01*
X138999000Y-106657000D01*
X138996000Y-106651000D01*
X138993000Y-106645000D01*
X138991000Y-106639000D01*
X138989000Y-106632000D01*
X138988000Y-106626000D01*
X138987000Y-106620000D01*
X138986000Y-106613000D01*
X138985000Y-106607000D01*
X138985000Y-106600000D01*
X138985000Y-106400000D01*
X138985000Y-106393000D01*
X138986000Y-106387000D01*
X138987000Y-106380000D01*
X138988000Y-106374000D01*
X138989000Y-106368000D01*
X138991000Y-106361000D01*
X138993000Y-106355000D01*
X138996000Y-106349000D01*
X138999000Y-106343000D01*
X139002000Y-106338000D01*
X139005000Y-106332000D01*
X139009000Y-106327000D01*
X139013000Y-106321000D01*
X139017000Y-106316000D01*
X139022000Y-106312000D01*
X139026000Y-106307000D01*
X139031000Y-106303000D01*
X139037000Y-106299000D01*
X139042000Y-106295000D01*
X139047000Y-106292000D01*
X139053000Y-106289000D01*
X139059000Y-106286000D01*
X139065000Y-106283000D01*
X139071000Y-106281000D01*
X139078000Y-106279000D01*
X139084000Y-106278000D01*
X139090000Y-106277000D01*
X139097000Y-106276000D01*
X139103000Y-106275000D01*
X139110000Y-106275000D01*
X139550000Y-106275000D01*
X139557000Y-106275000D01*
X139563000Y-106276000D01*
G36*
X139563000Y-106276000D02*
G01*
X139570000Y-106277000D01*
X139576000Y-106278000D01*
X139582000Y-106279000D01*
X139589000Y-106281000D01*
X139595000Y-106283000D01*
X139601000Y-106286000D01*
X139607000Y-106289000D01*
X139613000Y-106292000D01*
X139618000Y-106295000D01*
X139623000Y-106299000D01*
X139629000Y-106303000D01*
X139634000Y-106307000D01*
X139638000Y-106312000D01*
X139643000Y-106316000D01*
X139647000Y-106321000D01*
X139651000Y-106327000D01*
X139655000Y-106332000D01*
X139658000Y-106338000D01*
X139661000Y-106343000D01*
X139664000Y-106349000D01*
X139667000Y-106355000D01*
X139669000Y-106361000D01*
X139671000Y-106368000D01*
X139672000Y-106374000D01*
X139673000Y-106380000D01*
X139674000Y-106387000D01*
X139675000Y-106393000D01*
X139675000Y-106400000D01*
X139675000Y-106600000D01*
X139675000Y-106607000D01*
X139674000Y-106613000D01*
X139673000Y-106620000D01*
X139672000Y-106626000D01*
X139671000Y-106632000D01*
X139669000Y-106639000D01*
X139667000Y-106645000D01*
X139664000Y-106651000D01*
X139661000Y-106657000D01*
X139658000Y-106662000D01*
X139655000Y-106668000D01*
X139651000Y-106673000D01*
X139647000Y-106679000D01*
X139643000Y-106684000D01*
X139638000Y-106688000D01*
X139634000Y-106693000D01*
X139629000Y-106697000D01*
X139623000Y-106701000D01*
X139618000Y-106705000D01*
X139613000Y-106708000D01*
X139607000Y-106711000D01*
X139601000Y-106714000D01*
X139595000Y-106717000D01*
X139589000Y-106719000D01*
X139582000Y-106721000D01*
X139576000Y-106722000D01*
X139570000Y-106723000D01*
X139563000Y-106724000D01*
X139557000Y-106725000D01*
X139550000Y-106725000D01*
X139110000Y-106725000D01*
X139103000Y-106725000D01*
X139097000Y-106724000D01*
X139090000Y-106723000D01*
X139084000Y-106722000D01*
X139078000Y-106721000D01*
X139071000Y-106719000D01*
X139065000Y-106717000D01*
X139059000Y-106714000D01*
X139053000Y-106711000D01*
X139047000Y-106708000D01*
X139042000Y-106705000D01*
X139037000Y-106701000D01*
X139031000Y-106697000D01*
X139026000Y-106693000D01*
X139022000Y-106688000D01*
X139017000Y-106684000D01*
X139013000Y-106679000D01*
X139009000Y-106673000D01*
X139005000Y-106668000D01*
X139002000Y-106662000D01*
X138999000Y-106657000D01*
X138996000Y-106651000D01*
X138993000Y-106645000D01*
X138991000Y-106639000D01*
X138989000Y-106632000D01*
X138988000Y-106626000D01*
X138987000Y-106620000D01*
X138986000Y-106613000D01*
X138985000Y-106607000D01*
X138985000Y-106600000D01*
X138985000Y-106400000D01*
X138985000Y-106393000D01*
X138986000Y-106387000D01*
X138987000Y-106380000D01*
X138988000Y-106374000D01*
X138989000Y-106368000D01*
X138991000Y-106361000D01*
X138993000Y-106355000D01*
X138996000Y-106349000D01*
X138999000Y-106343000D01*
X139002000Y-106338000D01*
X139005000Y-106332000D01*
X139009000Y-106327000D01*
X139013000Y-106321000D01*
X139017000Y-106316000D01*
X139022000Y-106312000D01*
X139026000Y-106307000D01*
X139031000Y-106303000D01*
X139037000Y-106299000D01*
X139042000Y-106295000D01*
X139047000Y-106292000D01*
X139053000Y-106289000D01*
X139059000Y-106286000D01*
X139065000Y-106283000D01*
X139071000Y-106281000D01*
X139078000Y-106279000D01*
X139084000Y-106278000D01*
X139090000Y-106277000D01*
X139097000Y-106276000D01*
X139103000Y-106275000D01*
X139110000Y-106275000D01*
X139550000Y-106275000D01*
X139557000Y-106275000D01*
X139563000Y-106276000D01*
G37*
X139563000Y-106776000D02*
X139570000Y-106777000D01*
X139576000Y-106778000D01*
X139582000Y-106779000D01*
X139589000Y-106781000D01*
X139595000Y-106783000D01*
X139601000Y-106786000D01*
X139607000Y-106789000D01*
X139613000Y-106792000D01*
X139618000Y-106795000D01*
X139623000Y-106799000D01*
X139629000Y-106803000D01*
X139634000Y-106807000D01*
X139638000Y-106812000D01*
X139643000Y-106816000D01*
X139647000Y-106821000D01*
X139651000Y-106827000D01*
X139655000Y-106832000D01*
X139658000Y-106838000D01*
X139661000Y-106843000D01*
X139664000Y-106849000D01*
X139667000Y-106855000D01*
X139669000Y-106861000D01*
X139671000Y-106868000D01*
X139672000Y-106874000D01*
X139673000Y-106880000D01*
X139674000Y-106887000D01*
X139675000Y-106893000D01*
X139675000Y-106900000D01*
X139675000Y-107100000D01*
X139675000Y-107107000D01*
X139674000Y-107113000D01*
X139673000Y-107120000D01*
X139672000Y-107126000D01*
X139671000Y-107132000D01*
X139669000Y-107139000D01*
X139667000Y-107145000D01*
X139664000Y-107151000D01*
X139661000Y-107157000D01*
X139658000Y-107162000D01*
X139655000Y-107168000D01*
X139651000Y-107173000D01*
X139647000Y-107179000D01*
X139643000Y-107184000D01*
X139638000Y-107188000D01*
X139634000Y-107193000D01*
X139629000Y-107197000D01*
X139623000Y-107201000D01*
X139618000Y-107205000D01*
X139613000Y-107208000D01*
X139607000Y-107211000D01*
X139601000Y-107214000D01*
X139595000Y-107217000D01*
X139589000Y-107219000D01*
X139582000Y-107221000D01*
X139576000Y-107222000D01*
X139570000Y-107223000D01*
X139563000Y-107224000D01*
X139557000Y-107225000D01*
X139550000Y-107225000D01*
X139110000Y-107225000D01*
X139103000Y-107225000D01*
X139097000Y-107224000D01*
X139090000Y-107223000D01*
X139084000Y-107222000D01*
X139078000Y-107221000D01*
X139071000Y-107219000D01*
X139065000Y-107217000D01*
X139059000Y-107214000D01*
X139053000Y-107211000D01*
X139047000Y-107208000D01*
X139042000Y-107205000D01*
X139037000Y-107201000D01*
X139031000Y-107197000D01*
X139026000Y-107193000D01*
X139022000Y-107188000D01*
X139017000Y-107184000D01*
X139013000Y-107179000D01*
X139009000Y-107173000D01*
X139005000Y-107168000D01*
X139002000Y-107162000D01*
X138999000Y-107157000D01*
X138996000Y-107151000D01*
X138993000Y-107145000D01*
X138991000Y-107139000D01*
X138989000Y-107132000D01*
X138988000Y-107126000D01*
X138987000Y-107120000D01*
X138986000Y-107113000D01*
X138985000Y-107107000D01*
X138985000Y-107100000D01*
X138985000Y-106900000D01*
X138985000Y-106893000D01*
X138986000Y-106887000D01*
X138987000Y-106880000D01*
X138988000Y-106874000D01*
X138989000Y-106868000D01*
X138991000Y-106861000D01*
X138993000Y-106855000D01*
X138996000Y-106849000D01*
X138999000Y-106843000D01*
X139002000Y-106838000D01*
X139005000Y-106832000D01*
X139009000Y-106827000D01*
X139013000Y-106821000D01*
X139017000Y-106816000D01*
X139022000Y-106812000D01*
X139026000Y-106807000D01*
X139031000Y-106803000D01*
X139037000Y-106799000D01*
X139042000Y-106795000D01*
X139047000Y-106792000D01*
X139053000Y-106789000D01*
X139059000Y-106786000D01*
X139065000Y-106783000D01*
X139071000Y-106781000D01*
X139078000Y-106779000D01*
X139084000Y-106778000D01*
X139090000Y-106777000D01*
X139097000Y-106776000D01*
X139103000Y-106775000D01*
X139110000Y-106775000D01*
X139550000Y-106775000D01*
X139557000Y-106775000D01*
X139563000Y-106776000D01*
G36*
X139563000Y-106776000D02*
G01*
X139570000Y-106777000D01*
X139576000Y-106778000D01*
X139582000Y-106779000D01*
X139589000Y-106781000D01*
X139595000Y-106783000D01*
X139601000Y-106786000D01*
X139607000Y-106789000D01*
X139613000Y-106792000D01*
X139618000Y-106795000D01*
X139623000Y-106799000D01*
X139629000Y-106803000D01*
X139634000Y-106807000D01*
X139638000Y-106812000D01*
X139643000Y-106816000D01*
X139647000Y-106821000D01*
X139651000Y-106827000D01*
X139655000Y-106832000D01*
X139658000Y-106838000D01*
X139661000Y-106843000D01*
X139664000Y-106849000D01*
X139667000Y-106855000D01*
X139669000Y-106861000D01*
X139671000Y-106868000D01*
X139672000Y-106874000D01*
X139673000Y-106880000D01*
X139674000Y-106887000D01*
X139675000Y-106893000D01*
X139675000Y-106900000D01*
X139675000Y-107100000D01*
X139675000Y-107107000D01*
X139674000Y-107113000D01*
X139673000Y-107120000D01*
X139672000Y-107126000D01*
X139671000Y-107132000D01*
X139669000Y-107139000D01*
X139667000Y-107145000D01*
X139664000Y-107151000D01*
X139661000Y-107157000D01*
X139658000Y-107162000D01*
X139655000Y-107168000D01*
X139651000Y-107173000D01*
X139647000Y-107179000D01*
X139643000Y-107184000D01*
X139638000Y-107188000D01*
X139634000Y-107193000D01*
X139629000Y-107197000D01*
X139623000Y-107201000D01*
X139618000Y-107205000D01*
X139613000Y-107208000D01*
X139607000Y-107211000D01*
X139601000Y-107214000D01*
X139595000Y-107217000D01*
X139589000Y-107219000D01*
X139582000Y-107221000D01*
X139576000Y-107222000D01*
X139570000Y-107223000D01*
X139563000Y-107224000D01*
X139557000Y-107225000D01*
X139550000Y-107225000D01*
X139110000Y-107225000D01*
X139103000Y-107225000D01*
X139097000Y-107224000D01*
X139090000Y-107223000D01*
X139084000Y-107222000D01*
X139078000Y-107221000D01*
X139071000Y-107219000D01*
X139065000Y-107217000D01*
X139059000Y-107214000D01*
X139053000Y-107211000D01*
X139047000Y-107208000D01*
X139042000Y-107205000D01*
X139037000Y-107201000D01*
X139031000Y-107197000D01*
X139026000Y-107193000D01*
X139022000Y-107188000D01*
X139017000Y-107184000D01*
X139013000Y-107179000D01*
X139009000Y-107173000D01*
X139005000Y-107168000D01*
X139002000Y-107162000D01*
X138999000Y-107157000D01*
X138996000Y-107151000D01*
X138993000Y-107145000D01*
X138991000Y-107139000D01*
X138989000Y-107132000D01*
X138988000Y-107126000D01*
X138987000Y-107120000D01*
X138986000Y-107113000D01*
X138985000Y-107107000D01*
X138985000Y-107100000D01*
X138985000Y-106900000D01*
X138985000Y-106893000D01*
X138986000Y-106887000D01*
X138987000Y-106880000D01*
X138988000Y-106874000D01*
X138989000Y-106868000D01*
X138991000Y-106861000D01*
X138993000Y-106855000D01*
X138996000Y-106849000D01*
X138999000Y-106843000D01*
X139002000Y-106838000D01*
X139005000Y-106832000D01*
X139009000Y-106827000D01*
X139013000Y-106821000D01*
X139017000Y-106816000D01*
X139022000Y-106812000D01*
X139026000Y-106807000D01*
X139031000Y-106803000D01*
X139037000Y-106799000D01*
X139042000Y-106795000D01*
X139047000Y-106792000D01*
X139053000Y-106789000D01*
X139059000Y-106786000D01*
X139065000Y-106783000D01*
X139071000Y-106781000D01*
X139078000Y-106779000D01*
X139084000Y-106778000D01*
X139090000Y-106777000D01*
X139097000Y-106776000D01*
X139103000Y-106775000D01*
X139110000Y-106775000D01*
X139550000Y-106775000D01*
X139557000Y-106775000D01*
X139563000Y-106776000D01*
G37*
X139563000Y-107276000D02*
X139570000Y-107277000D01*
X139576000Y-107278000D01*
X139582000Y-107279000D01*
X139589000Y-107281000D01*
X139595000Y-107283000D01*
X139601000Y-107286000D01*
X139607000Y-107289000D01*
X139613000Y-107292000D01*
X139618000Y-107295000D01*
X139623000Y-107299000D01*
X139629000Y-107303000D01*
X139634000Y-107307000D01*
X139638000Y-107312000D01*
X139643000Y-107316000D01*
X139647000Y-107321000D01*
X139651000Y-107327000D01*
X139655000Y-107332000D01*
X139658000Y-107338000D01*
X139661000Y-107343000D01*
X139664000Y-107349000D01*
X139667000Y-107355000D01*
X139669000Y-107361000D01*
X139671000Y-107368000D01*
X139672000Y-107374000D01*
X139673000Y-107380000D01*
X139674000Y-107387000D01*
X139675000Y-107393000D01*
X139675000Y-107400000D01*
X139675000Y-107600000D01*
X139675000Y-107607000D01*
X139674000Y-107613000D01*
X139673000Y-107620000D01*
X139672000Y-107626000D01*
X139671000Y-107632000D01*
X139669000Y-107639000D01*
X139667000Y-107645000D01*
X139664000Y-107651000D01*
X139661000Y-107657000D01*
X139658000Y-107662000D01*
X139655000Y-107668000D01*
X139651000Y-107673000D01*
X139647000Y-107679000D01*
X139643000Y-107684000D01*
X139638000Y-107688000D01*
X139634000Y-107693000D01*
X139629000Y-107697000D01*
X139623000Y-107701000D01*
X139618000Y-107705000D01*
X139613000Y-107708000D01*
X139607000Y-107711000D01*
X139601000Y-107714000D01*
X139595000Y-107717000D01*
X139589000Y-107719000D01*
X139582000Y-107721000D01*
X139576000Y-107722000D01*
X139570000Y-107723000D01*
X139563000Y-107724000D01*
X139557000Y-107725000D01*
X139550000Y-107725000D01*
X139110000Y-107725000D01*
X139103000Y-107725000D01*
X139097000Y-107724000D01*
X139090000Y-107723000D01*
X139084000Y-107722000D01*
X139078000Y-107721000D01*
X139071000Y-107719000D01*
X139065000Y-107717000D01*
X139059000Y-107714000D01*
X139053000Y-107711000D01*
X139047000Y-107708000D01*
X139042000Y-107705000D01*
X139037000Y-107701000D01*
X139031000Y-107697000D01*
X139026000Y-107693000D01*
X139022000Y-107688000D01*
X139017000Y-107684000D01*
X139013000Y-107679000D01*
X139009000Y-107673000D01*
X139005000Y-107668000D01*
X139002000Y-107662000D01*
X138999000Y-107657000D01*
X138996000Y-107651000D01*
X138993000Y-107645000D01*
X138991000Y-107639000D01*
X138989000Y-107632000D01*
X138988000Y-107626000D01*
X138987000Y-107620000D01*
X138986000Y-107613000D01*
X138985000Y-107607000D01*
X138985000Y-107600000D01*
X138985000Y-107400000D01*
X138985000Y-107393000D01*
X138986000Y-107387000D01*
X138987000Y-107380000D01*
X138988000Y-107374000D01*
X138989000Y-107368000D01*
X138991000Y-107361000D01*
X138993000Y-107355000D01*
X138996000Y-107349000D01*
X138999000Y-107343000D01*
X139002000Y-107338000D01*
X139005000Y-107332000D01*
X139009000Y-107327000D01*
X139013000Y-107321000D01*
X139017000Y-107316000D01*
X139022000Y-107312000D01*
X139026000Y-107307000D01*
X139031000Y-107303000D01*
X139037000Y-107299000D01*
X139042000Y-107295000D01*
X139047000Y-107292000D01*
X139053000Y-107289000D01*
X139059000Y-107286000D01*
X139065000Y-107283000D01*
X139071000Y-107281000D01*
X139078000Y-107279000D01*
X139084000Y-107278000D01*
X139090000Y-107277000D01*
X139097000Y-107276000D01*
X139103000Y-107275000D01*
X139110000Y-107275000D01*
X139550000Y-107275000D01*
X139557000Y-107275000D01*
X139563000Y-107276000D01*
G36*
X139563000Y-107276000D02*
G01*
X139570000Y-107277000D01*
X139576000Y-107278000D01*
X139582000Y-107279000D01*
X139589000Y-107281000D01*
X139595000Y-107283000D01*
X139601000Y-107286000D01*
X139607000Y-107289000D01*
X139613000Y-107292000D01*
X139618000Y-107295000D01*
X139623000Y-107299000D01*
X139629000Y-107303000D01*
X139634000Y-107307000D01*
X139638000Y-107312000D01*
X139643000Y-107316000D01*
X139647000Y-107321000D01*
X139651000Y-107327000D01*
X139655000Y-107332000D01*
X139658000Y-107338000D01*
X139661000Y-107343000D01*
X139664000Y-107349000D01*
X139667000Y-107355000D01*
X139669000Y-107361000D01*
X139671000Y-107368000D01*
X139672000Y-107374000D01*
X139673000Y-107380000D01*
X139674000Y-107387000D01*
X139675000Y-107393000D01*
X139675000Y-107400000D01*
X139675000Y-107600000D01*
X139675000Y-107607000D01*
X139674000Y-107613000D01*
X139673000Y-107620000D01*
X139672000Y-107626000D01*
X139671000Y-107632000D01*
X139669000Y-107639000D01*
X139667000Y-107645000D01*
X139664000Y-107651000D01*
X139661000Y-107657000D01*
X139658000Y-107662000D01*
X139655000Y-107668000D01*
X139651000Y-107673000D01*
X139647000Y-107679000D01*
X139643000Y-107684000D01*
X139638000Y-107688000D01*
X139634000Y-107693000D01*
X139629000Y-107697000D01*
X139623000Y-107701000D01*
X139618000Y-107705000D01*
X139613000Y-107708000D01*
X139607000Y-107711000D01*
X139601000Y-107714000D01*
X139595000Y-107717000D01*
X139589000Y-107719000D01*
X139582000Y-107721000D01*
X139576000Y-107722000D01*
X139570000Y-107723000D01*
X139563000Y-107724000D01*
X139557000Y-107725000D01*
X139550000Y-107725000D01*
X139110000Y-107725000D01*
X139103000Y-107725000D01*
X139097000Y-107724000D01*
X139090000Y-107723000D01*
X139084000Y-107722000D01*
X139078000Y-107721000D01*
X139071000Y-107719000D01*
X139065000Y-107717000D01*
X139059000Y-107714000D01*
X139053000Y-107711000D01*
X139047000Y-107708000D01*
X139042000Y-107705000D01*
X139037000Y-107701000D01*
X139031000Y-107697000D01*
X139026000Y-107693000D01*
X139022000Y-107688000D01*
X139017000Y-107684000D01*
X139013000Y-107679000D01*
X139009000Y-107673000D01*
X139005000Y-107668000D01*
X139002000Y-107662000D01*
X138999000Y-107657000D01*
X138996000Y-107651000D01*
X138993000Y-107645000D01*
X138991000Y-107639000D01*
X138989000Y-107632000D01*
X138988000Y-107626000D01*
X138987000Y-107620000D01*
X138986000Y-107613000D01*
X138985000Y-107607000D01*
X138985000Y-107600000D01*
X138985000Y-107400000D01*
X138985000Y-107393000D01*
X138986000Y-107387000D01*
X138987000Y-107380000D01*
X138988000Y-107374000D01*
X138989000Y-107368000D01*
X138991000Y-107361000D01*
X138993000Y-107355000D01*
X138996000Y-107349000D01*
X138999000Y-107343000D01*
X139002000Y-107338000D01*
X139005000Y-107332000D01*
X139009000Y-107327000D01*
X139013000Y-107321000D01*
X139017000Y-107316000D01*
X139022000Y-107312000D01*
X139026000Y-107307000D01*
X139031000Y-107303000D01*
X139037000Y-107299000D01*
X139042000Y-107295000D01*
X139047000Y-107292000D01*
X139053000Y-107289000D01*
X139059000Y-107286000D01*
X139065000Y-107283000D01*
X139071000Y-107281000D01*
X139078000Y-107279000D01*
X139084000Y-107278000D01*
X139090000Y-107277000D01*
X139097000Y-107276000D01*
X139103000Y-107275000D01*
X139110000Y-107275000D01*
X139550000Y-107275000D01*
X139557000Y-107275000D01*
X139563000Y-107276000D01*
G37*
X139563000Y-107776000D02*
X139570000Y-107777000D01*
X139576000Y-107778000D01*
X139582000Y-107779000D01*
X139589000Y-107781000D01*
X139595000Y-107783000D01*
X139601000Y-107786000D01*
X139607000Y-107789000D01*
X139613000Y-107792000D01*
X139618000Y-107795000D01*
X139623000Y-107799000D01*
X139629000Y-107803000D01*
X139634000Y-107807000D01*
X139638000Y-107812000D01*
X139643000Y-107816000D01*
X139647000Y-107821000D01*
X139651000Y-107827000D01*
X139655000Y-107832000D01*
X139658000Y-107838000D01*
X139661000Y-107843000D01*
X139664000Y-107849000D01*
X139667000Y-107855000D01*
X139669000Y-107861000D01*
X139671000Y-107868000D01*
X139672000Y-107874000D01*
X139673000Y-107880000D01*
X139674000Y-107887000D01*
X139675000Y-107893000D01*
X139675000Y-107900000D01*
X139675000Y-108100000D01*
X139675000Y-108107000D01*
X139674000Y-108113000D01*
X139673000Y-108120000D01*
X139672000Y-108126000D01*
X139671000Y-108132000D01*
X139669000Y-108139000D01*
X139667000Y-108145000D01*
X139664000Y-108151000D01*
X139661000Y-108157000D01*
X139658000Y-108162000D01*
X139655000Y-108168000D01*
X139651000Y-108173000D01*
X139647000Y-108179000D01*
X139643000Y-108184000D01*
X139638000Y-108188000D01*
X139634000Y-108193000D01*
X139629000Y-108197000D01*
X139623000Y-108201000D01*
X139618000Y-108205000D01*
X139613000Y-108208000D01*
X139607000Y-108211000D01*
X139601000Y-108214000D01*
X139595000Y-108217000D01*
X139589000Y-108219000D01*
X139582000Y-108221000D01*
X139576000Y-108222000D01*
X139570000Y-108223000D01*
X139563000Y-108224000D01*
X139557000Y-108225000D01*
X139550000Y-108225000D01*
X139110000Y-108225000D01*
X139103000Y-108225000D01*
X139097000Y-108224000D01*
X139090000Y-108223000D01*
X139084000Y-108222000D01*
X139078000Y-108221000D01*
X139071000Y-108219000D01*
X139065000Y-108217000D01*
X139059000Y-108214000D01*
X139053000Y-108211000D01*
X139047000Y-108208000D01*
X139042000Y-108205000D01*
X139037000Y-108201000D01*
X139031000Y-108197000D01*
X139026000Y-108193000D01*
X139022000Y-108188000D01*
X139017000Y-108184000D01*
X139013000Y-108179000D01*
X139009000Y-108173000D01*
X139005000Y-108168000D01*
X139002000Y-108162000D01*
X138999000Y-108157000D01*
X138996000Y-108151000D01*
X138993000Y-108145000D01*
X138991000Y-108139000D01*
X138989000Y-108132000D01*
X138988000Y-108126000D01*
X138987000Y-108120000D01*
X138986000Y-108113000D01*
X138985000Y-108107000D01*
X138985000Y-108100000D01*
X138985000Y-107900000D01*
X138985000Y-107893000D01*
X138986000Y-107887000D01*
X138987000Y-107880000D01*
X138988000Y-107874000D01*
X138989000Y-107868000D01*
X138991000Y-107861000D01*
X138993000Y-107855000D01*
X138996000Y-107849000D01*
X138999000Y-107843000D01*
X139002000Y-107838000D01*
X139005000Y-107832000D01*
X139009000Y-107827000D01*
X139013000Y-107821000D01*
X139017000Y-107816000D01*
X139022000Y-107812000D01*
X139026000Y-107807000D01*
X139031000Y-107803000D01*
X139037000Y-107799000D01*
X139042000Y-107795000D01*
X139047000Y-107792000D01*
X139053000Y-107789000D01*
X139059000Y-107786000D01*
X139065000Y-107783000D01*
X139071000Y-107781000D01*
X139078000Y-107779000D01*
X139084000Y-107778000D01*
X139090000Y-107777000D01*
X139097000Y-107776000D01*
X139103000Y-107775000D01*
X139110000Y-107775000D01*
X139550000Y-107775000D01*
X139557000Y-107775000D01*
X139563000Y-107776000D01*
G36*
X139563000Y-107776000D02*
G01*
X139570000Y-107777000D01*
X139576000Y-107778000D01*
X139582000Y-107779000D01*
X139589000Y-107781000D01*
X139595000Y-107783000D01*
X139601000Y-107786000D01*
X139607000Y-107789000D01*
X139613000Y-107792000D01*
X139618000Y-107795000D01*
X139623000Y-107799000D01*
X139629000Y-107803000D01*
X139634000Y-107807000D01*
X139638000Y-107812000D01*
X139643000Y-107816000D01*
X139647000Y-107821000D01*
X139651000Y-107827000D01*
X139655000Y-107832000D01*
X139658000Y-107838000D01*
X139661000Y-107843000D01*
X139664000Y-107849000D01*
X139667000Y-107855000D01*
X139669000Y-107861000D01*
X139671000Y-107868000D01*
X139672000Y-107874000D01*
X139673000Y-107880000D01*
X139674000Y-107887000D01*
X139675000Y-107893000D01*
X139675000Y-107900000D01*
X139675000Y-108100000D01*
X139675000Y-108107000D01*
X139674000Y-108113000D01*
X139673000Y-108120000D01*
X139672000Y-108126000D01*
X139671000Y-108132000D01*
X139669000Y-108139000D01*
X139667000Y-108145000D01*
X139664000Y-108151000D01*
X139661000Y-108157000D01*
X139658000Y-108162000D01*
X139655000Y-108168000D01*
X139651000Y-108173000D01*
X139647000Y-108179000D01*
X139643000Y-108184000D01*
X139638000Y-108188000D01*
X139634000Y-108193000D01*
X139629000Y-108197000D01*
X139623000Y-108201000D01*
X139618000Y-108205000D01*
X139613000Y-108208000D01*
X139607000Y-108211000D01*
X139601000Y-108214000D01*
X139595000Y-108217000D01*
X139589000Y-108219000D01*
X139582000Y-108221000D01*
X139576000Y-108222000D01*
X139570000Y-108223000D01*
X139563000Y-108224000D01*
X139557000Y-108225000D01*
X139550000Y-108225000D01*
X139110000Y-108225000D01*
X139103000Y-108225000D01*
X139097000Y-108224000D01*
X139090000Y-108223000D01*
X139084000Y-108222000D01*
X139078000Y-108221000D01*
X139071000Y-108219000D01*
X139065000Y-108217000D01*
X139059000Y-108214000D01*
X139053000Y-108211000D01*
X139047000Y-108208000D01*
X139042000Y-108205000D01*
X139037000Y-108201000D01*
X139031000Y-108197000D01*
X139026000Y-108193000D01*
X139022000Y-108188000D01*
X139017000Y-108184000D01*
X139013000Y-108179000D01*
X139009000Y-108173000D01*
X139005000Y-108168000D01*
X139002000Y-108162000D01*
X138999000Y-108157000D01*
X138996000Y-108151000D01*
X138993000Y-108145000D01*
X138991000Y-108139000D01*
X138989000Y-108132000D01*
X138988000Y-108126000D01*
X138987000Y-108120000D01*
X138986000Y-108113000D01*
X138985000Y-108107000D01*
X138985000Y-108100000D01*
X138985000Y-107900000D01*
X138985000Y-107893000D01*
X138986000Y-107887000D01*
X138987000Y-107880000D01*
X138988000Y-107874000D01*
X138989000Y-107868000D01*
X138991000Y-107861000D01*
X138993000Y-107855000D01*
X138996000Y-107849000D01*
X138999000Y-107843000D01*
X139002000Y-107838000D01*
X139005000Y-107832000D01*
X139009000Y-107827000D01*
X139013000Y-107821000D01*
X139017000Y-107816000D01*
X139022000Y-107812000D01*
X139026000Y-107807000D01*
X139031000Y-107803000D01*
X139037000Y-107799000D01*
X139042000Y-107795000D01*
X139047000Y-107792000D01*
X139053000Y-107789000D01*
X139059000Y-107786000D01*
X139065000Y-107783000D01*
X139071000Y-107781000D01*
X139078000Y-107779000D01*
X139084000Y-107778000D01*
X139090000Y-107777000D01*
X139097000Y-107776000D01*
X139103000Y-107775000D01*
X139110000Y-107775000D01*
X139550000Y-107775000D01*
X139557000Y-107775000D01*
X139563000Y-107776000D01*
G37*
%TD*%
D12*
%TO.C,C202*%
X170775000Y-65400000D03*
X169225000Y-65400000D03*
%TD*%
D13*
%TO.C,C703*%
X150603000Y-93862500D03*
X149643000Y-93862500D03*
%TD*%
D14*
%TO.C,C706*%
X148195000Y-97025000D03*
X148195000Y-95475000D03*
%TD*%
D15*
%TO.C,C801*%
X148022000Y-104957000D03*
X148022000Y-105917000D03*
%TD*%
D16*
%TO.C,R702*%
X149590000Y-92719500D03*
X150610000Y-92719500D03*
%TD*%
%TO.C,R801*%
X144875000Y-104700000D03*
X145895000Y-104700000D03*
%TD*%
D17*
%TO.C,R802*%
X144837500Y-107900000D03*
X146662500Y-107900000D03*
%TD*%
D18*
%TO.C,J801*%
X150300000Y-113190000D03*
D19*
X147760000Y-113190000D03*
X145220000Y-113190000D03*
%TD*%
D20*
%TO.C,FB401*%
X169354500Y-98823000D03*
X169354500Y-100948000D03*
%TD*%
D21*
%TO.C,J401*%
X174500000Y-98750000D03*
D22*
X175500000Y-98100000D03*
X174500000Y-97450000D03*
X175500000Y-96800000D03*
X174500000Y-96150000D03*
D23*
X174720000Y-101025000D03*
X174720000Y-93875000D03*
%TD*%
D24*
%TO.C,C403*%
X169298000Y-95151000D03*
X169298000Y-94191000D03*
%TD*%
D16*
%TO.C,R502*%
X172040000Y-103400000D03*
X173060000Y-103400000D03*
%TD*%
%TO.C,R501*%
X172039000Y-104900000D03*
X173059000Y-104900000D03*
%TD*%
D25*
%TO.C,D502*%
X175987500Y-102800000D03*
X174412500Y-102800000D03*
%TD*%
D14*
%TO.C,C502*%
X170350000Y-109175000D03*
X170350000Y-107625000D03*
%TD*%
D12*
%TO.C,C501*%
X167525000Y-102150000D03*
X165975000Y-102150000D03*
%TD*%
D18*
%TO.C,J201*%
X145175000Y-62675000D03*
D19*
X145175000Y-60135000D03*
X147715000Y-62675000D03*
X147715000Y-60135000D03*
X150255000Y-62675000D03*
X150255000Y-60135000D03*
X152795000Y-62675000D03*
X152795000Y-60135000D03*
X155335000Y-62675000D03*
X155335000Y-60135000D03*
X157875000Y-62675000D03*
X157875000Y-60135000D03*
X160415000Y-62675000D03*
X160415000Y-60135000D03*
X162955000Y-62675000D03*
X162955000Y-60135000D03*
X165495000Y-62675000D03*
X165495000Y-60135000D03*
X168035000Y-62675000D03*
X168035000Y-60135000D03*
%TD*%
D25*
%TO.C,D501*%
X175987500Y-104900000D03*
X174412500Y-104900000D03*
%TD*%
D26*
%TO.C,L301*%
X119700000Y-106100000D03*
X119700000Y-112000000D03*
%TD*%
D27*
%TO.C,C304*%
X124325000Y-112385000D03*
X127275000Y-112385000D03*
%TD*%
D28*
%TO.C,D301*%
X99050000Y-112600000D03*
X103350000Y-112600000D03*
%TD*%
D29*
%TO.C,H1001*%
X111750000Y-63500000D03*
%TD*%
D14*
%TO.C,C705*%
X144385000Y-97125000D03*
X144385000Y-95575000D03*
%TD*%
D13*
%TO.C,C702*%
X146770000Y-93785000D03*
X145810000Y-93785000D03*
%TD*%
D30*
%TO.C,FB702*%
X146300000Y-97162500D03*
X146300000Y-95037500D03*
%TD*%
D31*
%TO.C,R701*%
X146823000Y-92642000D03*
X145803000Y-92642000D03*
%TD*%
D32*
%TO.C,C701*%
X151518000Y-93766000D03*
X152478000Y-93766000D03*
%TD*%
D30*
%TO.C,FB701*%
X152021000Y-97193000D03*
X152021000Y-95068000D03*
%TD*%
D15*
%TO.C,C404*%
X169298000Y-96246000D03*
X169298000Y-97206000D03*
%TD*%
D33*
%TO.C,F401*%
X171513500Y-101984000D03*
X171513500Y-99184000D03*
%TD*%
D34*
%TO.C,C803*%
X151275000Y-107700000D03*
X148325000Y-107700000D03*
%TD*%
D35*
%TO.C,FB801*%
X151322000Y-105541000D03*
X149197000Y-105541000D03*
%TD*%
D36*
%TO.C,C503*%
X170550000Y-103650000D03*
X170550000Y-105550000D03*
%TD*%
D37*
%TO.C,U401*%
X167126500Y-93839000D03*
X165856500Y-93839000D03*
X164586500Y-93839000D03*
X163316500Y-93839000D03*
X162046500Y-93839000D03*
X160776500Y-93839000D03*
X159506500Y-93839000D03*
X158236500Y-93839000D03*
X158236500Y-98789000D03*
X159506500Y-98789000D03*
X160776500Y-98789000D03*
X162046500Y-98789000D03*
X163316500Y-98789000D03*
X164586500Y-98789000D03*
X165856500Y-98789000D03*
X167126500Y-98789000D03*
%TD*%
D31*
%TO.C,R402*%
X163710000Y-91950000D03*
X162690000Y-91950000D03*
%TD*%
D16*
%TO.C,R401*%
X160640000Y-91950000D03*
X161660000Y-91950000D03*
%TD*%
D38*
%TO.C,Q402*%
X159550000Y-90487500D03*
X161450000Y-90487500D03*
X160500000Y-88612500D03*
%TD*%
%TO.C,Q401*%
X163200000Y-90487500D03*
X165100000Y-90487500D03*
X164150000Y-88612500D03*
%TD*%
D39*
%TO.C,D303*%
X106250000Y-107600000D03*
X102950000Y-107600000D03*
%TD*%
D40*
%TO.C,D1101*%
X156650000Y-90550000D03*
X157950000Y-90550000D03*
X157300000Y-88550000D03*
%TD*%
%TO.C,D1102*%
X166700000Y-90550000D03*
X168000000Y-90550000D03*
X167350000Y-88550000D03*
%TD*%
D41*
%TO.C,R1103*%
X155450000Y-89310000D03*
X155450000Y-88290000D03*
%TD*%
D42*
%TO.C,SW502*%
X168400000Y-113900000D03*
X162100000Y-113900000D03*
X168400000Y-110100000D03*
X162100000Y-110100000D03*
%TD*%
%TO.C,SW501*%
X168400000Y-107850000D03*
X162100000Y-107850000D03*
X168400000Y-104050000D03*
X162100000Y-104050000D03*
%TD*%
D29*
%TO.C,H1002*%
X156250000Y-108500000D03*
%TD*%
D14*
%TO.C,C402*%
X156500000Y-97075000D03*
X156500000Y-95525000D03*
%TD*%
D41*
%TO.C,R201*%
X170385000Y-88070000D03*
X170385000Y-87050000D03*
%TD*%
D15*
%TO.C,C203*%
X169285000Y-87055000D03*
X169285000Y-88015000D03*
%TD*%
D18*
%TO.C,J702*%
X155800000Y-102225000D03*
D19*
X153260000Y-102225000D03*
X150720000Y-102225000D03*
X148180000Y-102225000D03*
%TD*%
D43*
%TO.C,D201*%
X111150000Y-112400000D03*
X114450000Y-112400000D03*
%TD*%
D44*
%TO.C,C704*%
X154180000Y-97022000D03*
X154180000Y-94072000D03*
%TD*%
D30*
%TO.C,FB703*%
X150100000Y-97162500D03*
X150100000Y-95037500D03*
%TD*%
D45*
%TO.C,C802*%
X145150500Y-106122000D03*
X146700500Y-106122000D03*
%TD*%
D46*
%TO.C,U202*%
X127300000Y-106480000D03*
X127300000Y-107750000D03*
X127300000Y-109020000D03*
X127300000Y-110290000D03*
X132550000Y-110290000D03*
X132550000Y-109020000D03*
X132550000Y-107750000D03*
X132550000Y-106480000D03*
%TD*%
D47*
%TO.C,U501*%
X139525000Y-101095000D03*
X139525000Y-99825000D03*
X139525000Y-98555000D03*
X139525000Y-97285000D03*
X134575000Y-97285000D03*
X134575000Y-98555000D03*
X134575000Y-99825000D03*
X134575000Y-101095000D03*
%TD*%
D41*
%TO.C,R503*%
X132000000Y-102510000D03*
X132000000Y-101490000D03*
%TD*%
D48*
%TO.C,R601*%
X111850000Y-103662500D03*
X111850000Y-101837500D03*
%TD*%
%TO.C,R602*%
X109850000Y-103662500D03*
X109850000Y-101837500D03*
%TD*%
D15*
%TO.C,C602*%
X141350000Y-98360000D03*
X141350000Y-99320000D03*
%TD*%
D49*
%TO.C,F301*%
X101337500Y-108400000D03*
X97062500Y-108400000D03*
%TD*%
D27*
%TO.C,C720*%
X132725000Y-94450000D03*
X135675000Y-94450000D03*
%TD*%
D50*
%TO.C,J606*%
X96087500Y-77400000D03*
D51*
X92277500Y-77400000D03*
%TD*%
D32*
%TO.C,C1210*%
X133920000Y-79000000D03*
X134880000Y-79000000D03*
%TD*%
D16*
%TO.C,C1106*%
X116390000Y-93625000D03*
X117410000Y-93625000D03*
%TD*%
D15*
%TO.C,C622*%
X120350000Y-70430000D03*
X120350000Y-71390000D03*
%TD*%
D52*
%TO.C,C1209*%
X140650000Y-79400000D03*
X136550000Y-79400000D03*
%TD*%
D53*
%TO.C,D611*%
X99800000Y-69250000D03*
X99800000Y-67950000D03*
X97800000Y-68600000D03*
%TD*%
D35*
%TO.C,L1202*%
X134462500Y-80400000D03*
X132337500Y-80400000D03*
%TD*%
D15*
%TO.C,C606*%
X91000000Y-67820000D03*
X91000000Y-68780000D03*
%TD*%
D18*
%TO.C,J302*%
X153075000Y-89599999D03*
D19*
X150535000Y-89599999D03*
%TD*%
D54*
%TO.C,C718*%
X142000000Y-110525000D03*
X142000000Y-113475000D03*
%TD*%
D12*
%TO.C,C604*%
X102875000Y-71400000D03*
X101325000Y-71400000D03*
%TD*%
D41*
%TO.C,R615*%
X109200000Y-71410000D03*
X109200000Y-70390000D03*
%TD*%
D24*
%TO.C,C624*%
X133000000Y-62480000D03*
X133000000Y-61520000D03*
%TD*%
D55*
%TO.C,R1105*%
X124300000Y-94475000D03*
X124300000Y-92825000D03*
%TD*%
D44*
%TO.C,C709*%
X122400000Y-103175000D03*
X122400000Y-100225000D03*
%TD*%
D25*
%TO.C,D1002*%
X140887500Y-102900000D03*
X139312500Y-102900000D03*
%TD*%
D56*
%TO.C,U1203*%
X134282500Y-89200000D03*
X134282500Y-91100000D03*
X136557500Y-90150000D03*
%TD*%
D57*
%TO.C,PS1201*%
X142407500Y-82957500D03*
D58*
X139867500Y-82957500D03*
X137327500Y-82957500D03*
X134787500Y-82957500D03*
%TD*%
D59*
%TO.C,D903*%
X170500000Y-96715000D03*
X170500000Y-97685000D03*
%TD*%
D13*
%TO.C,C1112*%
X97000000Y-94600000D03*
X96040000Y-94600000D03*
%TD*%
D50*
%TO.C,J607*%
X126677500Y-77400000D03*
D51*
X122867500Y-77400000D03*
%TD*%
D60*
%TO.C,U402*%
X176544208Y-86875000D03*
X176544208Y-85925000D03*
X176544208Y-84975000D03*
X174269208Y-84975000D03*
X174269208Y-85925000D03*
X174269208Y-86875000D03*
%TD*%
D13*
%TO.C,C1114*%
X107205000Y-92650000D03*
X106245000Y-92650000D03*
%TD*%
D53*
%TO.C,D604*%
X120200000Y-69250000D03*
X120200000Y-67950000D03*
X118200000Y-68600000D03*
%TD*%
D61*
%TO.C,J1104*%
X102477500Y-87700000D03*
D51*
X106287500Y-87700000D03*
%TD*%
D24*
%TO.C,C616*%
X172742200Y-75980000D03*
X172742200Y-75020000D03*
%TD*%
D61*
%TO.C,J1105*%
X112677500Y-87700000D03*
D51*
X116487500Y-87700000D03*
%TD*%
D18*
%TO.C,J1201*%
X133000000Y-71025000D03*
D19*
X133000000Y-73565000D03*
%TD*%
D62*
%TO.C,FB601*%
X94137500Y-70850000D03*
X96262500Y-70850000D03*
%TD*%
D44*
%TO.C,C712*%
X129975000Y-104575000D03*
X129975000Y-101625000D03*
%TD*%
D32*
%TO.C,C1207*%
X141720000Y-65800000D03*
X142680000Y-65800000D03*
%TD*%
D55*
%TO.C,R1104*%
X114125000Y-94475000D03*
X114125000Y-92825000D03*
%TD*%
D63*
%TO.C,R613*%
X97750000Y-70625000D03*
X97750000Y-72275000D03*
%TD*%
D64*
%TO.C,R404*%
X172914208Y-84975000D03*
X172274208Y-84975000D03*
%TD*%
D65*
%TO.C,U1103*%
X118650000Y-94400000D03*
X119300000Y-94400000D03*
X119950000Y-94400000D03*
X119950000Y-92500000D03*
X118650000Y-92500000D03*
%TD*%
D32*
%TO.C,C1206*%
X141020000Y-64300000D03*
X141980000Y-64300000D03*
%TD*%
D66*
%TO.C,R505*%
X131400000Y-93690000D03*
X131400000Y-94710000D03*
%TD*%
D61*
%TO.C,J1103*%
X92312500Y-87700000D03*
D51*
X96122500Y-87700000D03*
%TD*%
D13*
%TO.C,C1115*%
X117380000Y-92650000D03*
X116420000Y-92650000D03*
%TD*%
D66*
%TO.C,R205*%
X144240000Y-93360000D03*
X144240000Y-94380000D03*
%TD*%
%TO.C,R504*%
X138150000Y-88740000D03*
X138150000Y-89760000D03*
%TD*%
D53*
%TO.C,Q602*%
X104400000Y-67950000D03*
X104400000Y-69250000D03*
X106400000Y-68600000D03*
%TD*%
D15*
%TO.C,C621*%
X110200000Y-70420000D03*
X110200000Y-71380000D03*
%TD*%
%TO.C,C620*%
X100050000Y-70470000D03*
X100050000Y-71430000D03*
%TD*%
D40*
%TO.C,D1103*%
X101150000Y-94400000D03*
X102450000Y-94400000D03*
X101800000Y-92400000D03*
%TD*%
D55*
%TO.C,R1102*%
X103950000Y-94475000D03*
X103950000Y-92825000D03*
%TD*%
D32*
%TO.C,C603*%
X99070000Y-72450000D03*
X100030000Y-72450000D03*
%TD*%
D40*
%TO.C,D1104*%
X111350000Y-94400000D03*
X112650000Y-94400000D03*
X112000000Y-92400000D03*
%TD*%
D44*
%TO.C,C707*%
X117550000Y-103200000D03*
X117550000Y-100250000D03*
%TD*%
D53*
%TO.C,Q604*%
X124800000Y-67950000D03*
X124800000Y-69250000D03*
X126800000Y-68600000D03*
%TD*%
D67*
%TO.C,L701*%
X108800000Y-112600000D03*
X108800000Y-109800000D03*
%TD*%
D68*
%TO.C,D402*%
X149515000Y-98500000D03*
X150485000Y-98500000D03*
%TD*%
D63*
%TO.C,R614*%
X107950000Y-70625000D03*
X107950000Y-72275000D03*
%TD*%
D69*
%TO.C,U1201*%
X135550000Y-67355000D03*
X135550000Y-68625000D03*
X135550000Y-69895000D03*
X135550000Y-71165000D03*
X135550000Y-72435000D03*
X135550000Y-73705000D03*
X135550000Y-74975000D03*
X135550000Y-76245000D03*
X142050000Y-76245000D03*
X142050000Y-74975000D03*
X142050000Y-73705000D03*
X142050000Y-72435000D03*
X142050000Y-71165000D03*
X142050000Y-69895000D03*
X142050000Y-68625000D03*
X142050000Y-67355000D03*
%TD*%
D53*
%TO.C,Q601*%
X94200000Y-67950000D03*
X94200000Y-69250000D03*
X96200000Y-68600000D03*
%TD*%
D68*
%TO.C,D403*%
X153715000Y-98500000D03*
X154685000Y-98500000D03*
%TD*%
D47*
%TO.C,U1202*%
X141275000Y-62905000D03*
X141275000Y-61635000D03*
X141275000Y-60365000D03*
X141275000Y-59095000D03*
X136325000Y-59095000D03*
X136325000Y-60365000D03*
X136325000Y-61635000D03*
X136325000Y-62905000D03*
%TD*%
D13*
%TO.C,C1101*%
X107205000Y-94600000D03*
X106245000Y-94600000D03*
%TD*%
D41*
%TO.C,R1002*%
X138062500Y-103610000D03*
X138062500Y-102590000D03*
%TD*%
D35*
%TO.C,L1201*%
X144925000Y-80400000D03*
X142800000Y-80400000D03*
%TD*%
D68*
%TO.C,D503*%
X144832500Y-110800000D03*
X145802500Y-110800000D03*
%TD*%
D70*
%TO.C,U201*%
X169810000Y-67300000D03*
X168540000Y-67300000D03*
X167270000Y-67300000D03*
X166000000Y-67300000D03*
X164730000Y-67300000D03*
X163460000Y-67300000D03*
X162190000Y-67300000D03*
X160920000Y-67300000D03*
X159650000Y-67300000D03*
X158380000Y-67300000D03*
X157110000Y-67300000D03*
X155840000Y-67300000D03*
X154570000Y-67300000D03*
X153300000Y-67300000D03*
D71*
X152050000Y-69065000D03*
X152050000Y-70335000D03*
X152050000Y-71605000D03*
X152050000Y-72875000D03*
X152050000Y-74145000D03*
X152050000Y-75415000D03*
X152050000Y-76685000D03*
X152050000Y-77955000D03*
X152050000Y-79225000D03*
X152050000Y-80495000D03*
X152050000Y-81765000D03*
X152050000Y-83035000D03*
D70*
X153300000Y-84800000D03*
X154570000Y-84800000D03*
X155840000Y-84800000D03*
X157110000Y-84800000D03*
X158380000Y-84800000D03*
X159650000Y-84800000D03*
X160920000Y-84800000D03*
X162190000Y-84800000D03*
X163460000Y-84800000D03*
X164730000Y-84800000D03*
X166000000Y-84800000D03*
X167270000Y-84800000D03*
X168540000Y-84800000D03*
X169810000Y-84800000D03*
D72*
X162790000Y-73150000D03*
X161390000Y-73150000D03*
X163490000Y-73850000D03*
X162090000Y-73850000D03*
X160690000Y-73850000D03*
X162790000Y-74550000D03*
D73*
X162090000Y-74550000D03*
D72*
X161390000Y-74550000D03*
X163490000Y-75250000D03*
X162090000Y-75250000D03*
X160690000Y-75250000D03*
X162790000Y-75950000D03*
X161390000Y-75950000D03*
%TD*%
D13*
%TO.C,C1103*%
X127635000Y-94600000D03*
X126675000Y-94600000D03*
%TD*%
D74*
%TO.C,D1001*%
X133312500Y-102900000D03*
X134887500Y-102900000D03*
%TD*%
D75*
%TO.C,C715*%
X107850000Y-107800000D03*
X109750000Y-107800000D03*
%TD*%
D41*
%TO.C,R1109*%
X125600000Y-94610000D03*
X125600000Y-93590000D03*
%TD*%
%TO.C,R213*%
X141350000Y-101350000D03*
X141350000Y-100330000D03*
%TD*%
D13*
%TO.C,C1205*%
X136480000Y-64300000D03*
X135520000Y-64300000D03*
%TD*%
D55*
%TO.C,R1101*%
X93750000Y-94475000D03*
X93750000Y-92825000D03*
%TD*%
D76*
%TO.C,C611*%
X132490000Y-66425000D03*
X132490000Y-67975000D03*
%TD*%
D77*
%TO.C,F502*%
X173167200Y-67200000D03*
X176117200Y-67200000D03*
%TD*%
D63*
%TO.C,R618*%
X128300000Y-70625000D03*
X128300000Y-72275000D03*
%TD*%
D62*
%TO.C,FB603*%
X114437500Y-70800000D03*
X116562500Y-70800000D03*
%TD*%
D18*
%TO.C,J602*%
X98000000Y-65275000D03*
D19*
X98000000Y-62735000D03*
X100540000Y-65275000D03*
X100540000Y-62735000D03*
X103080000Y-65275000D03*
X103080000Y-62735000D03*
X105620000Y-65275000D03*
X105620000Y-62735000D03*
%TD*%
D16*
%TO.C,C1104*%
X95990000Y-93650000D03*
X97010000Y-93650000D03*
%TD*%
D44*
%TO.C,C708*%
X119950000Y-103200000D03*
X119950000Y-100250000D03*
%TD*%
D68*
%TO.C,D401*%
X145715000Y-98500000D03*
X146685000Y-98500000D03*
%TD*%
D41*
%TO.C,R603*%
X92600000Y-68810000D03*
X92600000Y-67790000D03*
%TD*%
D65*
%TO.C,U1101*%
X98250000Y-94400000D03*
X98900000Y-94400000D03*
X99550000Y-94400000D03*
X99550000Y-92500000D03*
X98250000Y-92500000D03*
%TD*%
D78*
%TO.C,U203*%
X139450000Y-92450000D03*
D79*
X139537500Y-93950000D03*
D78*
X139450000Y-95450000D03*
%TD*%
D40*
%TO.C,D1105*%
X121550000Y-94450000D03*
X122850000Y-94450000D03*
X122200000Y-92450000D03*
%TD*%
D80*
%TO.C,JP1*%
X149000000Y-84900000D03*
D81*
X149000000Y-82900000D03*
%TD*%
D63*
%TO.C,R616*%
X118100000Y-70625000D03*
X118100000Y-72275000D03*
%TD*%
D44*
%TO.C,C711*%
X127375000Y-104575000D03*
X127375000Y-101625000D03*
%TD*%
D15*
%TO.C,C608*%
X111400000Y-68020000D03*
X111400000Y-68980000D03*
%TD*%
D62*
%TO.C,FB604*%
X124637500Y-70800000D03*
X126762500Y-70800000D03*
%TD*%
D16*
%TO.C,C1107*%
X126590000Y-93625000D03*
X127610000Y-93625000D03*
%TD*%
D64*
%TO.C,R403*%
X172889208Y-86875000D03*
X172249208Y-86875000D03*
%TD*%
D41*
%TO.C,R1108*%
X115425000Y-94610000D03*
X115425000Y-93590000D03*
%TD*%
%TO.C,R1106*%
X95050000Y-94610000D03*
X95050000Y-93590000D03*
%TD*%
D50*
%TO.C,J604*%
X106287500Y-77400000D03*
D51*
X102477500Y-77400000D03*
%TD*%
D15*
%TO.C,C713*%
X111000000Y-109320000D03*
X111000000Y-110280000D03*
%TD*%
D65*
%TO.C,U1102*%
X108450000Y-94400000D03*
X109100000Y-94400000D03*
X109750000Y-94400000D03*
X109750000Y-92500000D03*
X108450000Y-92500000D03*
%TD*%
D15*
%TO.C,C623*%
X130600000Y-70470000D03*
X130600000Y-71430000D03*
%TD*%
D41*
%TO.C,R617*%
X119350000Y-71420000D03*
X119350000Y-70400000D03*
%TD*%
D82*
%TO.C,R608*%
X101275000Y-69900000D03*
X102925000Y-69900000D03*
%TD*%
D32*
%TO.C,C901*%
X164720000Y-91950000D03*
X165680000Y-91950000D03*
%TD*%
%TO.C,C605*%
X109220000Y-72390000D03*
X110180000Y-72390000D03*
%TD*%
D13*
%TO.C,C1208*%
X143280000Y-79000000D03*
X142320000Y-79000000D03*
%TD*%
D12*
%TO.C,C601*%
X92575000Y-71700000D03*
X91025000Y-71700000D03*
%TD*%
D50*
%TO.C,J605*%
X116487500Y-77400000D03*
D51*
X112677500Y-77400000D03*
%TD*%
D53*
%TO.C,D605*%
X130400000Y-69250000D03*
X130400000Y-67950000D03*
X128400000Y-68600000D03*
%TD*%
D12*
%TO.C,C612*%
X112975000Y-71700000D03*
X111425000Y-71700000D03*
%TD*%
D13*
%TO.C,C1102*%
X117430000Y-94600000D03*
X116470000Y-94600000D03*
%TD*%
D44*
%TO.C,C714*%
X106000000Y-112675000D03*
X106000000Y-109725000D03*
%TD*%
D32*
%TO.C,C615*%
X129620000Y-72440000D03*
X130580000Y-72440000D03*
%TD*%
D13*
%TO.C,C1116*%
X127605000Y-92650000D03*
X126645000Y-92650000D03*
%TD*%
D41*
%TO.C,R1107*%
X105250000Y-94610000D03*
X105250000Y-93590000D03*
%TD*%
D12*
%TO.C,C614*%
X123175000Y-71600000D03*
X121625000Y-71600000D03*
%TD*%
D27*
%TO.C,C716*%
X111525000Y-107600000D03*
X114475000Y-107600000D03*
%TD*%
D13*
%TO.C,C1201*%
X145480000Y-79000000D03*
X144520000Y-79000000D03*
%TD*%
D83*
%TO.C,U601*%
X118490000Y-64475000D03*
X119760000Y-64475000D03*
X121030000Y-64475000D03*
X122300000Y-64475000D03*
X123570000Y-64475000D03*
X124840000Y-64475000D03*
X126110000Y-64475000D03*
X126110000Y-59525000D03*
X124840000Y-59525000D03*
X123570000Y-59525000D03*
X122300000Y-59525000D03*
X121030000Y-59525000D03*
X119760000Y-59525000D03*
X118490000Y-59525000D03*
%TD*%
D15*
%TO.C,C609*%
X121600000Y-67720000D03*
X121600000Y-68680000D03*
%TD*%
D65*
%TO.C,U1104*%
X128850000Y-94400000D03*
X129500000Y-94400000D03*
X130150000Y-94400000D03*
X130150000Y-92500000D03*
X128850000Y-92500000D03*
%TD*%
D66*
%TO.C,R1203*%
X128000000Y-61190000D03*
X128000000Y-62210000D03*
%TD*%
D54*
%TO.C,C717*%
X138750000Y-110525000D03*
X138750000Y-113475000D03*
%TD*%
D41*
%TO.C,R604*%
X102800000Y-68710000D03*
X102800000Y-67690000D03*
%TD*%
D31*
%TO.C,R612*%
X131210000Y-66200000D03*
X130190000Y-66200000D03*
%TD*%
D84*
%TO.C,D905*%
X171800000Y-97185000D03*
X171800000Y-96215000D03*
%TD*%
D68*
%TO.C,D504*%
X147265000Y-110800000D03*
X148235000Y-110800000D03*
%TD*%
D62*
%TO.C,FB602*%
X104337500Y-70850000D03*
X106462500Y-70850000D03*
%TD*%
D82*
%TO.C,R610*%
X121575000Y-70000000D03*
X123225000Y-70000000D03*
%TD*%
D85*
%TO.C,CR501*%
X174557800Y-73880000D03*
X174557800Y-75920000D03*
X176742200Y-74900000D03*
%TD*%
D41*
%TO.C,R206*%
X144230000Y-92460000D03*
X144230000Y-91440000D03*
%TD*%
%TO.C,R605*%
X113000000Y-69010000D03*
X113000000Y-67990000D03*
%TD*%
D16*
%TO.C,R1201*%
X133965000Y-92350000D03*
X134985000Y-92350000D03*
%TD*%
D82*
%TO.C,R609*%
X111375000Y-70200000D03*
X113025000Y-70200000D03*
%TD*%
D40*
%TO.C,D1113*%
X90950000Y-94400000D03*
X92250000Y-94400000D03*
X91600000Y-92400000D03*
%TD*%
D13*
%TO.C,C1113*%
X97000000Y-92650000D03*
X96040000Y-92650000D03*
%TD*%
D41*
%TO.C,R1001*%
X136075000Y-103610000D03*
X136075000Y-102590000D03*
%TD*%
D86*
%TO.C,D801*%
X109912500Y-98300000D03*
X109912500Y-100200000D03*
X111787500Y-99250000D03*
%TD*%
D16*
%TO.C,C1105*%
X106190000Y-93625000D03*
X107210000Y-93625000D03*
%TD*%
D41*
%TO.C,R619*%
X129600000Y-71460000D03*
X129600000Y-70440000D03*
%TD*%
D14*
%TO.C,C1203*%
X132620000Y-90925000D03*
X132620000Y-89375000D03*
%TD*%
D15*
%TO.C,C607*%
X101200000Y-67720000D03*
X101200000Y-68680000D03*
%TD*%
D53*
%TO.C,D603*%
X110000000Y-69250000D03*
X110000000Y-67950000D03*
X108000000Y-68600000D03*
%TD*%
D54*
%TO.C,C719*%
X135500000Y-110525000D03*
X135500000Y-113475000D03*
%TD*%
D77*
%TO.C,F501*%
X173192200Y-71100000D03*
X176142200Y-71100000D03*
%TD*%
D13*
%TO.C,C1202*%
X136900000Y-92350000D03*
X135940000Y-92350000D03*
%TD*%
D80*
%TO.C,J501*%
X114300000Y-103000000D03*
D81*
X114300000Y-101000000D03*
X114300000Y-99000000D03*
%TD*%
D87*
%TO.C,J402*%
X175300000Y-88950000D03*
X174300000Y-88950000D03*
X173300000Y-88950000D03*
X172300000Y-88950000D03*
D88*
X176600000Y-91475000D03*
X171000000Y-91475000D03*
%TD*%
D13*
%TO.C,C610*%
X122180000Y-66300000D03*
X121220000Y-66300000D03*
%TD*%
D35*
%TO.C,FB704*%
X114462500Y-105450000D03*
X112337500Y-105450000D03*
%TD*%
D44*
%TO.C,C710*%
X124900000Y-104575000D03*
X124900000Y-101625000D03*
%TD*%
D89*
%TO.C,U602*%
X131600000Y-59850000D03*
X131100000Y-59850000D03*
X130600000Y-59850000D03*
X130100000Y-59850000D03*
X129600000Y-59850000D03*
X129600000Y-64150000D03*
X130100000Y-64150000D03*
X130600000Y-64150000D03*
X131100000Y-64150000D03*
X131600000Y-64150000D03*
%TD*%
D41*
%TO.C,R621*%
X99050000Y-71460000D03*
X99050000Y-70440000D03*
%TD*%
D54*
%TO.C,C721*%
X131000000Y-84535000D03*
X131000000Y-87485000D03*
%TD*%
D41*
%TO.C,R611*%
X133800000Y-67110000D03*
X133800000Y-66090000D03*
%TD*%
%TO.C,R1202*%
X128000000Y-64610000D03*
X128000000Y-63590000D03*
%TD*%
D59*
%TO.C,D904*%
X171800000Y-94315000D03*
X171800000Y-95285000D03*
%TD*%
D90*
%TO.C,R703*%
X114025000Y-109600000D03*
X112375000Y-109600000D03*
%TD*%
D13*
%TO.C,C1204*%
X135880000Y-65800000D03*
X134920000Y-65800000D03*
%TD*%
D41*
%TO.C,R606*%
X123200000Y-68710000D03*
X123200000Y-67690000D03*
%TD*%
D32*
%TO.C,C613*%
X119370000Y-72400000D03*
X120330000Y-72400000D03*
%TD*%
D53*
%TO.C,Q603*%
X114600000Y-67950000D03*
X114600000Y-69250000D03*
X116600000Y-68600000D03*
%TD*%
D82*
%TO.C,R607*%
X90975000Y-70100000D03*
X92625000Y-70100000D03*
%TD*%
D83*
%TO.C,U502*%
X172807200Y-82925000D03*
X174077200Y-82925000D03*
X175347200Y-82925000D03*
X176617200Y-82925000D03*
X176617200Y-77975000D03*
X175347200Y-77975000D03*
X174077200Y-77975000D03*
X172807200Y-77975000D03*
%TD*%
D61*
%TO.C,J1106*%
X122877500Y-87700000D03*
D51*
X126687500Y-87700000D03*
%TD*%
D41*
%TO.C,R204*%
X137060000Y-94940000D03*
X137060000Y-93920000D03*
%TD*%
D50*
%TO.C,J802*%
X103697500Y-101600000D03*
D51*
X99887500Y-101600000D03*
X96077500Y-101600000D03*
X92267500Y-101600000D03*
%TD*%
D91*
%TO.C,D701*%
X124850000Y-106700000D03*
X124850000Y-110000000D03*
%TD*%
D92*
X89000000Y-65500000D02*
X89000000Y-106500000D01*
X169500000Y-57000000D02*
X97500000Y-57000000D01*
X169500000Y-115000000D02*
X97500000Y-115000000D01*
X97500000Y-57000000D02*
G75*
G02*
X89000000Y-65500000I-8500000J0D01*
G01*
X178000000Y-65500000D02*
G75*
G02*
X169500000Y-57000000I0J8500000D01*
G01*
X169500000Y-115000000D02*
G75*
G02*
X178000000Y-106500000I8500000J0D01*
G01*
X178000000Y-65500000D02*
X178000000Y-106500000D01*
X89000000Y-106500000D02*
G75*
G02*
X97500000Y-115000000I0J-8500000D01*
G01*
M02*
