%TF.GenerationSoftware,KiCad,Pcbnew,9.0.6*%
%TF.CreationDate,2026-01-09T08:36:51+00:00*%
%TF.ProjectId,HALMET,48414c4d-4554-42e6-9b69-6361645f7063,1.0.0*%
%TF.SameCoordinates,Original*%
%TF.FileFunction,Soldermask,Bot*%
%TF.FilePolarity,Negative*%
%FSLAX46Y46*%
G04 Gerber Fmt 4.6, Leading zero omitted, Abs format (unit mm)*
G04 Created by KiCad (PCBNEW 9.0.6) date 2026-01-09 08:36:51*
%MOMM*%
%LPD*%
G01*
G04 APERTURE LIST*
G04 Aperture macros list*
%AMRoundRect*
0 Rectangle with rounded corners*
0 $1 Rounding radius*
0 $2 $3 $4 $5 $6 $7 $8 $9 X,Y pos of 4 corners*
0 Add a 4 corners polygon primitive as box body*
4,1,4,$2,$3,$4,$5,$6,$7,$8,$9,$2,$3,0*
0 Add four circle primitives for the rounded corners*
1,1,$1+$1,$2,$3*
1,1,$1+$1,$4,$5*
1,1,$1+$1,$6,$7*
1,1,$1+$1,$8,$9*
0 Add four rect primitives between the rounded corners*
20,1,$1+$1,$2,$3,$4,$5,0*
20,1,$1+$1,$4,$5,$6,$7,0*
20,1,$1+$1,$6,$7,$8,$9,0*
20,1,$1+$1,$8,$9,$2,$3,0*%
%AMHorizOval*
0 Thick line with rounded ends*
0 $1 width*
0 $2 $3 position (X,Y) of the first rounded end (center of the circle)*
0 $4 $5 position (X,Y) of the second rounded end (center of the circle)*
0 Add line between two ends*
20,1,$1,$2,$3,$4,$5,0*
0 Add two circle primitives to create the rounded ends*
1,1,$1,$2,$3*
1,1,$1,$4,$5*%
%AMFreePoly0*
4,1,6,1.000000,0.000000,0.500000,-0.500000,-0.500000,-0.500000,-0.500000,0.500000,0.500000,0.500000,1.000000,0.000000,1.000000,0.000000,$1*%
%AMFreePoly1*
4,1,6,0.500000,-0.500000,-0.650000,-0.500000,-0.150000,0.000000,-0.650000,0.500000,0.500000,0.500000,0.500000,-0.500000,0.500000,-0.500000,$1*%
%AMFreePoly2*
4,1,23,0.500000,-0.750000,0.000000,-0.750000,0.000000,-0.745722,-0.065263,-0.745722,-0.191342,-0.711940,-0.304381,-0.646677,-0.396677,-0.554381,-0.461940,-0.441342,-0.495722,-0.315263,-0.495722,-0.250000,-0.500000,-0.250000,-0.500000,0.250000,-0.495722,0.250000,-0.495722,0.315263,-0.461940,0.441342,-0.396677,0.554381,-0.304381,0.646677,-0.191342,0.711940,-0.065263,0.745722,0.000000,0.745722,
0.000000,0.750000,0.500000,0.750000,0.500000,-0.750000,0.500000,-0.750000,$1*%
%AMFreePoly3*
4,1,23,0.000000,0.745722,0.065263,0.745722,0.191342,0.711940,0.304381,0.646677,0.396677,0.554381,0.461940,0.441342,0.495722,0.315263,0.495722,0.250000,0.500000,0.250000,0.500000,-0.250000,0.495722,-0.250000,0.495722,-0.315263,0.461940,-0.441342,0.396677,-0.554381,0.304381,-0.646677,0.191342,-0.711940,0.065263,-0.745722,0.000000,-0.745722,0.000000,-0.750000,-0.500000,-0.750000,
-0.500000,0.750000,0.000000,0.750000,0.000000,0.745722,0.000000,0.745722,$1*%
G04 Aperture macros list end*
%ADD10R,1.700000X1.700000*%
%ADD11O,1.700000X1.700000*%
%ADD12R,0.840000X0.840000*%
%ADD13C,0.840000*%
%ADD14O,1.850000X0.850000*%
%ADD15HorizOval,6.400000X-0.565685X0.565685X0.565685X-0.565685X0*%
%ADD16RoundRect,0.250000X0.650000X1.550000X-0.650000X1.550000X-0.650000X-1.550000X0.650000X-1.550000X0*%
%ADD17O,1.800000X3.600000*%
%ADD18R,1.750000X2.250000*%
%ADD19O,1.750000X2.250000*%
%ADD20RoundRect,0.250000X-0.650000X-1.550000X0.650000X-1.550000X0.650000X1.550000X-0.650000X1.550000X0*%
%ADD21R,1.350000X1.350000*%
%ADD22C,1.350000*%
%ADD23C,2.000000*%
%ADD24FreePoly0,90.000000*%
%ADD25FreePoly1,90.000000*%
%ADD26R,1.500000X1.000000*%
%ADD27FreePoly2,270.000000*%
%ADD28FreePoly3,270.000000*%
%ADD29FreePoly0,180.000000*%
%ADD30FreePoly1,180.000000*%
%ADD31FreePoly0,0.000000*%
%ADD32FreePoly1,0.000000*%
%TA.AperFunction,Profile*%
%ADD33C,0.050000*%
%TD*%
G04 APERTURE END LIST*
D10*
%TO.C,J801*%
X150300000Y-113190000D03*
D11*
X147760000Y-113190000D03*
X145220000Y-113190000D03*
%TD*%
D12*
%TO.C,J401*%
X174500000Y-98750000D03*
D13*
X175500000Y-98100000D03*
X174500000Y-97450000D03*
X175500000Y-96800000D03*
X174500000Y-96150000D03*
D14*
X174720000Y-101025000D03*
X174720000Y-93875000D03*
%TD*%
D10*
%TO.C,J201*%
X145175000Y-62675000D03*
D11*
X145175000Y-60135000D03*
X147715000Y-62675000D03*
X147715000Y-60135000D03*
X150255000Y-62675000D03*
X150255000Y-60135000D03*
X152795000Y-62675000D03*
X152795000Y-60135000D03*
X155335000Y-62675000D03*
X155335000Y-60135000D03*
X157875000Y-62675000D03*
X157875000Y-60135000D03*
X160415000Y-62675000D03*
X160415000Y-60135000D03*
X162955000Y-62675000D03*
X162955000Y-60135000D03*
X165495000Y-62675000D03*
X165495000Y-60135000D03*
X168035000Y-62675000D03*
X168035000Y-60135000D03*
%TD*%
D15*
%TO.C,H1001*%
X111750000Y-63500000D03*
%TD*%
%TO.C,H1002*%
X156250000Y-108500000D03*
%TD*%
D10*
%TO.C,J702*%
X155800000Y-102225000D03*
D11*
X153260000Y-102225000D03*
X150720000Y-102225000D03*
X148180000Y-102225000D03*
%TD*%
D16*
%TO.C,J606*%
X96087500Y-77400000D03*
D17*
X92277500Y-77400000D03*
%TD*%
D10*
%TO.C,J302*%
X153075000Y-89599999D03*
D11*
X150535000Y-89599999D03*
%TD*%
D18*
%TO.C,PS1201*%
X142407500Y-82957500D03*
D19*
X139867500Y-82957500D03*
X137327500Y-82957500D03*
X134787500Y-82957500D03*
%TD*%
D16*
%TO.C,J607*%
X126677500Y-77400000D03*
D17*
X122867500Y-77400000D03*
%TD*%
D20*
%TO.C,J1104*%
X102477500Y-87700000D03*
D17*
X106287500Y-87700000D03*
%TD*%
D20*
%TO.C,J1105*%
X112677500Y-87700000D03*
D17*
X116487500Y-87700000D03*
%TD*%
D10*
%TO.C,J1201*%
X133000000Y-71025000D03*
D11*
X133000000Y-73565000D03*
%TD*%
D20*
%TO.C,J1103*%
X92312500Y-87700000D03*
D17*
X96122500Y-87700000D03*
%TD*%
D10*
%TO.C,J602*%
X98000000Y-65275000D03*
D11*
X98000000Y-62735000D03*
X100540000Y-65275000D03*
X100540000Y-62735000D03*
X103080000Y-65275000D03*
X103080000Y-62735000D03*
X105620000Y-65275000D03*
X105620000Y-62735000D03*
%TD*%
D21*
%TO.C,JP1*%
X149000000Y-84900000D03*
D22*
X149000000Y-82900000D03*
%TD*%
D16*
%TO.C,J604*%
X106287500Y-77400000D03*
D17*
X102477500Y-77400000D03*
%TD*%
D16*
%TO.C,J605*%
X116487500Y-77400000D03*
D17*
X112677500Y-77400000D03*
%TD*%
D21*
%TO.C,J501*%
X114300000Y-103000000D03*
D22*
X114300000Y-101000000D03*
X114300000Y-99000000D03*
%TD*%
D20*
%TO.C,J1106*%
X122877500Y-87700000D03*
D17*
X126687500Y-87700000D03*
%TD*%
D16*
%TO.C,J802*%
X103697500Y-101600000D03*
D17*
X99887500Y-101600000D03*
X96077500Y-101600000D03*
X92267500Y-101600000D03*
%TD*%
D23*
%TO.C,J203*%
X171500000Y-102200000D03*
%TD*%
D24*
%TO.C,JP601*%
X111850000Y-103475000D03*
D25*
X111850000Y-102050000D03*
%TD*%
D26*
%TO.C,JP604*%
X128778000Y-58532000D03*
X128778000Y-59832000D03*
%TD*%
D27*
%TO.C,JP603*%
X131318000Y-58532000D03*
D28*
X131318000Y-59832000D03*
%TD*%
D29*
%TO.C,JP1112*%
X127425000Y-91025000D03*
D30*
X126000000Y-91025000D03*
%TD*%
D29*
%TO.C,JP1109*%
X113400000Y-91000000D03*
D30*
X111975000Y-91000000D03*
%TD*%
D29*
%TO.C,JP1108*%
X107025000Y-91000000D03*
D30*
X105600000Y-91000000D03*
%TD*%
D31*
%TO.C,JP1101*%
X95400000Y-94300000D03*
D32*
X96825000Y-94300000D03*
%TD*%
D29*
%TO.C,JP1106*%
X93025000Y-91000000D03*
D30*
X91600000Y-91000000D03*
%TD*%
D29*
%TO.C,JP1107*%
X103200000Y-91000000D03*
D30*
X101775000Y-91000000D03*
%TD*%
D31*
%TO.C,JP1103*%
X115775000Y-94300000D03*
D32*
X117200000Y-94300000D03*
%TD*%
D29*
%TO.C,JP1111*%
X123625000Y-91025000D03*
D30*
X122200000Y-91025000D03*
%TD*%
D29*
%TO.C,JP1110*%
X117225000Y-91000000D03*
D30*
X115800000Y-91000000D03*
%TD*%
D26*
%TO.C,JP605*%
X136398000Y-58532000D03*
X136398000Y-59832000D03*
%TD*%
D31*
%TO.C,JP1104*%
X125950000Y-94350000D03*
D32*
X127375000Y-94350000D03*
%TD*%
D26*
%TO.C,JP602*%
X133858000Y-58532000D03*
X133858000Y-59832000D03*
%TD*%
D31*
%TO.C,JP1102*%
X105600000Y-94300000D03*
D32*
X107025000Y-94300000D03*
%TD*%
D29*
%TO.C,JP1105*%
X96875000Y-91000000D03*
D30*
X95450000Y-91000000D03*
%TD*%
D33*
X89000000Y-65500000D02*
X89000000Y-106500000D01*
X169500000Y-57000000D02*
X97500000Y-57000000D01*
X169500000Y-115000000D02*
X97500000Y-115000000D01*
X97500000Y-57000000D02*
G75*
G02*
X89000000Y-65500000I-8500000J0D01*
G01*
X178000000Y-65500000D02*
G75*
G02*
X169500000Y-57000000I0J8500000D01*
G01*
X169500000Y-115000000D02*
G75*
G02*
X178000000Y-106500000I8500000J0D01*
G01*
X178000000Y-65500000D02*
X178000000Y-106500000D01*
X89000000Y-106500000D02*
G75*
G02*
X97500000Y-115000000I0J-8500000D01*
G01*
M02*
