  0
SECTION
  2
HEADER
  9
$ANGBASE
  50
0.0
  9
$ANGDIR
  70
1
  9
$MEASUREMENT
  70
1
  0
ENDSEC
  0
SECTION
  2
TABLES
  0
TABLE
  2
LTYPE
  70
4
  0
LTYPE
  5
40F
  2
CONTINUOUS
  70
0
  3
Solid line
  72
65
  73
0
  40
0.0
  0
LTYPE
  5
410
  2
DASHDOT
 70
0
  3
Dash Dot ____ _ ____ _
 72
65
 73
4
 40
2.0
 49
1.25
 49
-0.25
 49
0.25
 49
-0.25
  0
LTYPE
  5
411
  2
DASHED
 70
0
  3
Dashed __ __ __ __ __
 72
65
 73
2
 40
0.75
 49
0.5
 49
-0.25
  0
LTYPE
  5
43B
  2
DOTTED
 70
0
  3
Dotted .  .  .  .
 72
65
 73
2
 40
0.2
 49
0.0
 49
-0.2
  0
ENDTAB
  0
TABLE
  2
STYLE
  70
4
  0
STYLE
  2
KICAD
  70
0
  40
0
  41
1
  42
1
  50
0
  71
0
  3
isocp.shx
  0
STYLE
  2
KICADB
  70
0
  40
0
  41
1
  42
1
  50
0
  71
0
  3
isocp.shx
  0
STYLE
  2
KICADI
  70
0
  40
0
  41
1
  42
1
  50
15
  71
0
  3
isocp.shx
  0
STYLE
  2
KICADBI
  70
0
  40
0
  41
1
  42
1
  50
15
  71
0
  3
isocp.shx
  0
ENDTAB
  0
TABLE
  2
LAYER
  70
1
  0
LAYER
  2
BLACK
  70
0
  62
7
  6
CONTINUOUS
  0
ENDTAB
  0
ENDSEC
  0
SECTION
  2
ENTITIES
0
LINE
8
BLACK
6
CONTINUOUS
10
169.5061529999999834
20
-56.9762239999999949
11
169.5077249999999935
21
-56.9762239999999949
0
LINE
8
BLACK
6
CONTINUOUS
10
169.5077249999999935
20
-56.9762239999999949
11
169.5083170000000052
21
-56.9766539999999964
0
LINE
8
BLACK
6
CONTINUOUS
10
169.5083170000000052
20
-56.9766539999999964
11
169.5095670000000041
21
-56.9769030000000001
0
LINE
8
BLACK
6
CONTINUOUS
10
169.5095670000000041
20
-56.9769030000000001
11
169.5119760000000042
21
-56.9793120000000002
0
LINE
8
BLACK
6
CONTINUOUS
10
169.5119760000000042
20
-56.9793120000000002
11
169.5202249999999822
21
-56.9853049999999968
0
LINE
8
BLACK
6
CONTINUOUS
10
169.5202249999999822
20
-56.9853049999999968
11
169.5213099999999997
21
-56.9886459999999957
0
LINE
8
BLACK
6
CONTINUOUS
10
169.5213099999999997
20
-56.9886459999999957
11
169.5230969999999786
21
-56.9904329999999959
0
LINE
8
BLACK
6
CONTINUOUS
10
169.5230969999999786
20
-56.9904329999999959
11
169.5230969999999786
21
-56.994142999999994
0
LINE
8
BLACK
6
CONTINUOUS
10
169.5230969999999786
20
-56.994142999999994
11
169.5250000000000057
21
-57.
0
LINE
8
BLACK
6
CONTINUOUS
10
169.5250000000000057
20
-57.
11
169.5250199999999836
21
-57.2780589999999989
0
LINE
8
BLACK
6
CONTINUOUS
10
169.5250199999999836
20
-57.2780589999999989
11
169.5614729999999781
21
-57.8329809999999966
0
LINE
8
BLACK
6
CONTINUOUS
10
169.5614729999999781
20
-57.8329809999999966
11
169.6342209999999966
21
-58.3843209999999999
0
LINE
8
BLACK
6
CONTINUOUS
10
169.6342209999999966
20
-58.3843209999999999
11
169.7429520000000025
21
-58.9297059999999959
0
LINE
8
BLACK
6
CONTINUOUS
10
169.7429520000000025
20
-58.9297059999999959
11
169.8871989999999812
21
-59.4667910000000006
0
LINE
8
BLACK
6
CONTINUOUS
10
169.8871989999999812
20
-59.4667910000000006
11
170.0663399999999967
21
-59.9932659999999984
0
LINE
8
BLACK
6
CONTINUOUS
10
170.0663399999999967
20
-59.9932659999999984
11
170.2796060000000011
21
-60.5068659999999952
0
LINE
8
BLACK
6
CONTINUOUS
10
170.2796060000000011
20
-60.5068659999999952
11
170.5260779999999841
21
-61.0053829999999948
0
LINE
8
BLACK
6
CONTINUOUS
10
170.5260779999999841
20
-61.0053829999999948
11
170.8046980000000019
21
-61.4866719999999987
0
LINE
8
BLACK
6
CONTINUOUS
10
170.8046980000000019
20
-61.4866719999999987
11
171.114264999999989
21
-61.9486619999999988
0
LINE
8
BLACK
6
CONTINUOUS
10
171.114264999999989
20
-61.9486619999999988
11
171.4534500000000037
21
-62.3893679999999975
0
LINE
8
BLACK
6
CONTINUOUS
10
171.4534500000000037
20
-62.3893679999999975
11
171.8207929999999806
21
-62.8068919999999977
0
LINE
8
BLACK
6
CONTINUOUS
10
171.8207929999999806
20
-62.8068919999999977
11
172.0177390000000059
21
-63.0031800000000004
0
LINE
8
BLACK
6
CONTINUOUS
10
172.0177390000000059
20
-63.0031800000000004
11
172.0177390000000059
21
-63.0031809999999979
0
LINE
8
BLACK
6
CONTINUOUS
10
172.0177390000000059
20
-63.0031809999999979
11
172.0205589999999916
21
-63.0086919999999964
0
LINE
8
BLACK
6
CONTINUOUS
10
172.0205589999999916
20
-63.0086919999999964
11
172.0231890000000021
21
-63.0113219999999998
0
LINE
8
BLACK
6
CONTINUOUS
10
172.0231890000000021
20
-63.0113219999999998
11
172.0240049999999883
21
-63.0154269999999954
0
LINE
8
BLACK
6
CONTINUOUS
10
172.0240049999999883
20
-63.0154269999999954
11
172.0247770000000003
21
-63.0169349999999966
0
LINE
8
BLACK
6
CONTINUOUS
10
172.0247770000000003
20
-63.0169349999999966
11
172.0245689999999854
21
-63.0182609999999954
0
LINE
8
BLACK
6
CONTINUOUS
10
172.0245689999999854
20
-63.0182609999999954
11
172.0250920000000008
21
-63.0208889999999968
0
LINE
8
BLACK
6
CONTINUOUS
10
172.0250920000000008
20
-63.0208889999999968
11
172.0250000000000057
21
-90.2749999999999915
0
LINE
8
BLACK
6
CONTINUOUS
10
172.0250000000000057
20
-90.2749999999999915
11
178.
21
-90.2749999999999915
0
LINE
8
BLACK
6
CONTINUOUS
10
178.
20
-90.2749999999999915
11
178.0095670000000041
21
-90.2769029999999901
0
LINE
8
BLACK
6
CONTINUOUS
10
178.0095670000000041
20
-90.2769029999999901
11
178.0230969999999786
21
-90.2904329999999931
0
LINE
8
BLACK
6
CONTINUOUS
10
178.0230969999999786
20
-90.2904329999999931
11
178.0250000000000057
21
-90.2999999999999972
0
LINE
8
BLACK
6
CONTINUOUS
10
178.0250000000000057
20
-90.2999999999999972
11
178.0250000000000057
21
-106.5
0
LINE
8
BLACK
6
CONTINUOUS
10
178.0250000000000057
20
-106.5
11
178.023775999999998
21
-106.5061529999999976
0
LINE
8
BLACK
6
CONTINUOUS
10
178.023775999999998
20
-106.5061529999999976
11
178.023775999999998
21
-106.5077249999999935
0
LINE
8
BLACK
6
CONTINUOUS
10
178.023775999999998
20
-106.5077249999999935
11
178.0233449999999777
21
-106.508316999999991
0
LINE
8
BLACK
6
CONTINUOUS
10
178.0233449999999777
20
-106.508316999999991
11
178.0230969999999786
21
-106.5095669999999899
0
LINE
8
BLACK
6
CONTINUOUS
10
178.0230969999999786
20
-106.5095669999999899
11
178.020686999999981
21
-106.51197599999999
0
LINE
8
BLACK
6
CONTINUOUS
10
178.020686999999981
20
-106.51197599999999
11
178.014694999999989
21
-106.5202249999999964
0
LINE
8
BLACK
6
CONTINUOUS
10
178.014694999999989
20
-106.5202249999999964
11
178.0113529999999855
21
-106.5213099999999997
0
LINE
8
BLACK
6
CONTINUOUS
10
178.0113529999999855
20
-106.5213099999999997
11
178.0095670000000041
21
-106.5230969999999928
0
LINE
8
BLACK
6
CONTINUOUS
10
178.0095670000000041
20
-106.5230969999999928
11
178.0058559999999943
21
-106.5230969999999928
0
LINE
8
BLACK
6
CONTINUOUS
10
178.0058559999999943
20
-106.5230969999999928
11
178.
21
-106.5249999999999915
0
LINE
8
BLACK
6
CONTINUOUS
10
178.
20
-106.5249999999999915
11
177.7225569999999948
21
-106.5249999999999915
0
LINE
8
BLACK
6
CONTINUOUS
10
177.7225569999999948
20
-106.5249999999999915
11
177.1688599999999951
21
-106.5612909999999971
0
LINE
8
BLACK
6
CONTINUOUS
10
177.1688599999999951
20
-106.5612909999999971
11
176.6187209999999936
21
-106.6337180000000018
0
LINE
8
BLACK
6
CONTINUOUS
10
176.6187209999999936
20
-106.6337180000000018
11
176.0744980000000055
21
-106.7419709999999924
0
LINE
8
BLACK
6
CONTINUOUS
10
176.0744980000000055
20
-106.7419709999999924
11
175.5385189999999795
21
-106.8855859999999893
0
LINE
8
BLACK
6
CONTINUOUS
10
175.5385189999999795
20
-106.8855859999999893
11
175.0130819999999972
21
-107.0639479999999963
0
LINE
8
BLACK
6
CONTINUOUS
10
175.0130819999999972
20
-107.0639479999999963
11
174.5004339999999843
21
-107.2762939999999929
0
LINE
8
BLACK
6
CONTINUOUS
10
174.5004339999999843
20
-107.2762939999999929
11
174.0027729999999906
21
-107.5217129999999912
0
LINE
8
BLACK
6
CONTINUOUS
10
174.0027729999999906
20
-107.5217129999999912
11
173.5222279999999841
21
-107.7991559999999964
0
LINE
8
BLACK
6
CONTINUOUS
10
173.5222279999999841
20
-107.7991559999999964
11
173.0608569999999986
21
-108.1074339999999978
0
LINE
8
BLACK
6
CONTINUOUS
10
173.0608569999999986
20
-108.1074339999999978
11
172.6206369999999879
21
-108.4452269999999885
0
LINE
8
BLACK
6
CONTINUOUS
10
172.6206369999999879
20
-108.4452269999999885
11
172.2034519999999986
21
-108.811087999999998
0
LINE
8
BLACK
6
CONTINUOUS
10
172.2034519999999986
20
-108.811087999999998
11
171.8110879999999838
21
-109.2034519999999986
0
LINE
8
BLACK
6
CONTINUOUS
10
171.8110879999999838
20
-109.2034519999999986
11
171.4452269999999885
21
-109.6206370000000021
0
LINE
8
BLACK
6
CONTINUOUS
10
171.4452269999999885
20
-109.6206370000000021
11
171.1074339999999836
21
-110.0608569999999986
0
LINE
8
BLACK
6
CONTINUOUS
10
171.1074339999999836
20
-110.0608569999999986
11
170.7991559999999822
21
-110.5222279999999984
0
LINE
8
BLACK
6
CONTINUOUS
10
170.7991559999999822
20
-110.5222279999999984
11
170.5217130000000054
21
-111.0027729999999906
0
LINE
8
BLACK
6
CONTINUOUS
10
170.5217130000000054
20
-111.0027729999999906
11
170.2762939999999787
21
-111.5004339999999985
0
LINE
8
BLACK
6
CONTINUOUS
10
170.2762939999999787
20
-111.5004339999999985
11
170.0639479999999821
21
-112.0130819999999972
0
LINE
8
BLACK
6
CONTINUOUS
10
170.0639479999999821
20
-112.0130819999999972
11
169.8855859999999893
21
-112.5385189999999938
0
LINE
8
BLACK
6
CONTINUOUS
10
169.8855859999999893
20
-112.5385189999999938
11
169.7419709999999782
21
-113.0744979999999913
0
LINE
8
BLACK
6
CONTINUOUS
10
169.7419709999999782
20
-113.0744979999999913
11
169.6337179999999876
21
-113.6187209999999936
0
LINE
8
BLACK
6
CONTINUOUS
10
169.6337179999999876
20
-113.6187209999999936
11
169.5612909999999829
21
-114.1688599999999951
0
LINE
8
BLACK
6
CONTINUOUS
10
169.5612909999999829
20
-114.1688599999999951
11
169.5250000000000057
21
-114.7225569999999948
0
LINE
8
BLACK
6
CONTINUOUS
10
169.5250000000000057
20
-114.7225569999999948
11
169.5250000000000057
21
-115.
0
LINE
8
BLACK
6
CONTINUOUS
10
169.5250000000000057
20
-115.
11
169.5230969999999786
21
-115.0058559999999943
0
LINE
8
BLACK
6
CONTINUOUS
10
169.5230969999999786
20
-115.0058559999999943
11
169.5230969999999786
21
-115.0095669999999899
0
LINE
8
BLACK
6
CONTINUOUS
10
169.5230969999999786
20
-115.0095669999999899
11
169.5213099999999997
21
-115.0113529999999997
0
LINE
8
BLACK
6
CONTINUOUS
10
169.5213099999999997
20
-115.0113529999999997
11
169.5202249999999822
21
-115.014694999999989
0
LINE
8
BLACK
6
CONTINUOUS
10
169.5202249999999822
20
-115.014694999999989
11
169.5119760000000042
21
-115.0206869999999952
0
LINE
8
BLACK
6
CONTINUOUS
10
169.5119760000000042
20
-115.0206869999999952
11
169.5095670000000041
21
-115.0230969999999928
0
LINE
8
BLACK
6
CONTINUOUS
10
169.5095670000000041
20
-115.0230969999999928
11
169.5083170000000052
21
-115.023344999999992
0
LINE
8
BLACK
6
CONTINUOUS
10
169.5083170000000052
20
-115.023344999999992
11
169.5077249999999935
21
-115.023775999999998
0
LINE
8
BLACK
6
CONTINUOUS
10
169.5077249999999935
20
-115.023775999999998
11
169.5061529999999834
21
-115.023775999999998
0
LINE
8
BLACK
6
CONTINUOUS
10
169.5061529999999834
20
-115.023775999999998
11
169.5
21
-115.0249999999999915
0
LINE
8
BLACK
6
CONTINUOUS
10
169.5
20
-115.0249999999999915
11
97.5
21
-115.0249999999999915
0
LINE
8
BLACK
6
CONTINUOUS
10
97.5
20
-115.0249999999999915
11
97.4938470000000024
21
-115.023775999999998
0
LINE
8
BLACK
6
CONTINUOUS
10
97.4938470000000024
20
-115.023775999999998
11
97.4922749999999922
21
-115.023775999999998
0
LINE
8
BLACK
6
CONTINUOUS
10
97.4922749999999922
20
-115.023775999999998
11
97.4916819999999973
21
-115.023344999999992
0
LINE
8
BLACK
6
CONTINUOUS
10
97.4916819999999973
20
-115.023344999999992
11
97.4904329999999959
21
-115.0230969999999928
0
LINE
8
BLACK
6
CONTINUOUS
10
97.4904329999999959
20
-115.0230969999999928
11
97.4880229999999983
21
-115.0206869999999952
0
LINE
8
BLACK
6
CONTINUOUS
10
97.4880229999999983
20
-115.0206869999999952
11
97.4797749999999894
21
-115.014694999999989
0
LINE
8
BLACK
6
CONTINUOUS
10
97.4797749999999894
20
-115.014694999999989
11
97.4786889999999886
21
-115.0113529999999997
0
LINE
8
BLACK
6
CONTINUOUS
10
97.4786889999999886
20
-115.0113529999999997
11
97.476902999999993
21
-115.0095669999999899
0
LINE
8
BLACK
6
CONTINUOUS
10
97.476902999999993
20
-115.0095669999999899
11
97.476902999999993
21
-115.0058559999999943
0
LINE
8
BLACK
6
CONTINUOUS
10
97.476902999999993
20
-115.0058559999999943
11
97.4749999999999943
21
-115.
0
LINE
8
BLACK
6
CONTINUOUS
10
97.4749999999999943
20
-115.
11
97.4749999999999943
21
-114.7225569999999948
0
LINE
8
BLACK
6
CONTINUOUS
10
97.4749999999999943
20
-114.7225569999999948
11
97.4387089999999887
21
-114.1688599999999951
0
LINE
8
BLACK
6
CONTINUOUS
10
97.4387089999999887
20
-114.1688599999999951
11
97.3662819999999982
21
-113.6187209999999936
0
LINE
8
BLACK
6
CONTINUOUS
10
97.3662819999999982
20
-113.6187209999999936
11
97.2580289999999934
21
-113.0744979999999913
0
LINE
8
BLACK
6
CONTINUOUS
10
97.2580289999999934
20
-113.0744979999999913
11
97.1144139999999965
21
-112.5385189999999938
0
LINE
8
BLACK
6
CONTINUOUS
10
97.1144139999999965
20
-112.5385189999999938
11
96.9360519999999894
21
-112.0130819999999972
0
LINE
8
BLACK
6
CONTINUOUS
10
96.9360519999999894
20
-112.0130819999999972
11
96.7237059999999929
21
-111.5004339999999985
0
LINE
8
BLACK
6
CONTINUOUS
10
96.7237059999999929
20
-111.5004339999999985
11
96.4782869999999946
21
-111.0027729999999906
0
LINE
8
BLACK
6
CONTINUOUS
10
96.4782869999999946
20
-111.0027729999999906
11
96.2008439999999894
21
-110.5222279999999984
0
LINE
8
BLACK
6
CONTINUOUS
10
96.2008439999999894
20
-110.5222279999999984
11
95.8925660000000022
21
-110.0608569999999986
0
LINE
8
BLACK
6
CONTINUOUS
10
95.8925660000000022
20
-110.0608569999999986
11
95.5547729999999973
21
-109.6206370000000021
0
LINE
8
BLACK
6
CONTINUOUS
10
95.5547729999999973
20
-109.6206370000000021
11
95.188912000000002
21
-109.2034519999999986
0
LINE
8
BLACK
6
CONTINUOUS
10
95.188912000000002
20
-109.2034519999999986
11
94.7965480000000014
21
-108.811087999999998
0
LINE
8
BLACK
6
CONTINUOUS
10
94.7965480000000014
20
-108.811087999999998
11
94.3793629999999979
21
-108.4452269999999885
0
LINE
8
BLACK
6
CONTINUOUS
10
94.3793629999999979
20
-108.4452269999999885
11
93.9391430000000014
21
-108.1074339999999978
0
LINE
8
BLACK
6
CONTINUOUS
10
93.9391430000000014
20
-108.1074339999999978
11
93.4777720000000016
21
-107.7991559999999964
0
LINE
8
BLACK
6
CONTINUOUS
10
93.4777720000000016
20
-107.7991559999999964
11
92.9972269999999952
21
-107.5217129999999912
0
LINE
8
BLACK
6
CONTINUOUS
10
92.9972269999999952
20
-107.5217129999999912
11
92.4995660000000015
21
-107.2762939999999929
0
LINE
8
BLACK
6
CONTINUOUS
10
92.4995660000000015
20
-107.2762939999999929
11
91.9869180000000028
21
-107.0639479999999963
0
LINE
8
BLACK
6
CONTINUOUS
10
91.9869180000000028
20
-107.0639479999999963
11
91.461480999999992
21
-106.8855859999999893
0
LINE
8
BLACK
6
CONTINUOUS
10
91.461480999999992
20
-106.8855859999999893
11
90.9255019999999945
21
-106.7419709999999924
0
LINE
8
BLACK
6
CONTINUOUS
10
90.9255019999999945
20
-106.7419709999999924
11
90.3812789999999922
21
-106.6337180000000018
0
LINE
8
BLACK
6
CONTINUOUS
10
90.3812789999999922
20
-106.6337180000000018
11
89.8311399999999907
21
-106.5612909999999971
0
LINE
8
BLACK
6
CONTINUOUS
10
89.8311399999999907
20
-106.5612909999999971
11
89.277442999999991
21
-106.5249999999999915
0
LINE
8
BLACK
6
CONTINUOUS
10
89.277442999999991
20
-106.5249999999999915
11
89.
21
-106.5249999999999915
0
LINE
8
BLACK
6
CONTINUOUS
10
89.
20
-106.5249999999999915
11
88.9941439999999915
21
-106.5230969999999928
0
LINE
8
BLACK
6
CONTINUOUS
10
88.9941439999999915
20
-106.5230969999999928
11
88.9904329999999959
21
-106.5230969999999928
0
LINE
8
BLACK
6
CONTINUOUS
10
88.9904329999999959
20
-106.5230969999999928
11
88.9886460000000028
21
-106.5213099999999997
0
LINE
8
BLACK
6
CONTINUOUS
10
88.9886460000000028
20
-106.5213099999999997
11
88.9853049999999968
21
-106.5202249999999964
0
LINE
8
BLACK
6
CONTINUOUS
10
88.9853049999999968
20
-106.5202249999999964
11
88.9793119999999931
21
-106.51197599999999
0
LINE
8
BLACK
6
CONTINUOUS
10
88.9793119999999931
20
-106.51197599999999
11
88.976902999999993
21
-106.5095669999999899
0
LINE
8
BLACK
6
CONTINUOUS
10
88.976902999999993
20
-106.5095669999999899
11
88.9766539999999964
21
-106.508316999999991
0
LINE
8
BLACK
6
CONTINUOUS
10
88.9766539999999964
20
-106.508316999999991
11
88.976224000000002
21
-106.5077249999999935
0
LINE
8
BLACK
6
CONTINUOUS
10
88.976224000000002
20
-106.5077249999999935
11
88.976224000000002
21
-106.5061529999999976
0
LINE
8
BLACK
6
CONTINUOUS
10
88.976224000000002
20
-106.5061529999999976
11
88.9749999999999943
21
-106.5
0
LINE
8
BLACK
6
CONTINUOUS
10
88.9749999999999943
20
-106.5
11
88.9749999999999943
21
-65.5
0
LINE
8
BLACK
6
CONTINUOUS
10
88.9749999999999943
20
-65.5
11
88.976224000000002
21
-65.4938459999999907
0
LINE
8
BLACK
6
CONTINUOUS
10
88.976224000000002
20
-65.4938459999999907
11
88.976224000000002
21
-65.4922749999999922
0
LINE
8
BLACK
6
CONTINUOUS
10
88.976224000000002
20
-65.4922749999999922
11
88.9766539999999964
21
-65.4916819999999973
0
LINE
8
BLACK
6
CONTINUOUS
10
88.9766539999999964
20
-65.4916819999999973
11
88.976902999999993
21
-65.4904329999999959
0
LINE
8
BLACK
6
CONTINUOUS
10
88.976902999999993
20
-65.4904329999999959
11
88.9793119999999931
21
-65.4880229999999983
0
LINE
8
BLACK
6
CONTINUOUS
10
88.9793119999999931
20
-65.4880229999999983
11
88.9853049999999968
21
-65.4797750000000036
0
LINE
8
BLACK
6
CONTINUOUS
10
88.9853049999999968
20
-65.4797750000000036
11
88.9886460000000028
21
-65.4786890000000028
0
LINE
8
BLACK
6
CONTINUOUS
10
88.9886460000000028
20
-65.4786890000000028
11
88.9904329999999959
21
-65.476902999999993
0
LINE
8
BLACK
6
CONTINUOUS
10
88.9904329999999959
20
-65.476902999999993
11
88.9941439999999915
21
-65.476902999999993
0
LINE
8
BLACK
6
CONTINUOUS
10
88.9941439999999915
20
-65.476902999999993
11
89.
21
-65.4749999999999943
0
LINE
8
BLACK
6
CONTINUOUS
10
89.
20
-65.4749999999999943
11
89.277442999999991
21
-65.4749999999999943
0
LINE
8
BLACK
6
CONTINUOUS
10
89.277442999999991
20
-65.4749999999999943
11
89.8311399999999907
21
-65.4387090000000029
0
LINE
8
BLACK
6
CONTINUOUS
10
89.8311399999999907
20
-65.4387090000000029
11
90.3812789999999922
21
-65.3662819999999982
0
LINE
8
BLACK
6
CONTINUOUS
10
90.3812789999999922
20
-65.3662819999999982
11
90.9255019999999945
21
-65.2580289999999934
0
LINE
8
BLACK
6
CONTINUOUS
10
90.9255019999999945
20
-65.2580289999999934
11
91.461480999999992
21
-65.1144139999999965
0
LINE
8
BLACK
6
CONTINUOUS
10
91.461480999999992
20
-65.1144139999999965
11
91.9869180000000028
21
-64.9360520000000037
0
LINE
8
BLACK
6
CONTINUOUS
10
91.9869180000000028
20
-64.9360520000000037
11
92.4995660000000015
21
-64.7237059999999929
0
LINE
8
BLACK
6
CONTINUOUS
10
92.4995660000000015
20
-64.7237059999999929
11
92.9972269999999952
21
-64.4782869999999946
0
LINE
8
BLACK
6
CONTINUOUS
10
92.9972269999999952
20
-64.4782869999999946
11
93.4777720000000016
21
-64.2008440000000036
0
LINE
8
BLACK
6
CONTINUOUS
10
93.4777720000000016
20
-64.2008440000000036
11
93.9391430000000014
21
-63.8925659999999951
0
LINE
8
BLACK
6
CONTINUOUS
10
93.9391430000000014
20
-63.8925659999999951
11
94.3793629999999979
21
-63.5547729999999973
0
LINE
8
BLACK
6
CONTINUOUS
10
94.3793629999999979
20
-63.5547729999999973
11
94.7965480000000014
21
-63.1889119999999949
0
LINE
8
BLACK
6
CONTINUOUS
10
94.7965480000000014
20
-63.1889119999999949
11
95.188912000000002
21
-62.7965479999999943
0
LINE
8
BLACK
6
CONTINUOUS
10
95.188912000000002
20
-62.7965479999999943
11
95.5547729999999973
21
-62.3793629999999979
0
LINE
8
BLACK
6
CONTINUOUS
10
95.5547729999999973
20
-62.3793629999999979
11
95.8925660000000022
21
-61.9391429999999943
0
LINE
8
BLACK
6
CONTINUOUS
10
95.8925660000000022
20
-61.9391429999999943
11
96.2008439999999894
21
-61.4777719999999945
0
LINE
8
BLACK
6
CONTINUOUS
10
96.2008439999999894
20
-61.4777719999999945
11
96.4782869999999946
21
-60.9972269999999952
0
LINE
8
BLACK
6
CONTINUOUS
10
96.4782869999999946
20
-60.9972269999999952
11
96.7237059999999929
21
-60.4995659999999944
0
LINE
8
BLACK
6
CONTINUOUS
10
96.7237059999999929
20
-60.4995659999999944
11
96.9360519999999894
21
-59.9869179999999957
0
LINE
8
BLACK
6
CONTINUOUS
10
96.9360519999999894
20
-59.9869179999999957
11
97.1144139999999965
21
-59.4614809999999991
0
LINE
8
BLACK
6
CONTINUOUS
10
97.1144139999999965
20
-59.4614809999999991
11
97.2580289999999934
21
-58.9255019999999945
0
LINE
8
BLACK
6
CONTINUOUS
10
97.2580289999999934
20
-58.9255019999999945
11
97.3662819999999982
21
-58.3812789999999993
0
LINE
8
BLACK
6
CONTINUOUS
10
97.3662819999999982
20
-58.3812789999999993
11
97.4387089999999887
21
-57.8311399999999978
0
LINE
8
BLACK
6
CONTINUOUS
10
97.4387089999999887
20
-57.8311399999999978
11
97.4749999999999943
21
-57.2774429999999981
0
LINE
8
BLACK
6
CONTINUOUS
10
97.4749999999999943
20
-57.2774429999999981
11
97.4749999999999943
21
-57.
0
LINE
8
BLACK
6
CONTINUOUS
10
97.4749999999999943
20
-57.
11
97.476902999999993
21
-56.994142999999994
0
LINE
8
BLACK
6
CONTINUOUS
10
97.476902999999993
20
-56.994142999999994
11
97.476902999999993
21
-56.9904329999999959
0
LINE
8
BLACK
6
CONTINUOUS
10
97.476902999999993
20
-56.9904329999999959
11
97.4786889999999886
21
-56.9886459999999957
0
LINE
8
BLACK
6
CONTINUOUS
10
97.4786889999999886
20
-56.9886459999999957
11
97.4797749999999894
21
-56.9853049999999968
0
LINE
8
BLACK
6
CONTINUOUS
10
97.4797749999999894
20
-56.9853049999999968
11
97.4880229999999983
21
-56.9793120000000002
0
LINE
8
BLACK
6
CONTINUOUS
10
97.4880229999999983
20
-56.9793120000000002
11
97.4904329999999959
21
-56.9769030000000001
0
LINE
8
BLACK
6
CONTINUOUS
10
97.4904329999999959
20
-56.9769030000000001
11
97.4916819999999973
21
-56.9766539999999964
0
LINE
8
BLACK
6
CONTINUOUS
10
97.4916819999999973
20
-56.9766539999999964
11
97.4922749999999922
21
-56.9762239999999949
0
LINE
8
BLACK
6
CONTINUOUS
10
97.4922749999999922
20
-56.9762239999999949
11
97.4938470000000024
21
-56.9762239999999949
0
LINE
8
BLACK
6
CONTINUOUS
10
97.4938470000000024
20
-56.9762239999999949
11
97.5
21
-56.9749999999999943
0
LINE
8
BLACK
6
CONTINUOUS
10
97.5
20
-56.9749999999999943
11
169.5
21
-56.9749999999999943
0
LINE
8
BLACK
6
CONTINUOUS
10
169.5
20
-56.9749999999999943
11
169.5061529999999834
21
-56.9762239999999949
0
LINE
8
BLACK
6
CONTINUOUS
10
97.5241819999999962
20
-57.0249999999999986
11
97.5067469999999901
21
-57.5575619999999972
0
LINE
8
BLACK
6
CONTINUOUS
10
97.5067469999999901
20
-57.5575619999999972
11
97.4520669999999996
21
-58.1127359999999982
0
LINE
8
BLACK
6
CONTINUOUS
10
97.4520669999999996
20
-58.1127359999999982
11
97.361194999999995
21
-58.6631450000000001
0
LINE
8
BLACK
6
CONTINUOUS
10
97.361194999999995
20
-58.6631450000000001
11
97.2345179999999942
21
-59.2064319999999995
0
LINE
8
BLACK
6
CONTINUOUS
10
97.2345179999999942
20
-59.2064319999999995
11
97.0725789999999904
21
-59.7402709999999999
0
LINE
8
BLACK
6
CONTINUOUS
10
97.0725789999999904
20
-59.7402709999999999
11
96.876072999999991
21
-60.2623759999999962
0
LINE
8
BLACK
6
CONTINUOUS
10
96.876072999999991
20
-60.2623759999999962
11
96.6458399999999926
21
-60.7705109999999991
0
LINE
8
BLACK
6
CONTINUOUS
10
96.6458399999999926
20
-60.7705109999999991
11
96.3828669999999903
21
-61.2624999999999957
0
LINE
8
BLACK
6
CONTINUOUS
10
96.3828669999999903
20
-61.2624999999999957
11
96.0882780000000025
21
-61.7362359999999981
0
LINE
8
BLACK
6
CONTINUOUS
10
96.0882780000000025
20
-61.7362359999999981
11
95.7633369999999928
21
-62.1896909999999963
0
LINE
8
BLACK
6
CONTINUOUS
10
95.7633369999999928
20
-62.1896909999999963
11
95.4094339999999903
21
-62.6209229999999977
0
LINE
8
BLACK
6
CONTINUOUS
10
95.4094339999999903
20
-62.6209229999999977
11
95.0280849999999901
21
-63.0280849999999973
0
LINE
8
BLACK
6
CONTINUOUS
10
95.0280849999999901
20
-63.0280849999999973
11
94.6209229999999906
21
-63.4094339999999974
0
LINE
8
BLACK
6
CONTINUOUS
10
94.6209229999999906
20
-63.4094339999999974
11
94.1896909999999963
21
-63.7633369999999999
0
LINE
8
BLACK
6
CONTINUOUS
10
94.1896909999999963
20
-63.7633369999999999
11
93.736235999999991
21
-64.0882780000000025
0
LINE
8
BLACK
6
CONTINUOUS
10
93.736235999999991
20
-64.0882780000000025
11
93.2625000000000028
21
-64.3828669999999903
0
LINE
8
BLACK
6
CONTINUOUS
10
93.2625000000000028
20
-64.3828669999999903
11
92.7705109999999991
21
-64.6458399999999926
0
LINE
8
BLACK
6
CONTINUOUS
10
92.7705109999999991
20
-64.6458399999999926
11
92.2623759999999891
21
-64.876072999999991
0
LINE
8
BLACK
6
CONTINUOUS
10
92.2623759999999891
20
-64.876072999999991
11
91.7402709999999928
21
-65.0725789999999904
0
LINE
8
BLACK
6
CONTINUOUS
10
91.7402709999999928
20
-65.0725789999999904
11
91.2064319999999924
21
-65.2345179999999942
0
LINE
8
BLACK
6
CONTINUOUS
10
91.2064319999999924
20
-65.2345179999999942
11
90.6631450000000001
21
-65.361194999999995
0
LINE
8
BLACK
6
CONTINUOUS
10
90.6631450000000001
20
-65.361194999999995
11
90.1127359999999982
21
-65.4520669999999996
0
LINE
8
BLACK
6
CONTINUOUS
10
90.1127359999999982
20
-65.4520669999999996
11
89.5575619999999901
21
-65.5067469999999901
0
LINE
8
BLACK
6
CONTINUOUS
10
89.5575619999999901
20
-65.5067469999999901
11
89.0249999999999915
21
-65.5241809999999987
0
LINE
8
BLACK
6
CONTINUOUS
10
89.0249999999999915
20
-65.5241809999999987
11
89.0249999999999915
21
-106.4758179999999896
0
LINE
8
BLACK
6
CONTINUOUS
10
89.0249999999999915
20
-106.4758179999999896
11
89.5575619999999901
21
-106.4932529999999957
0
LINE
8
BLACK
6
CONTINUOUS
10
89.5575619999999901
20
-106.4932529999999957
11
90.1127359999999982
21
-106.5479330000000004
0
LINE
8
BLACK
6
CONTINUOUS
10
90.1127359999999982
20
-106.5479330000000004
11
90.6631450000000001
21
-106.6388049999999907
0
LINE
8
BLACK
6
CONTINUOUS
10
90.6631450000000001
20
-106.6388049999999907
11
91.2064319999999924
21
-106.7654819999999916
0
LINE
8
BLACK
6
CONTINUOUS
10
91.2064319999999924
20
-106.7654819999999916
11
91.7402709999999928
21
-106.9274209999999954
0
LINE
8
BLACK
6
CONTINUOUS
10
91.7402709999999928
20
-106.9274209999999954
11
92.2623759999999891
21
-107.1239269999999948
0
LINE
8
BLACK
6
CONTINUOUS
10
92.2623759999999891
20
-107.1239269999999948
11
92.7705109999999991
21
-107.3541599999999931
0
LINE
8
BLACK
6
CONTINUOUS
10
92.7705109999999991
20
-107.3541599999999931
11
93.2625000000000028
21
-107.6171329999999955
0
LINE
8
BLACK
6
CONTINUOUS
10
93.2625000000000028
20
-107.6171329999999955
11
93.736235999999991
21
-107.9117219999999975
0
LINE
8
BLACK
6
CONTINUOUS
10
93.736235999999991
20
-107.9117219999999975
11
94.1896909999999963
21
-108.236662999999993
0
LINE
8
BLACK
6
CONTINUOUS
10
94.1896909999999963
20
-108.236662999999993
11
94.6209229999999906
21
-108.5905659999999955
0
LINE
8
BLACK
6
CONTINUOUS
10
94.6209229999999906
20
-108.5905659999999955
11
95.0280849999999901
21
-108.9719149999999956
0
LINE
8
BLACK
6
CONTINUOUS
10
95.0280849999999901
20
-108.9719149999999956
11
95.4094339999999903
21
-109.3790769999999952
0
LINE
8
BLACK
6
CONTINUOUS
10
95.4094339999999903
20
-109.3790769999999952
11
95.7633369999999928
21
-109.8103089999999895
0
LINE
8
BLACK
6
CONTINUOUS
10
95.7633369999999928
20
-109.8103089999999895
11
96.0882780000000025
21
-110.2637639999999948
0
LINE
8
BLACK
6
CONTINUOUS
10
96.0882780000000025
20
-110.2637639999999948
11
96.3828669999999903
21
-110.7374999999999972
0
LINE
8
BLACK
6
CONTINUOUS
10
96.3828669999999903
20
-110.7374999999999972
11
96.6458399999999926
21
-111.2294890000000009
0
LINE
8
BLACK
6
CONTINUOUS
10
96.6458399999999926
20
-111.2294890000000009
11
96.876072999999991
21
-111.7376239999999967
0
LINE
8
BLACK
6
CONTINUOUS
10
96.876072999999991
20
-111.7376239999999967
11
97.0725789999999904
21
-112.259728999999993
0
LINE
8
BLACK
6
CONTINUOUS
10
97.0725789999999904
20
-112.259728999999993
11
97.2345179999999942
21
-112.7935679999999934
0
LINE
8
BLACK
6
CONTINUOUS
10
97.2345179999999942
20
-112.7935679999999934
11
97.361194999999995
21
-113.3368549999999999
0
LINE
8
BLACK
6
CONTINUOUS
10
97.361194999999995
20
-113.3368549999999999
11
97.4520669999999996
21
-113.8872640000000018
0
LINE
8
BLACK
6
CONTINUOUS
10
97.4520669999999996
20
-113.8872640000000018
11
97.5067469999999901
21
-114.4424379999999957
0
LINE
8
BLACK
6
CONTINUOUS
10
97.5067469999999901
20
-114.4424379999999957
11
97.5241819999999962
21
-114.9749999999999943
0
LINE
8
BLACK
6
CONTINUOUS
10
97.5241819999999962
20
-114.9749999999999943
11
169.4758180000000038
21
-114.9749999999999943
0
LINE
8
BLACK
6
CONTINUOUS
10
169.4758180000000038
20
-114.9749999999999943
11
169.4932529999999815
21
-114.4424379999999957
0
LINE
8
BLACK
6
CONTINUOUS
10
169.4932529999999815
20
-114.4424379999999957
11
169.5479330000000004
21
-113.8872640000000018
0
LINE
8
BLACK
6
CONTINUOUS
10
169.5479330000000004
20
-113.8872640000000018
11
169.6388049999999907
21
-113.3368549999999999
0
LINE
8
BLACK
6
CONTINUOUS
10
169.6388049999999907
20
-113.3368549999999999
11
169.7654819999999916
21
-112.7935679999999934
0
LINE
8
BLACK
6
CONTINUOUS
10
169.7654819999999916
20
-112.7935679999999934
11
169.9274209999999812
21
-112.259728999999993
0
LINE
8
BLACK
6
CONTINUOUS
10
169.9274209999999812
20
-112.259728999999993
11
170.1239269999999806
21
-111.7376239999999967
0
LINE
8
BLACK
6
CONTINUOUS
10
170.1239269999999806
20
-111.7376239999999967
11
170.3541599999999789
21
-111.2294890000000009
0
LINE
8
BLACK
6
CONTINUOUS
10
170.3541599999999789
20
-111.2294890000000009
11
170.6171329999999955
21
-110.7374999999999972
0
LINE
8
BLACK
6
CONTINUOUS
10
170.6171329999999955
20
-110.7374999999999972
11
170.9117219999999975
21
-110.2637639999999948
0
LINE
8
BLACK
6
CONTINUOUS
10
170.9117219999999975
20
-110.2637639999999948
11
171.236662999999993
21
-109.8103089999999895
0
LINE
8
BLACK
6
CONTINUOUS
10
171.236662999999993
20
-109.8103089999999895
11
171.5905659999999955
21
-109.3790769999999952
0
LINE
8
BLACK
6
CONTINUOUS
10
171.5905659999999955
20
-109.3790769999999952
11
171.9719149999999956
21
-108.9719149999999956
0
LINE
8
BLACK
6
CONTINUOUS
10
171.9719149999999956
20
-108.9719149999999956
11
172.3790769999999952
21
-108.5905659999999955
0
LINE
8
BLACK
6
CONTINUOUS
10
172.3790769999999952
20
-108.5905659999999955
11
172.8103089999999895
21
-108.236662999999993
0
LINE
8
BLACK
6
CONTINUOUS
10
172.8103089999999895
20
-108.236662999999993
11
173.2637639999999806
21
-107.9117219999999975
0
LINE
8
BLACK
6
CONTINUOUS
10
173.2637639999999806
20
-107.9117219999999975
11
173.7374999999999829
21
-107.6171329999999955
0
LINE
8
BLACK
6
CONTINUOUS
10
173.7374999999999829
20
-107.6171329999999955
11
174.2294890000000009
21
-107.3541599999999931
0
LINE
8
BLACK
6
CONTINUOUS
10
174.2294890000000009
20
-107.3541599999999931
11
174.7376239999999825
21
-107.1239269999999948
0
LINE
8
BLACK
6
CONTINUOUS
10
174.7376239999999825
20
-107.1239269999999948
11
175.259728999999993
21
-106.9274209999999954
0
LINE
8
BLACK
6
CONTINUOUS
10
175.259728999999993
20
-106.9274209999999954
11
175.7935679999999934
21
-106.7654819999999916
0
LINE
8
BLACK
6
CONTINUOUS
10
175.7935679999999934
20
-106.7654819999999916
11
176.3368549999999857
21
-106.6388049999999907
0
LINE
8
BLACK
6
CONTINUOUS
10
176.3368549999999857
20
-106.6388049999999907
11
176.8872639999999876
21
-106.5479330000000004
0
LINE
8
BLACK
6
CONTINUOUS
10
176.8872639999999876
20
-106.5479330000000004
11
177.4424379999999815
21
-106.4932529999999957
0
LINE
8
BLACK
6
CONTINUOUS
10
177.4424379999999815
20
-106.4932529999999957
11
177.9749999999999943
21
-106.4758179999999896
0
LINE
8
BLACK
6
CONTINUOUS
10
177.9749999999999943
20
-106.4758179999999896
11
177.9749999999999943
21
-90.3250000000000028
0
LINE
8
BLACK
6
CONTINUOUS
10
177.9749999999999943
20
-90.3250000000000028
11
172.
21
-90.3250000000000028
0
LINE
8
BLACK
6
CONTINUOUS
10
172.
20
-90.3250000000000028
11
171.9904329999999959
21
-90.32309699999999
0
LINE
8
BLACK
6
CONTINUOUS
10
171.9904329999999959
20
-90.32309699999999
11
171.976902999999993
21
-90.3095670000000013
0
LINE
8
BLACK
6
CONTINUOUS
10
171.976902999999993
20
-90.3095670000000013
11
171.9749999999999943
21
-90.2999999999999972
0
LINE
8
BLACK
6
CONTINUOUS
10
171.9749999999999943
20
-90.2999999999999972
11
171.9750909999999919
21
-63.0307719999999989
0
LINE
8
BLACK
6
CONTINUOUS
10
171.9750909999999919
20
-63.0307719999999989
11
171.5995669999999791
21
-62.6311709999999948
0
LINE
8
BLACK
6
CONTINUOUS
10
171.5995669999999791
20
-62.6311709999999948
11
171.2442179999999894
21
-62.1995229999999992
0
LINE
8
BLACK
6
CONTINUOUS
10
171.2442179999999894
20
-62.1995229999999992
11
170.9179279999999892
21
-61.7455110000000005
0
LINE
8
BLACK
6
CONTINUOUS
10
170.9179279999999892
20
-61.7455110000000005
11
170.622097999999994
21
-61.2710879999999989
0
LINE
8
BLACK
6
CONTINUOUS
10
170.622097999999994
20
-61.2710879999999989
11
170.3580029999999965
21
-60.7782939999999954
0
LINE
8
BLACK
6
CONTINUOUS
10
170.3580029999999965
20
-60.7782939999999954
11
170.1267770000000041
21
-60.2692479999999975
0
LINE
8
BLACK
6
CONTINUOUS
10
170.1267770000000041
20
-60.2692479999999975
11
169.9294160000000034
21
-59.7461409999999944
0
LINE
8
BLACK
6
CONTINUOUS
10
169.9294160000000034
20
-59.7461409999999944
11
169.7667669999999873
21
-59.2112229999999968
0
LINE
8
BLACK
6
CONTINUOUS
10
169.7667669999999873
20
-59.2112229999999968
11
169.6395320000000027
21
-58.6667929999999984
0
LINE
8
BLACK
6
CONTINUOUS
10
169.6395320000000027
20
-58.6667929999999984
11
169.5482569999999782
21
-58.1151939999999954
0
LINE
8
BLACK
6
CONTINUOUS
10
169.5482569999999782
20
-58.1151939999999954
11
169.4933340000000044
21
-57.5587990000000005
0
LINE
8
BLACK
6
CONTINUOUS
10
169.4933340000000044
20
-57.5587990000000005
11
169.4758199999999988
21
-57.0249999999999986
0
LINE
8
BLACK
6
CONTINUOUS
10
169.4758199999999988
20
-57.0249999999999986
11
97.5241819999999962
21
-57.0249999999999986
0
CIRCLE
8
BLACK
10
163.9904989999999998
20
-73.875
40
0.1
0
CIRCLE
8
BLACK
10
162.4654989999999941
20
-73.875
40
0.1
0
CIRCLE
8
BLACK
10
164.7529989999999884
20
-74.6375000000000028
40
0.1
0
CIRCLE
8
BLACK
10
163.2279989999999827
20
-74.6375000000000028
40
0.1
0
CIRCLE
8
BLACK
10
161.7029990000000055
20
-74.6375000000000028
40
0.1
0
CIRCLE
8
BLACK
10
163.9904989999999998
20
-75.3999999999999915
40
0.1
0
CIRCLE
8
BLACK
10
162.4654989999999941
20
-75.3999999999999915
40
0.1
0
CIRCLE
8
BLACK
10
164.7529989999999884
20
-76.1624999999999943
40
0.1
0
CIRCLE
8
BLACK
10
163.2279989999999827
20
-76.1624999999999943
40
0.1
0
CIRCLE
8
BLACK
10
161.7029990000000055
20
-76.1624999999999943
40
0.1
0
CIRCLE
8
BLACK
10
163.9904989999999998
20
-76.9249999999999972
40
0.1
0
CIRCLE
8
BLACK
10
162.4654989999999941
20
-76.9249999999999972
40
0.1
0
CIRCLE
8
BLACK
10
150.2999999999999829
20
-113.1899999999999977
40
0.5
0
CIRCLE
8
BLACK
10
147.7599999999999909
20
-113.1899999999999977
40
0.5
0
CIRCLE
8
BLACK
10
145.2199999999999989
20
-113.1899999999999977
40
0.5
0
CIRCLE
8
BLACK
10
174.5
20
-98.75
40
0.22
0
CIRCLE
8
BLACK
10
175.5
20
-98.0999999999999943
40
0.22
0
CIRCLE
8
BLACK
10
174.5
20
-97.4499999999999886
40
0.22
0
CIRCLE
8
BLACK
10
175.5
20
-96.7999999999999972
40
0.22
0
CIRCLE
8
BLACK
10
174.5
20
-96.1499999999999915
40
0.22
0
LINE
8
BLACK
6
CONTINUOUS
10
175.2541410000000042
20
-100.8533630000000016
11
175.3172249999999792
21
-100.8794929999999965
0
LINE
8
BLACK
6
CONTINUOUS
10
175.3172249999999792
20
-100.8794929999999965
11
175.3655069999999796
21
-100.9277749999999969
0
LINE
8
BLACK
6
CONTINUOUS
10
175.3655069999999796
20
-100.9277749999999969
11
175.3916370000000029
21
-100.9908590000000004
0
LINE
8
BLACK
6
CONTINUOUS
10
175.3916370000000029
20
-100.9908590000000004
11
175.3916370000000029
21
-101.0591409999999968
0
LINE
8
BLACK
6
CONTINUOUS
10
175.3916370000000029
20
-101.0591409999999968
11
175.3655069999999796
21
-101.1222250000000003
0
LINE
8
BLACK
6
CONTINUOUS
10
175.3655069999999796
20
-101.1222250000000003
11
175.3172249999999792
21
-101.1705070000000006
0
LINE
8
BLACK
6
CONTINUOUS
10
175.3172249999999792
20
-101.1705070000000006
11
175.2541410000000042
21
-101.1966369999999955
0
LINE
8
BLACK
6
CONTINUOUS
10
175.2541410000000042
20
-101.1966369999999955
11
175.2199999999999989
21
-101.1999999999999886
0
LINE
8
BLACK
6
CONTINUOUS
10
175.2199999999999989
20
-101.1999999999999886
11
174.2199999999999989
21
-101.1999999999999886
0
LINE
8
BLACK
6
CONTINUOUS
10
174.2199999999999989
20
-101.1999999999999886
11
174.1858589999999936
21
-101.1966369999999955
0
LINE
8
BLACK
6
CONTINUOUS
10
174.1858589999999936
20
-101.1966369999999955
11
174.1227749999999901
21
-101.1705070000000006
0
LINE
8
BLACK
6
CONTINUOUS
10
174.1227749999999901
20
-101.1705070000000006
11
174.0744929999999897
21
-101.1222250000000003
0
LINE
8
BLACK
6
CONTINUOUS
10
174.0744929999999897
20
-101.1222250000000003
11
174.0483629999999948
21
-101.0591409999999968
0
LINE
8
BLACK
6
CONTINUOUS
10
174.0483629999999948
20
-101.0591409999999968
11
174.0483629999999948
21
-100.9908590000000004
0
LINE
8
BLACK
6
CONTINUOUS
10
174.0483629999999948
20
-100.9908590000000004
11
174.0744929999999897
21
-100.9277749999999969
0
LINE
8
BLACK
6
CONTINUOUS
10
174.0744929999999897
20
-100.9277749999999969
11
174.1227749999999901
21
-100.8794929999999965
0
LINE
8
BLACK
6
CONTINUOUS
10
174.1227749999999901
20
-100.8794929999999965
11
174.1858589999999936
21
-100.8533630000000016
0
LINE
8
BLACK
6
CONTINUOUS
10
174.1858589999999936
20
-100.8533630000000016
11
174.2199999999999989
21
-100.8499999999999943
0
LINE
8
BLACK
6
CONTINUOUS
10
174.2199999999999989
20
-100.8499999999999943
11
175.2199999999999989
21
-100.8499999999999943
0
LINE
8
BLACK
6
CONTINUOUS
10
175.2199999999999989
20
-100.8499999999999943
11
175.2541410000000042
21
-100.8533630000000016
0
LINE
8
BLACK
6
CONTINUOUS
10
175.2541410000000042
20
-93.703362999999996
11
175.3172249999999792
21
-93.7294929999999908
0
LINE
8
BLACK
6
CONTINUOUS
10
175.3172249999999792
20
-93.7294929999999908
11
175.3655069999999796
21
-93.7777749999999912
0
LINE
8
BLACK
6
CONTINUOUS
10
175.3655069999999796
20
-93.7777749999999912
11
175.3916370000000029
21
-93.8408589999999947
0
LINE
8
BLACK
6
CONTINUOUS
10
175.3916370000000029
20
-93.8408589999999947
11
175.3916370000000029
21
-93.9091409999999911
0
LINE
8
BLACK
6
CONTINUOUS
10
175.3916370000000029
20
-93.9091409999999911
11
175.3655069999999796
21
-93.9722249999999946
0
LINE
8
BLACK
6
CONTINUOUS
10
175.3655069999999796
20
-93.9722249999999946
11
175.3172249999999792
21
-94.0205069999999949
0
LINE
8
BLACK
6
CONTINUOUS
10
175.3172249999999792
20
-94.0205069999999949
11
175.2541410000000042
21
-94.0466369999999898
0
LINE
8
BLACK
6
CONTINUOUS
10
175.2541410000000042
20
-94.0466369999999898
11
175.2199999999999989
21
-94.0499999999999972
0
LINE
8
BLACK
6
CONTINUOUS
10
175.2199999999999989
20
-94.0499999999999972
11
174.2199999999999989
21
-94.0499999999999972
0
LINE
8
BLACK
6
CONTINUOUS
10
174.2199999999999989
20
-94.0499999999999972
11
174.1858589999999936
21
-94.0466369999999898
0
LINE
8
BLACK
6
CONTINUOUS
10
174.1858589999999936
20
-94.0466369999999898
11
174.1227749999999901
21
-94.0205069999999949
0
LINE
8
BLACK
6
CONTINUOUS
10
174.1227749999999901
20
-94.0205069999999949
11
174.0744929999999897
21
-93.9722249999999946
0
LINE
8
BLACK
6
CONTINUOUS
10
174.0744929999999897
20
-93.9722249999999946
11
174.0483629999999948
21
-93.9091409999999911
0
LINE
8
BLACK
6
CONTINUOUS
10
174.0483629999999948
20
-93.9091409999999911
11
174.0483629999999948
21
-93.8408589999999947
0
LINE
8
BLACK
6
CONTINUOUS
10
174.0483629999999948
20
-93.8408589999999947
11
174.0744929999999897
21
-93.7777749999999912
0
LINE
8
BLACK
6
CONTINUOUS
10
174.0744929999999897
20
-93.7777749999999912
11
174.1227749999999901
21
-93.7294929999999908
0
LINE
8
BLACK
6
CONTINUOUS
10
174.1227749999999901
20
-93.7294929999999908
11
174.1858589999999936
21
-93.703362999999996
0
LINE
8
BLACK
6
CONTINUOUS
10
174.1858589999999936
20
-93.703362999999996
11
174.2199999999999989
21
-93.7000000000000028
0
LINE
8
BLACK
6
CONTINUOUS
10
174.2199999999999989
20
-93.7000000000000028
11
175.2199999999999989
21
-93.7000000000000028
0
LINE
8
BLACK
6
CONTINUOUS
10
175.2199999999999989
20
-93.7000000000000028
11
175.2541410000000042
21
-93.703362999999996
0
CIRCLE
8
BLACK
10
145.1749999999999829
20
-62.6749999999999972
40
0.5
0
CIRCLE
8
BLACK
10
145.1749999999999829
20
-60.134999999999998
40
0.5
0
CIRCLE
8
BLACK
10
147.7150000000000034
20
-62.6749999999999972
40
0.5
0
CIRCLE
8
BLACK
10
147.7150000000000034
20
-60.134999999999998
40
0.5
0
CIRCLE
8
BLACK
10
150.2549999999999955
20
-62.6749999999999972
40
0.5
0
CIRCLE
8
BLACK
10
150.2549999999999955
20
-60.134999999999998
40
0.5
0
CIRCLE
8
BLACK
10
152.7949999999999875
20
-62.6749999999999972
40
0.5
0
CIRCLE
8
BLACK
10
152.7949999999999875
20
-60.134999999999998
40
0.5
0
CIRCLE
8
BLACK
10
155.3349999999999795
20
-62.6749999999999972
40
0.5
0
CIRCLE
8
BLACK
10
155.3349999999999795
20
-60.134999999999998
40
0.5
0
CIRCLE
8
BLACK
10
157.875
20
-62.6749999999999972
40
0.5
0
CIRCLE
8
BLACK
10
157.875
20
-60.134999999999998
40
0.5
0
CIRCLE
8
BLACK
10
160.414999999999992
20
-62.6749999999999972
40
0.5
0
CIRCLE
8
BLACK
10
160.414999999999992
20
-60.134999999999998
40
0.5
0
CIRCLE
8
BLACK
10
162.9549999999999841
20
-62.6749999999999972
40
0.5
0
CIRCLE
8
BLACK
10
162.9549999999999841
20
-60.134999999999998
40
0.5
0
CIRCLE
8
BLACK
10
165.4950000000000045
20
-62.6749999999999972
40
0.5
0
CIRCLE
8
BLACK
10
165.4950000000000045
20
-60.134999999999998
40
0.5
0
CIRCLE
8
BLACK
10
168.0349999999999966
20
-62.6749999999999972
40
0.5
0
CIRCLE
8
BLACK
10
168.0349999999999966
20
-60.134999999999998
40
0.5
0
LINE
8
BLACK
6
CONTINUOUS
10
113.5323349999999891
20
-63.0265679999999975
11
113.6799099999999925
21
-63.2296879999999959
0
LINE
8
BLACK
6
CONTINUOUS
10
113.6799099999999925
20
-63.2296879999999959
11
113.7938919999999996
21
-63.4533909999999963
0
LINE
8
BLACK
6
CONTINUOUS
10
113.7938919999999996
20
-63.4533909999999963
11
113.8714769999999987
21
-63.6921729999999968
0
LINE
8
BLACK
6
CONTINUOUS
10
113.8714769999999987
20
-63.6921729999999968
11
113.9107529999999997
21
-63.9401499999999956
0
LINE
8
BLACK
6
CONTINUOUS
10
113.9107529999999997
20
-63.9401499999999956
11
113.9107529999999997
21
-64.1912200000000013
0
LINE
8
BLACK
6
CONTINUOUS
10
113.9107529999999997
20
-64.1912200000000013
11
113.8714769999999987
21
-64.439196999999993
0
LINE
8
BLACK
6
CONTINUOUS
10
113.8714769999999987
20
-64.439196999999993
11
113.7938919999999996
21
-64.6779789999999934
0
LINE
8
BLACK
6
CONTINUOUS
10
113.7938919999999996
20
-64.6779789999999934
11
113.6799099999999925
21
-64.9016829999999914
0
LINE
8
BLACK
6
CONTINUOUS
10
113.6799099999999925
20
-64.9016829999999914
11
113.5323349999999891
21
-65.1048019999999923
0
LINE
8
BLACK
6
CONTINUOUS
10
113.5323349999999891
20
-65.1048019999999923
11
113.3548019999999923
21
-65.2823350000000033
0
LINE
8
BLACK
6
CONTINUOUS
10
113.3548019999999923
20
-65.2823350000000033
11
113.1516829999999914
21
-65.4299099999999925
0
LINE
8
BLACK
6
CONTINUOUS
10
113.1516829999999914
20
-65.4299099999999925
11
112.9279789999999934
21
-65.5438919999999996
0
LINE
8
BLACK
6
CONTINUOUS
10
112.9279789999999934
20
-65.5438919999999996
11
112.689196999999993
21
-65.6214769999999987
0
LINE
8
BLACK
6
CONTINUOUS
10
112.689196999999993
20
-65.6214769999999987
11
112.4412200000000013
21
-65.6607529999999997
0
LINE
8
BLACK
6
CONTINUOUS
10
112.4412200000000013
20
-65.6607529999999997
11
112.1901499999999885
21
-65.6607529999999997
0
LINE
8
BLACK
6
CONTINUOUS
10
112.1901499999999885
20
-65.6607529999999997
11
111.9421729999999968
21
-65.6214769999999987
0
LINE
8
BLACK
6
CONTINUOUS
10
111.9421729999999968
20
-65.6214769999999987
11
111.7033909999999963
21
-65.5438919999999996
0
LINE
8
BLACK
6
CONTINUOUS
10
111.7033909999999963
20
-65.5438919999999996
11
111.4796879999999959
21
-65.4299099999999925
0
LINE
8
BLACK
6
CONTINUOUS
10
111.4796879999999959
20
-65.4299099999999925
11
111.2765679999999975
21
-65.2823350000000033
0
LINE
8
BLACK
6
CONTINUOUS
10
111.2765679999999975
20
-65.2823350000000033
11
111.1843140000000005
21
-65.1970560000000035
0
LINE
8
BLACK
6
CONTINUOUS
10
111.1843140000000005
20
-65.1970560000000035
11
110.0529439999999965
21
-64.0656859999999995
0
LINE
8
BLACK
6
CONTINUOUS
10
110.0529439999999965
20
-64.0656859999999995
11
109.9676649999999967
21
-63.9734319999999954
0
LINE
8
BLACK
6
CONTINUOUS
10
109.9676649999999967
20
-63.9734319999999954
11
109.8200899999999933
21
-63.770311999999997
0
LINE
8
BLACK
6
CONTINUOUS
10
109.8200899999999933
20
-63.770311999999997
11
109.7061080000000004
21
-63.5466089999999966
0
LINE
8
BLACK
6
CONTINUOUS
10
109.7061080000000004
20
-63.5466089999999966
11
109.6285230000000013
21
-63.3078269999999961
0
LINE
8
BLACK
6
CONTINUOUS
10
109.6285230000000013
20
-63.3078269999999961
11
109.5892470000000003
21
-63.0598499999999973
0
LINE
8
BLACK
6
CONTINUOUS
10
109.5892470000000003
20
-63.0598499999999973
11
109.5892470000000003
21
-62.8087799999999987
0
LINE
8
BLACK
6
CONTINUOUS
10
109.5892470000000003
20
-62.8087799999999987
11
109.6285230000000013
21
-62.5608029999999999
0
LINE
8
BLACK
6
CONTINUOUS
10
109.6285230000000013
20
-62.5608029999999999
11
109.7061080000000004
21
-62.3220209999999994
0
LINE
8
BLACK
6
CONTINUOUS
10
109.7061080000000004
20
-62.3220209999999994
11
109.8200899999999933
21
-62.098317999999999
0
LINE
8
BLACK
6
CONTINUOUS
10
109.8200899999999933
20
-62.098317999999999
11
109.9676649999999967
21
-61.8951980000000006
0
LINE
8
BLACK
6
CONTINUOUS
10
109.9676649999999967
20
-61.8951980000000006
11
110.1451979999999935
21
-61.7176649999999967
0
LINE
8
BLACK
6
CONTINUOUS
10
110.1451979999999935
20
-61.7176649999999967
11
110.3483179999999919
21
-61.5700900000000004
0
LINE
8
BLACK
6
CONTINUOUS
10
110.3483179999999919
20
-61.5700900000000004
11
110.5720209999999923
21
-61.4561080000000004
0
LINE
8
BLACK
6
CONTINUOUS
10
110.5720209999999923
20
-61.4561080000000004
11
110.8108029999999928
21
-61.3785229999999942
0
LINE
8
BLACK
6
CONTINUOUS
10
110.8108029999999928
20
-61.3785229999999942
11
111.0587799999999987
21
-61.3392470000000003
0
LINE
8
BLACK
6
CONTINUOUS
10
111.0587799999999987
20
-61.3392470000000003
11
111.3098499999999973
21
-61.3392470000000003
0
LINE
8
BLACK
6
CONTINUOUS
10
111.3098499999999973
20
-61.3392470000000003
11
111.557826999999989
21
-61.3785229999999942
0
LINE
8
BLACK
6
CONTINUOUS
10
111.557826999999989
20
-61.3785229999999942
11
111.7966089999999895
21
-61.4561080000000004
0
LINE
8
BLACK
6
CONTINUOUS
10
111.7966089999999895
20
-61.4561080000000004
11
112.0203119999999899
21
-61.5700900000000004
0
LINE
8
BLACK
6
CONTINUOUS
10
112.0203119999999899
20
-61.5700900000000004
11
112.2234319999999883
21
-61.7176649999999967
0
LINE
8
BLACK
6
CONTINUOUS
10
112.2234319999999883
20
-61.7176649999999967
11
112.3156859999999995
21
-61.8029439999999965
0
LINE
8
BLACK
6
CONTINUOUS
10
112.3156859999999995
20
-61.8029439999999965
11
113.4470559999999892
21
-62.9343140000000005
0
LINE
8
BLACK
6
CONTINUOUS
10
113.4470559999999892
20
-62.9343140000000005
11
113.5323349999999891
21
-63.0265679999999975
0
LINE
8
BLACK
6
CONTINUOUS
10
158.0323349999999891
20
-108.0265679999999975
11
158.1799100000000067
21
-108.2296879999999959
0
LINE
8
BLACK
6
CONTINUOUS
10
158.1799100000000067
20
-108.2296879999999959
11
158.2938919999999996
21
-108.4533909999999963
0
LINE
8
BLACK
6
CONTINUOUS
10
158.2938919999999996
20
-108.4533909999999963
11
158.3714769999999987
21
-108.6921729999999968
0
LINE
8
BLACK
6
CONTINUOUS
10
158.3714769999999987
20
-108.6921729999999968
11
158.4107529999999997
21
-108.9401499999999885
0
LINE
8
BLACK
6
CONTINUOUS
10
158.4107529999999997
20
-108.9401499999999885
11
158.4107529999999997
21
-109.1912200000000013
0
LINE
8
BLACK
6
CONTINUOUS
10
158.4107529999999997
20
-109.1912200000000013
11
158.3714769999999987
21
-109.439196999999993
0
LINE
8
BLACK
6
CONTINUOUS
10
158.3714769999999987
20
-109.439196999999993
11
158.2938919999999996
21
-109.6779789999999934
0
LINE
8
BLACK
6
CONTINUOUS
10
158.2938919999999996
20
-109.6779789999999934
11
158.1799100000000067
21
-109.9016829999999914
0
LINE
8
BLACK
6
CONTINUOUS
10
158.1799100000000067
20
-109.9016829999999914
11
158.0323349999999891
21
-110.1048019999999923
0
LINE
8
BLACK
6
CONTINUOUS
10
158.0323349999999891
20
-110.1048019999999923
11
157.8548020000000065
21
-110.2823349999999891
0
LINE
8
BLACK
6
CONTINUOUS
10
157.8548020000000065
20
-110.2823349999999891
11
157.6516829999999914
21
-110.4299099999999925
0
LINE
8
BLACK
6
CONTINUOUS
10
157.6516829999999914
20
-110.4299099999999925
11
157.4279789999999934
21
-110.5438919999999996
0
LINE
8
BLACK
6
CONTINUOUS
10
157.4279789999999934
20
-110.5438919999999996
11
157.1891969999999787
21
-110.6214769999999987
0
LINE
8
BLACK
6
CONTINUOUS
10
157.1891969999999787
20
-110.6214769999999987
11
156.9412199999999871
21
-110.6607529999999997
0
LINE
8
BLACK
6
CONTINUOUS
10
156.9412199999999871
20
-110.6607529999999997
11
156.6901499999999885
21
-110.6607529999999997
0
LINE
8
BLACK
6
CONTINUOUS
10
156.6901499999999885
20
-110.6607529999999997
11
156.4421729999999968
21
-110.6214769999999987
0
LINE
8
BLACK
6
CONTINUOUS
10
156.4421729999999968
20
-110.6214769999999987
11
156.2033909999999821
21
-110.5438919999999996
0
LINE
8
BLACK
6
CONTINUOUS
10
156.2033909999999821
20
-110.5438919999999996
11
155.9796879999999817
21
-110.4299099999999925
0
LINE
8
BLACK
6
CONTINUOUS
10
155.9796879999999817
20
-110.4299099999999925
11
155.7765679999999975
21
-110.2823349999999891
0
LINE
8
BLACK
6
CONTINUOUS
10
155.7765679999999975
20
-110.2823349999999891
11
155.6843140000000005
21
-110.1970559999999892
0
LINE
8
BLACK
6
CONTINUOUS
10
155.6843140000000005
20
-110.1970559999999892
11
154.5529439999999965
21
-109.0656859999999995
0
LINE
8
BLACK
6
CONTINUOUS
10
154.5529439999999965
20
-109.0656859999999995
11
154.4676649999999825
21
-108.9734319999999883
0
LINE
8
BLACK
6
CONTINUOUS
10
154.4676649999999825
20
-108.9734319999999883
11
154.3200899999999933
21
-108.7703119999999899
0
LINE
8
BLACK
6
CONTINUOUS
10
154.3200899999999933
20
-108.7703119999999899
11
154.2061080000000004
21
-108.5466089999999895
0
LINE
8
BLACK
6
CONTINUOUS
10
154.2061080000000004
20
-108.5466089999999895
11
154.1285230000000013
21
-108.307826999999989
0
LINE
8
BLACK
6
CONTINUOUS
10
154.1285230000000013
20
-108.307826999999989
11
154.0892470000000003
21
-108.0598499999999973
0
LINE
8
BLACK
6
CONTINUOUS
10
154.0892470000000003
20
-108.0598499999999973
11
154.0892470000000003
21
-107.8087799999999987
0
LINE
8
BLACK
6
CONTINUOUS
10
154.0892470000000003
20
-107.8087799999999987
11
154.1285230000000013
21
-107.5608029999999928
0
LINE
8
BLACK
6
CONTINUOUS
10
154.1285230000000013
20
-107.5608029999999928
11
154.2061080000000004
21
-107.3220209999999923
0
LINE
8
BLACK
6
CONTINUOUS
10
154.2061080000000004
20
-107.3220209999999923
11
154.3200899999999933
21
-107.0983179999999919
0
LINE
8
BLACK
6
CONTINUOUS
10
154.3200899999999933
20
-107.0983179999999919
11
154.4676649999999825
21
-106.8951979999999935
0
LINE
8
BLACK
6
CONTINUOUS
10
154.4676649999999825
20
-106.8951979999999935
11
154.6451979999999935
21
-106.7176649999999967
0
LINE
8
BLACK
6
CONTINUOUS
10
154.6451979999999935
20
-106.7176649999999967
11
154.8483180000000061
21
-106.5700899999999933
0
LINE
8
BLACK
6
CONTINUOUS
10
154.8483180000000061
20
-106.5700899999999933
11
155.0720210000000066
21
-106.4561080000000004
0
LINE
8
BLACK
6
CONTINUOUS
10
155.0720210000000066
20
-106.4561080000000004
11
155.3108029999999928
21
-106.3785230000000013
0
LINE
8
BLACK
6
CONTINUOUS
10
155.3108029999999928
20
-106.3785230000000013
11
155.5587799999999845
21
-106.3392470000000003
0
LINE
8
BLACK
6
CONTINUOUS
10
155.5587799999999845
20
-106.3392470000000003
11
155.8098499999999831
21
-106.3392470000000003
0
LINE
8
BLACK
6
CONTINUOUS
10
155.8098499999999831
20
-106.3392470000000003
11
156.0578270000000032
21
-106.3785230000000013
0
LINE
8
BLACK
6
CONTINUOUS
10
156.0578270000000032
20
-106.3785230000000013
11
156.2966089999999895
21
-106.4561080000000004
0
LINE
8
BLACK
6
CONTINUOUS
10
156.2966089999999895
20
-106.4561080000000004
11
156.5203119999999899
21
-106.5700899999999933
0
LINE
8
BLACK
6
CONTINUOUS
10
156.5203119999999899
20
-106.5700899999999933
11
156.7234320000000025
21
-106.7176649999999967
0
LINE
8
BLACK
6
CONTINUOUS
10
156.7234320000000025
20
-106.7176649999999967
11
156.8156859999999995
21
-106.8029439999999965
0
LINE
8
BLACK
6
CONTINUOUS
10
156.8156859999999995
20
-106.8029439999999965
11
157.9470560000000035
21
-107.9343140000000005
0
LINE
8
BLACK
6
CONTINUOUS
10
157.9470560000000035
20
-107.9343140000000005
11
158.0323349999999891
21
-108.0265679999999975
0
CIRCLE
8
BLACK
10
155.7999999999999829
20
-102.2249999999999943
40
0.5
0
CIRCLE
8
BLACK
10
153.2599999999999909
20
-102.2249999999999943
40
0.5
0
CIRCLE
8
BLACK
10
150.7199999999999989
20
-102.2249999999999943
40
0.5
0
CIRCLE
8
BLACK
10
148.1800000000000068
20
-102.2249999999999943
40
0.5
0
CIRCLE
8
BLACK
10
96.0874999999999915
20
-77.3999999999999915
40
0.6
0
CIRCLE
8
BLACK
10
92.2774999999999892
20
-77.3999999999999915
40
0.6
0
CIRCLE
8
BLACK
10
153.0749999999999886
20
-89.5999989999999968
40
0.5
0
CIRCLE
8
BLACK
10
150.5349999999999966
20
-89.5999989999999968
40
0.5
0
CIRCLE
8
BLACK
10
142.4074999999999989
20
-82.957499999999996
40
0.5375
0
CIRCLE
8
BLACK
10
139.8675000000000068
20
-82.957499999999996
40
0.5375
0
CIRCLE
8
BLACK
10
137.3274999999999864
20
-82.957499999999996
40
0.5375
0
CIRCLE
8
BLACK
10
134.7874999999999943
20
-82.957499999999996
40
0.5375
0
CIRCLE
8
BLACK
10
126.6774999999999949
20
-77.3999999999999915
40
0.6
0
CIRCLE
8
BLACK
10
122.8674999999999926
20
-77.3999999999999915
40
0.6
0
CIRCLE
8
BLACK
10
102.477499999999992
20
-87.7000000000000028
40
0.6
0
CIRCLE
8
BLACK
10
106.2874999999999943
20
-87.7000000000000028
40
0.6
0
CIRCLE
8
BLACK
10
112.6774999999999949
20
-87.7000000000000028
40
0.6
0
CIRCLE
8
BLACK
10
116.4874999999999972
20
-87.7000000000000028
40
0.6
0
CIRCLE
8
BLACK
10
133.
20
-71.0249999999999915
40
0.5
0
CIRCLE
8
BLACK
10
133.
20
-73.5649999999999977
40
0.5
0
CIRCLE
8
BLACK
10
92.3125
20
-87.7000000000000028
40
0.6
0
CIRCLE
8
BLACK
10
96.1225000000000023
20
-87.7000000000000028
40
0.6
0
CIRCLE
8
BLACK
10
98.
20
-65.2749999999999915
40
0.5
0
CIRCLE
8
BLACK
10
98.
20
-62.7349999999999994
40
0.5
0
CIRCLE
8
BLACK
10
100.539999999999992
20
-65.2749999999999915
40
0.5
0
CIRCLE
8
BLACK
10
100.539999999999992
20
-62.7349999999999994
40
0.5
0
CIRCLE
8
BLACK
10
103.0799999999999983
20
-65.2749999999999915
40
0.5
0
CIRCLE
8
BLACK
10
103.0799999999999983
20
-62.7349999999999994
40
0.5
0
CIRCLE
8
BLACK
10
105.6199999999999903
20
-65.2749999999999915
40
0.5
0
CIRCLE
8
BLACK
10
105.6199999999999903
20
-62.7349999999999994
40
0.5
0
CIRCLE
8
BLACK
10
106.2874999999999943
20
-77.3999999999999915
40
0.6
0
CIRCLE
8
BLACK
10
102.477499999999992
20
-77.3999999999999915
40
0.6
0
CIRCLE
8
BLACK
10
116.4874999999999972
20
-77.3999999999999915
40
0.6
0
CIRCLE
8
BLACK
10
112.6774999999999949
20
-77.3999999999999915
40
0.6
0
CIRCLE
8
BLACK
10
122.8774999999999977
20
-87.7000000000000028
40
0.6
0
CIRCLE
8
BLACK
10
126.6875
20
-87.7000000000000028
40
0.6
0
CIRCLE
8
BLACK
10
103.6974999999999909
20
-101.5999999999999943
40
0.6
0
CIRCLE
8
BLACK
10
99.8874999999999886
20
-101.5999999999999943
40
0.6
0
CIRCLE
8
BLACK
10
96.0775000000000006
20
-101.5999999999999943
40
0.6
0
CIRCLE
8
BLACK
10
92.2674999999999983
20
-101.5999999999999943
40
0.6
0
CIRCLE
8
BLACK
10
163.9904989999999998
20
-73.875
40
0.1
0
CIRCLE
8
BLACK
10
162.4654989999999941
20
-73.875
40
0.1
0
CIRCLE
8
BLACK
10
164.7529989999999884
20
-74.6375000000000028
40
0.1
0
CIRCLE
8
BLACK
10
163.2279989999999827
20
-74.6375000000000028
40
0.1
0
CIRCLE
8
BLACK
10
161.7029990000000055
20
-74.6375000000000028
40
0.1
0
CIRCLE
8
BLACK
10
163.9904989999999998
20
-75.3999999999999915
40
0.1
0
CIRCLE
8
BLACK
10
162.4654989999999941
20
-75.3999999999999915
40
0.1
0
CIRCLE
8
BLACK
10
164.7529989999999884
20
-76.1624999999999943
40
0.1
0
CIRCLE
8
BLACK
10
163.2279989999999827
20
-76.1624999999999943
40
0.1
0
CIRCLE
8
BLACK
10
161.7029990000000055
20
-76.1624999999999943
40
0.1
0
CIRCLE
8
BLACK
10
163.9904989999999998
20
-76.9249999999999972
40
0.1
0
CIRCLE
8
BLACK
10
162.4654989999999941
20
-76.9249999999999972
40
0.1
0
CIRCLE
8
BLACK
10
150.2999999999999829
20
-113.1899999999999977
40
0.5
0
CIRCLE
8
BLACK
10
147.7599999999999909
20
-113.1899999999999977
40
0.5
0
CIRCLE
8
BLACK
10
145.2199999999999989
20
-113.1899999999999977
40
0.5
0
CIRCLE
8
BLACK
10
174.5
20
-98.75
40
0.22
0
CIRCLE
8
BLACK
10
175.5
20
-98.0999999999999943
40
0.22
0
CIRCLE
8
BLACK
10
174.5
20
-97.4499999999999886
40
0.22
0
CIRCLE
8
BLACK
10
175.5
20
-96.7999999999999972
40
0.22
0
CIRCLE
8
BLACK
10
174.5
20
-96.1499999999999915
40
0.22
0
LINE
8
BLACK
6
CONTINUOUS
10
174.2199999999999989
20
-101.1999999999999886
11
175.2199999999999989
21
-101.1999999999999886
0
ARC
8
BLACK
10
175.2199999999999989
20
-101.0249999999999915
40
0.175
50
-90.00000000
51
90.00000000
0
LINE
8
BLACK
6
CONTINUOUS
10
175.2199999999999989
20
-100.8499999999999943
11
174.2199999999999989
21
-100.8499999999999943
0
ARC
8
BLACK
10
174.2199999999999989
20
-101.0249999999999915
40
0.175
50
90.00000000
51
270.00000000
0
LINE
8
BLACK
6
CONTINUOUS
10
174.2199999999999989
20
-94.0499999999999972
11
175.2199999999999989
21
-94.0499999999999972
0
ARC
8
BLACK
10
175.2199999999999989
20
-93.875
40
0.175
50
-90.00000000
51
90.00000000
0
LINE
8
BLACK
6
CONTINUOUS
10
175.2199999999999989
20
-93.7000000000000028
11
174.2199999999999989
21
-93.7000000000000028
0
ARC
8
BLACK
10
174.2199999999999989
20
-93.875
40
0.175
50
90.00000000
51
270.00000000
0
CIRCLE
8
BLACK
10
145.1749999999999829
20
-62.6749999999999972
40
0.5
0
CIRCLE
8
BLACK
10
145.1749999999999829
20
-60.134999999999998
40
0.5
0
CIRCLE
8
BLACK
10
147.7150000000000034
20
-62.6749999999999972
40
0.5
0
CIRCLE
8
BLACK
10
147.7150000000000034
20
-60.134999999999998
40
0.5
0
CIRCLE
8
BLACK
10
150.2549999999999955
20
-62.6749999999999972
40
0.5
0
CIRCLE
8
BLACK
10
150.2549999999999955
20
-60.134999999999998
40
0.5
0
CIRCLE
8
BLACK
10
152.7949999999999875
20
-62.6749999999999972
40
0.5
0
CIRCLE
8
BLACK
10
152.7949999999999875
20
-60.134999999999998
40
0.5
0
CIRCLE
8
BLACK
10
155.3349999999999795
20
-62.6749999999999972
40
0.5
0
CIRCLE
8
BLACK
10
155.3349999999999795
20
-60.134999999999998
40
0.5
0
CIRCLE
8
BLACK
10
157.875
20
-62.6749999999999972
40
0.5
0
CIRCLE
8
BLACK
10
157.875
20
-60.134999999999998
40
0.5
0
CIRCLE
8
BLACK
10
160.414999999999992
20
-62.6749999999999972
40
0.5
0
CIRCLE
8
BLACK
10
160.414999999999992
20
-60.134999999999998
40
0.5
0
CIRCLE
8
BLACK
10
162.9549999999999841
20
-62.6749999999999972
40
0.5
0
CIRCLE
8
BLACK
10
162.9549999999999841
20
-60.134999999999998
40
0.5
0
CIRCLE
8
BLACK
10
165.4950000000000045
20
-62.6749999999999972
40
0.5
0
CIRCLE
8
BLACK
10
165.4950000000000045
20
-60.134999999999998
40
0.5
0
CIRCLE
8
BLACK
10
168.0349999999999966
20
-62.6749999999999972
40
0.5
0
CIRCLE
8
BLACK
10
168.0349999999999966
20
-60.134999999999998
40
0.5
0
LINE
8
BLACK
6
CONTINUOUS
10
113.4470559999999892
20
-62.934314999999998
11
112.315685000000002
21
-61.8029439999999965
0
ARC
8
BLACK
10
111.184314999999998
20
-62.934314999999998
40
1.5999989999999999
50
45.00000000
51
225.00000000
0
LINE
8
BLACK
6
CONTINUOUS
10
110.0529439999999965
20
-64.065685000000002
11
111.184314999999998
21
-65.1970560000000035
0
ARC
8
BLACK
10
112.315685000000002
20
-64.065685000000002
40
1.5999989999999999
50
225.00000000
51
405.00000000
0
LINE
8
BLACK
6
CONTINUOUS
10
157.9470560000000035
20
-107.934314999999998
11
156.815685000000002
21
-106.8029439999999965
0
ARC
8
BLACK
10
155.684314999999998
20
-107.934314999999998
40
1.5999989999999999
50
45.00000000
51
225.00000000
0
LINE
8
BLACK
6
CONTINUOUS
10
154.5529439999999965
20
-109.065685000000002
11
155.684314999999998
21
-110.1970559999999892
0
ARC
8
BLACK
10
156.815685000000002
20
-109.065685000000002
40
1.5999989999999999
50
225.00000000
51
405.00000000
0
CIRCLE
8
BLACK
10
155.7999999999999829
20
-102.2249999999999943
40
0.5
0
CIRCLE
8
BLACK
10
153.2599999999999909
20
-102.2249999999999943
40
0.5
0
CIRCLE
8
BLACK
10
150.7199999999999989
20
-102.2249999999999943
40
0.5
0
CIRCLE
8
BLACK
10
148.1800000000000068
20
-102.2249999999999943
40
0.5
0
CIRCLE
8
BLACK
10
96.0874999999999915
20
-77.3999999999999915
40
0.6
0
CIRCLE
8
BLACK
10
92.2774999999999892
20
-77.3999999999999915
40
0.6
0
CIRCLE
8
BLACK
10
153.0749999999999886
20
-89.5999989999999968
40
0.5
0
CIRCLE
8
BLACK
10
150.5349999999999966
20
-89.5999989999999968
40
0.5
0
CIRCLE
8
BLACK
10
142.4074999999999989
20
-82.957499999999996
40
0.5375
0
CIRCLE
8
BLACK
10
139.8675000000000068
20
-82.957499999999996
40
0.5375
0
CIRCLE
8
BLACK
10
137.3274999999999864
20
-82.957499999999996
40
0.5375
0
CIRCLE
8
BLACK
10
134.7874999999999943
20
-82.957499999999996
40
0.5375
0
CIRCLE
8
BLACK
10
126.6774999999999949
20
-77.3999999999999915
40
0.6
0
CIRCLE
8
BLACK
10
122.8674999999999926
20
-77.3999999999999915
40
0.6
0
CIRCLE
8
BLACK
10
102.477499999999992
20
-87.7000000000000028
40
0.6
0
CIRCLE
8
BLACK
10
106.2874999999999943
20
-87.7000000000000028
40
0.6
0
CIRCLE
8
BLACK
10
112.6774999999999949
20
-87.7000000000000028
40
0.6
0
CIRCLE
8
BLACK
10
116.4874999999999972
20
-87.7000000000000028
40
0.6
0
CIRCLE
8
BLACK
10
133.
20
-71.0249999999999915
40
0.5
0
CIRCLE
8
BLACK
10
133.
20
-73.5649999999999977
40
0.5
0
CIRCLE
8
BLACK
10
92.3125
20
-87.7000000000000028
40
0.6
0
CIRCLE
8
BLACK
10
96.1225000000000023
20
-87.7000000000000028
40
0.6
0
CIRCLE
8
BLACK
10
98.
20
-65.2749999999999915
40
0.5
0
CIRCLE
8
BLACK
10
98.
20
-62.7349999999999994
40
0.5
0
CIRCLE
8
BLACK
10
100.539999999999992
20
-65.2749999999999915
40
0.5
0
CIRCLE
8
BLACK
10
100.539999999999992
20
-62.7349999999999994
40
0.5
0
CIRCLE
8
BLACK
10
103.0799999999999983
20
-65.2749999999999915
40
0.5
0
CIRCLE
8
BLACK
10
103.0799999999999983
20
-62.7349999999999994
40
0.5
0
CIRCLE
8
BLACK
10
105.6199999999999903
20
-65.2749999999999915
40
0.5
0
CIRCLE
8
BLACK
10
105.6199999999999903
20
-62.7349999999999994
40
0.5
0
CIRCLE
8
BLACK
10
106.2874999999999943
20
-77.3999999999999915
40
0.6
0
CIRCLE
8
BLACK
10
102.477499999999992
20
-77.3999999999999915
40
0.6
0
CIRCLE
8
BLACK
10
116.4874999999999972
20
-77.3999999999999915
40
0.6
0
CIRCLE
8
BLACK
10
112.6774999999999949
20
-77.3999999999999915
40
0.6
0
CIRCLE
8
BLACK
10
122.8774999999999977
20
-87.7000000000000028
40
0.6
0
CIRCLE
8
BLACK
10
126.6875
20
-87.7000000000000028
40
0.6
0
CIRCLE
8
BLACK
10
103.6974999999999909
20
-101.5999999999999943
40
0.6
0
CIRCLE
8
BLACK
10
99.8874999999999886
20
-101.5999999999999943
40
0.6
0
CIRCLE
8
BLACK
10
96.0775000000000006
20
-101.5999999999999943
40
0.6
0
CIRCLE
8
BLACK
10
92.2674999999999983
20
-101.5999999999999943
40
0.6
  0
ENDSEC
  0
EOF
